<?xml version="1.0" encoding="UTF-8" standalone="no"?>
<!DOCTYPE svg PUBLIC "-//W3C//DTD SVG 1.1//EN" "http://www.w3.org/Graphics/SVG/1.1/DTD/svg11.dtd">
<!-- Created with Vectornator (http://vectornator.io/) -->
<svg height="100%" stroke-miterlimit="10" style="fill-rule:nonzero;clip-rule:evenodd;stroke-linecap:round;stroke-linejoin:round;" version="1.1" viewBox="0 0 3391.04 460.366" width="100%" xml:space="preserve" xmlns="http://www.w3.org/2000/svg" xmlns:vectornator="http://vectornator.io" xmlns:xlink="http://www.w3.org/1999/xlink">
<defs>
<clipPath id="TextBounds">
<rect height="341.831" width="2487.9" x="717.053" y="73.6797"/>
</clipPath>
<filter color-interpolation-filters="sRGB" filterUnits="userSpaceOnUse" height="71.5794" id="Filter" width="104.016" x="143.466" y="122.552">
<feGaussianBlur in="SourceGraphic" result="Blur" stdDeviation="2.51541"/>
</filter>
</defs>
<style type="text/css">
#cloud-1{
    display: inline-block;
    animation: cloud-a 2s ease-in-out infinite;
    animation-direction: alternate;
    animation-delay: 0.2s;
}
#cloud-2{
    display: inline-block;
    animation: cloud-a 2.1s ease-in-out infinite;
    animation-direction: alternate;
    animation-delay: 0.3s;
}
#cloud-3{
    display: inline-block;
    animation: cloud 1.3s ease-in-out infinite;
    animation-direction: alternate;
    animation-delay: 0.6s;
}
#cloud-4{
    display: inline-block;
    animation: cloud-a 1.5s ease-in-out infinite;
    animation-direction: alternate;
    animation-delay: 0.1s;
}
@keyframes cloud {
  from { transform: translate(0rem, 0rem); }
  to { transform: translate(3rem, 3rem); }
}
@keyframes cloud-a {
  from { transform: translate(-2rem, -2rem); }
  to { transform: translate(0rem, 0rem); }
}
</style>
<g id="레이어-2" vectornator:layerName="레이어 2">
<path d="M690.025 45.9062L3356.83 45.9062L3160.43 220.88L3356.83 390.591L690.025 390.591L690.025 45.9062Z" fill="#ffffff" fill-rule="nonzero" opacity="1" stroke="#61422c" stroke-linecap="butt" stroke-linejoin="round" stroke-width="20"/>
<g fill="#6b44b9" opacity="1" stroke="none">
<path clip-path="url(#TextBounds)" d="M805.563 188.6L805.563 178.26L750.893 178.26L750.893 172.32L802.813 172.32L802.813 146.8L737.913 146.8L737.913 157.03L790.053 157.03L790.053 162.97L738.023 162.97L738.023 188.6L805.563 188.6ZM783.453 138.33L782.463 128.65C778.833 129.31 774.103 129.75 768.493 130.19L770.693 112.59C766.513 112.37 762.443 111.82 758.373 111.38L757.273 130.74C753.863 130.96 750.013 131.07 746.163 131.18C745.723 124.47 745.283 117.98 745.063 111.38C740.773 111.82 736.593 112.37 732.413 112.7C733.183 118.86 733.843 125.13 734.723 131.4L721.963 131.4L723.613 141.85C744.073 141.85 770.033 140.97 783.453 138.33ZM802.813 141.74L802.813 91.3597L790.053 91.3597L790.053 141.74L802.813 141.74ZM779.713 107.09L779.713 96.9697L725.263 96.9697L725.263 107.09L779.713 107.09Z"/>
<path clip-path="url(#TextBounds)" d="M885.203 91.3597L885.203 189.37L897.963 189.37L897.963 91.3597L885.203 91.3597ZM876.623 153.51C864.083 155.82 844.613 156.37 835.263 156.37L835.263 136.46L867.273 136.46L867.273 99.7197L822.063 99.7197L822.063 109.95L854.293 109.95L854.293 126.23L822.503 126.23L822.503 166.93L832.843 166.93C849.453 166.93 867.713 165.83 878.053 163.74L876.623 153.51Z"/>
<path clip-path="url(#TextBounds)" d="M973.753 147.79L972.763 138C969.463 138.55 964.953 138.99 959.783 139.32C960.663 131.4 961.433 123.48 962.203 115.67C958.023 115.34 953.843 114.9 949.663 114.46C949.333 122.82 949.003 131.51 948.563 139.98L943.723 139.98L936.573 140.2C936.133 131.62 935.693 122.93 935.363 114.35L922.603 115.89C923.483 124.03 924.143 132.39 925.023 140.53C920.843 140.64 916.553 140.64 912.263 140.64L913.913 151.31C934.593 151.31 960.333 149.99 973.753 147.79ZM995.313 186.73L995.313 176.5L940.753 176.5L940.753 156.15L927.773 156.15L927.773 186.73L995.313 186.73ZM993.113 162.64L993.113 91.3597L980.353 91.3597L980.353 162.64L993.113 162.64ZM970.013 110.06L970.013 99.9397L915.563 99.9397L915.563 110.06L970.013 110.06Z"/>
<path clip-path="url(#TextBounds)" d="M1065.6 138.77C1054.16 135.03 1042.94 122.82 1042.94 107.86L1042.94 96.9697L1029.52 96.9697L1029.52 108.52C1029.52 123.15 1020.28 135.91 1005.98 141.19L1013.57 151.42C1022.81 148.34 1033.37 138.11 1036.34 128.1C1040.63 137.23 1050.86 146.03 1058.34 148.78C1060.65 145.48 1063.18 142.18 1065.6 138.77ZM1088.37 162.42L1088.37 91.3597L1075.5 91.3597L1075.5 113.91L1058.67 113.91L1058.67 124.25L1075.5 124.25L1075.5 162.42L1088.37 162.42ZM1090.46 186.73L1090.46 176.5L1036.56 176.5L1036.56 155.93L1023.8 155.93L1023.8 186.73L1090.46 186.73Z"/>
<path clip-path="url(#TextBounds)" d="M1191 175.51L1191 165.28L1158.55 165.28L1158.55 135.36L1145.79 135.36L1145.79 165.28L1135.23 165.28L1135.23 135.36L1122.25 135.36L1122.25 165.28L1102.45 165.28L1102.45 175.51L1191 175.51ZM1181.32 101.48L1112.68 101.48L1112.68 111.82L1168.34 111.82C1168.45 125.9 1167.46 141.74 1164.6 152.74L1177.03 154.5C1180.11 141.41 1181.32 126.34 1181.32 101.48Z"/>
<path clip-path="url(#TextBounds)" d="M1263.11 118.644C1261.28 116.459 1258.67 115.367 1255.27 115.367C1250.61 115.367 1247.44 117.104 1245.76 120.577C1244.79 122.582 1244.22 125.769 1244.04 130.138L1229.16 130.138C1229.41 123.513 1230.61 118.16 1232.76 114.078C1236.84 106.308 1244.09 102.423 1254.51 102.423C1262.75 102.423 1269.3 104.706 1274.17 109.271C1279.04 113.836 1281.48 119.879 1281.48 127.398C1281.48 133.163 1279.76 138.284 1276.32 142.76C1274.06 145.732 1270.36 149.044 1265.2 152.696L1259.08 157.047C1255.25 159.768 1252.62 161.738 1251.21 162.955C1249.8 164.173 1248.6 165.587 1247.64 167.198L1281.64 167.198L1281.64 180.68L1228.3 180.68C1228.45 175.094 1229.65 169.991 1231.9 165.372C1234.09 160.18 1239.24 154.684 1247.37 148.883C1254.42 143.834 1258.99 140.217 1261.07 138.033C1264.25 134.631 1265.85 130.908 1265.85 126.861C1265.85 123.567 1264.93 120.828 1263.11 118.644Z"/>
<path clip-path="url(#TextBounds)" d="M1292.92 164.674L1309.19 164.674L1309.19 180.68L1292.92 180.68L1292.92 164.674Z"/>
<path clip-path="url(#TextBounds)" d="M1358.23 180.68L1342.55 180.68L1342.55 126.969L1324.23 126.969L1324.23 116.549C1329.06 116.334 1332.45 116.012 1334.38 115.582C1337.46 114.902 1339.97 113.541 1341.9 111.5C1343.23 110.103 1344.23 108.242 1344.91 105.914C1345.3 104.518 1345.5 103.479 1345.5 102.799L1358.23 102.799L1358.23 180.68Z"/>
<path clip-path="url(#TextBounds)" d="M1398.83 118.321C1397.12 120.613 1396.29 123.674 1396.36 127.506L1382.08 127.506C1382.22 123.639 1382.88 119.968 1384.06 116.495C1385.32 113.451 1387.29 110.641 1389.97 108.062C1391.98 106.236 1394.36 104.84 1397.12 103.873C1399.87 102.906 1403.26 102.423 1407.27 102.423C1414.71 102.423 1420.72 104.347 1425.29 108.197C1429.85 112.046 1432.14 117.211 1432.14 123.692C1432.14 128.276 1430.77 132.143 1428.05 135.294C1426.33 137.263 1424.54 138.606 1422.68 139.322C1424.08 139.322 1426.08 140.522 1428.7 142.921C1432.6 146.537 1434.55 151.479 1434.55 157.745C1434.55 164.334 1432.27 170.125 1427.7 175.121C1423.14 180.116 1416.38 182.613 1407.43 182.613C1396.4 182.613 1388.74 179.015 1384.44 171.817C1382.18 167.986 1380.93 162.973 1380.68 156.778L1395.72 156.778C1395.72 159.894 1396.22 162.472 1397.22 164.513C1399.09 168.272 1402.47 170.152 1407.37 170.152C1410.38 170.152 1413.01 169.123 1415.24 167.064C1417.48 165.005 1418.6 162.042 1418.6 158.175C1418.6 153.054 1416.52 149.635 1412.37 147.916C1410.01 146.949 1406.28 146.466 1401.2 146.466L1401.2 135.509C1406.17 135.437 1409.65 134.954 1411.62 134.059C1415.02 132.555 1416.72 129.511 1416.72 124.928C1416.72 121.956 1415.85 119.539 1414.12 117.677C1412.38 115.815 1409.93 114.884 1406.78 114.884C1403.17 114.884 1400.52 116.03 1398.83 118.321Z"/>
<path clip-path="url(#TextBounds)" d="M1441.48 142.76L1472.31 142.76L1472.31 157.262L1441.48 157.262L1441.48 142.76Z"/>
<path clip-path="url(#TextBounds)" d="M1517.21 180.68L1501.53 180.68L1501.53 126.969L1483.21 126.969L1483.21 116.549C1488.05 116.334 1491.43 116.012 1493.37 115.582C1496.45 114.902 1498.95 113.541 1500.89 111.5C1502.21 110.103 1503.21 108.242 1503.89 105.914C1504.29 104.518 1504.48 103.479 1504.48 102.799L1517.21 102.799L1517.21 180.68Z"/>
<path clip-path="url(#TextBounds)" d="M1546.38 175.792C1541.9 171.209 1539.66 165.641 1539.66 159.088C1539.66 154.719 1540.66 150.763 1542.65 147.218C1544.63 143.673 1547.54 141.005 1551.37 139.215C1547.61 136.708 1545.17 133.996 1544.04 131.078C1542.91 128.159 1542.35 125.429 1542.35 122.887C1542.35 117.229 1544.48 112.404 1548.74 108.412C1553 104.419 1559.02 102.423 1566.79 102.423C1574.56 102.423 1580.57 104.419 1584.84 108.412C1589.1 112.404 1591.23 117.229 1591.23 122.887C1591.23 125.429 1590.66 128.159 1589.54 131.078C1588.41 133.996 1585.96 136.529 1582.2 138.678C1586.03 140.826 1588.92 143.673 1590.85 147.218C1592.78 150.763 1593.75 154.719 1593.75 159.088C1593.75 165.641 1591.33 171.218 1586.47 175.819C1581.62 180.42 1574.85 182.721 1566.14 182.721C1557.44 182.721 1550.85 180.411 1546.38 175.792ZM1555.56 158.067C1555.56 161.899 1556.56 164.871 1558.54 166.983C1560.53 169.096 1563.28 170.152 1566.79 170.152C1570.3 170.152 1573.05 169.096 1575.03 166.983C1577.02 164.871 1578.01 161.899 1578.01 158.067C1578.01 154.093 1577 151.076 1574.98 149.017C1572.96 146.958 1570.23 145.929 1566.79 145.929C1563.35 145.929 1560.62 146.958 1558.6 149.017C1556.57 151.076 1555.56 154.093 1555.56 158.067ZM1559.59 131.534C1561.31 133.325 1563.71 134.22 1566.79 134.22C1569.9 134.22 1572.31 133.325 1574.01 131.534C1575.71 129.744 1576.56 127.434 1576.56 124.605C1576.56 121.526 1575.71 119.118 1574.01 117.381C1572.31 115.645 1569.9 114.776 1566.79 114.776C1563.71 114.776 1561.3 115.645 1559.56 117.381C1557.83 119.118 1556.96 121.526 1556.96 124.605C1556.96 127.434 1557.84 129.744 1559.59 131.534Z"/>
<path clip-path="url(#TextBounds)" d="M1708.36 188.16L1708.36 154.83L1644.89 154.83L1644.89 188.16L1708.36 188.16ZM1633.89 120.18L1652.59 120.18C1650.5 131.4 1641.81 138.22 1629.71 142.18C1632.13 145.48 1634.55 148.78 1636.86 152.08C1646.54 149.11 1656.33 140.75 1659.85 131.95C1663.81 140.31 1674.04 147.02 1681.52 149.55L1687.9 139.54C1678.33 136.79 1669.2 131.07 1666.89 120.18L1685.59 120.18L1685.59 110.06L1633.89 110.06L1633.89 120.18ZM1722.33 127.33L1722.33 116.77L1708.36 116.77L1708.36 91.3597L1695.6 91.3597L1695.6 149.88L1708.36 149.88L1708.36 127.33L1722.33 127.33ZM1695.49 178.04L1657.76 178.04L1657.76 164.62L1695.49 164.62L1695.49 178.04ZM1645.55 104.56L1674.04 104.56L1674.04 94.5497L1645.55 94.5497L1645.55 104.56Z"/>
<path clip-path="url(#TextBounds)" d="M1817.7 139.65L1817.7 128.98L1803.51 128.98L1803.51 91.3597L1790.75 91.3597L1790.75 189.37L1803.51 189.37L1803.51 139.65L1817.7 139.65ZM1777.77 101.37L1732.01 101.37L1732.01 112.04L1763.8 112.04C1762.04 131.62 1747.41 152.19 1726.07 161.98L1733.88 171.66C1763.91 155.38 1776.89 130.96 1777.77 101.37Z"/>
<path clip-path="url(#TextBounds)" d="M1903.06 189.37L1903.06 91.3597L1890.3 91.3597L1890.3 189.37L1903.06 189.37ZM1873.25 165.17L1873.25 99.0597L1860.27 99.0597L1860.27 122.82L1839.7 122.82L1839.7 99.2797L1826.94 99.2797L1826.94 165.17L1873.25 165.17ZM1860.27 155.05L1839.7 155.05L1839.7 132.94L1860.27 132.94L1860.27 155.05Z"/>
<path clip-path="url(#TextBounds)" d="M1973.84 142.008C1971.98 142.008 1970.37 142.241 1969.01 142.706C1966.61 143.565 1964.8 145.159 1963.58 147.486L1949.83 146.842L1955.31 103.819L1998.22 103.819L1998.22 116.817L1966.37 116.817L1963.58 133.844C1965.94 132.304 1967.79 131.284 1969.11 130.782C1971.33 129.959 1974.04 129.547 1977.22 129.547C1983.67 129.547 1989.29 131.713 1994.09 136.046C1998.89 140.379 2001.29 146.681 2001.29 154.952C2001.29 162.149 1998.98 168.577 1994.36 174.234C1989.74 179.892 1982.83 182.721 1973.63 182.721C1966.21 182.721 1960.13 180.733 1955.36 176.759C1950.6 172.784 1947.95 167.145 1947.41 159.84L1962.67 159.84C1963.28 163.17 1964.44 165.739 1966.16 167.547C1967.88 169.356 1970.38 170.26 1973.68 170.26C1977.47 170.26 1980.37 168.926 1982.35 166.258C1984.34 163.591 1985.33 160.234 1985.33 156.187C1985.33 152.213 1984.4 148.856 1982.54 146.117C1980.68 143.377 1977.78 142.008 1973.84 142.008Z"/>
<path clip-path="url(#TextBounds)" d="M2035.98 182.613C2026.07 182.613 2019.11 179.14 2015.12 172.193C2011.12 165.247 2009.13 155.346 2009.13 142.491C2009.13 129.636 2011.12 119.718 2015.12 112.735C2019.11 105.753 2026.07 102.262 2035.98 102.262C2045.9 102.262 2052.87 105.753 2056.88 112.735C2060.85 119.718 2062.84 129.636 2062.84 142.491C2062.84 155.346 2060.84 165.247 2056.85 172.193C2052.86 179.14 2045.9 182.613 2035.98 182.613ZM2044.95 163.009C2046.35 158.282 2047.05 151.443 2047.05 142.491C2047.05 133.11 2046.34 126.163 2044.93 121.651C2043.51 117.14 2040.53 114.884 2035.98 114.884C2031.44 114.884 2028.43 117.14 2026.96 121.651C2025.49 126.163 2024.76 133.11 2024.76 142.491C2024.76 151.443 2025.49 158.291 2026.96 163.036C2028.43 167.78 2031.44 170.152 2035.98 170.152C2040.53 170.152 2043.52 167.771 2044.95 163.009Z"/>
<path clip-path="url(#TextBounds)" d="M2146.84 91.3597L2133.75 91.3597L2133.75 162.42L2146.84 162.42L2146.84 129.97L2160.81 129.97L2160.81 119.3L2146.84 119.3L2146.84 91.3597ZM2149.15 186.51L2149.15 176.28L2096.13 176.28L2096.13 155.16L2083.26 155.16L2083.26 186.51L2149.15 186.51ZM2118.9 145.04L2118.9 98.8397L2073.03 98.8397L2073.03 145.04L2118.9 145.04ZM2106.14 134.92L2085.79 134.92L2085.79 108.85L2106.14 108.85L2106.14 134.92Z"/>
<path clip-path="url(#TextBounds)" d="M2221.09 112.7C2221.09 102.14 2210.86 94.4397 2196.56 94.4397C2182.26 94.4397 2171.7 102.14 2171.7 112.48C2171.7 123.26 2182.26 130.74 2196.56 130.74C2210.86 130.74 2221.09 123.26 2221.09 112.7ZM2216.47 157.25L2235.17 157.25L2235.17 167.15L2248.04 167.15L2248.04 91.3597L2235.17 91.3597L2235.17 148.01L2216.47 148.01L2216.47 157.25ZM2249.58 186.73L2249.58 176.5L2190.51 176.5L2190.51 157.8L2177.64 157.8L2177.64 186.73L2249.58 186.73ZM2206.57 162.42L2206.57 144.05C2214.16 143.5 2221.42 142.84 2228.13 141.74L2227.36 132.28C2213.61 134.04 2188.97 135.25 2164.88 135.25C2165.54 138.55 2166.09 142.07 2166.64 145.37C2174.01 145.37 2183.58 145.26 2193.81 144.93L2193.81 162.42L2206.57 162.42ZM2208.33 112.7C2208.33 116.99 2203.82 121.06 2196.56 121.06C2189.08 121.06 2184.68 116.99 2184.68 112.7C2184.68 108.41 2189.08 104.01 2196.56 104.01C2203.82 104.01 2208.33 108.41 2208.33 112.7Z"/>
<path clip-path="url(#TextBounds)" d="M2311.68 202.862L2307.87 197.652C2305.4 194.501 2302.77 189.811 2299.98 183.58C2295 172.444 2292.51 161.487 2292.51 150.709C2292.51 140.898 2294.6 131.158 2298.79 121.49C2301.62 114.902 2305.76 107.812 2311.2 100.221L2322.75 100.221L2319.47 106.236C2314.96 114.508 2311.83 123.173 2310.07 132.232C2308.93 138.176 2308.35 144.658 2308.35 151.676C2308.35 162.633 2309.95 172.713 2313.13 181.915C2315 187.358 2318.29 194.34 2323.02 202.862L2311.68 202.862Z"/>
<path clip-path="url(#TextBounds)" d="M2417.2 130.08L2417.2 119.52L2404.33 119.52L2404.33 91.3597L2391.46 91.3597L2391.46 155.16L2404.33 155.16L2404.33 130.08L2417.2 130.08ZM2405.1 172.76C2405.1 162.09 2392.56 155.82 2371.66 155.82C2350.76 155.82 2338.22 162.09 2338.22 172.76C2338.22 183.43 2350.76 189.59 2371.66 189.59C2392.56 189.59 2405.1 183.43 2405.1 172.76ZM2371.66 165.61C2384.53 165.61 2392.01 168.69 2392.01 172.76C2392.01 176.83 2384.53 179.91 2371.66 179.91C2358.68 179.91 2351.31 176.83 2351.31 172.76C2351.31 168.69 2358.68 165.61 2371.66 165.61ZM2384.09 117.98L2384.09 107.97L2327.22 107.97L2327.22 117.98L2384.09 117.98ZM2341.41 103.79L2370.45 103.79L2370.45 93.6697L2341.41 93.6697L2341.41 103.79ZM2379.14 137.45C2379.14 127.33 2369.24 120.62 2355.93 120.62C2342.4 120.62 2332.28 127.33 2332.28 137.45C2332.28 147.46 2342.4 154.17 2355.93 154.17C2369.24 154.17 2379.14 147.46 2379.14 137.45ZM2345.26 137.45C2345.26 133.05 2349.99 130.19 2355.93 130.19C2361.54 130.19 2366.49 133.05 2366.49 137.45C2366.49 141.74 2361.54 144.6 2355.93 144.6C2350.1 144.6 2345.26 141.74 2345.26 137.45Z"/>
<path clip-path="url(#TextBounds)" d="M2500.14 170.67C2500.14 159.34 2487.71 151.97 2466.15 151.97C2444.48 151.97 2431.94 159.34 2431.94 170.67C2431.94 182 2444.48 189.37 2466.15 189.37C2487.71 189.37 2500.14 182 2500.14 170.67ZM2511.36 144.49L2511.36 134.26L2469.23 134.26L2469.23 117.21L2456.36 117.21L2456.36 134.26L2422.81 134.26L2422.81 144.49L2511.36 144.49ZM2499.92 94.8797L2432.93 94.8797L2432.93 105L2487.05 105C2487.05 115.34 2486.06 121.17 2484.41 127.77C2488.59 128.21 2492.77 128.87 2496.84 129.42C2498.6 121.39 2499.92 113.14 2499.92 94.8797ZM2487.05 170.78C2487.05 176.28 2478.91 179.14 2466.15 179.14C2453.28 179.14 2445.25 176.28 2445.25 170.78C2445.25 165.06 2453.28 162.31 2466.15 162.31C2478.91 162.31 2487.05 165.06 2487.05 170.78Z"/>
<path clip-path="url(#TextBounds)" d="M2559.21 158.9L2559.21 138.11C2567.46 137.45 2575.6 136.68 2582.53 135.69L2580.99 126.01C2577.8 126.34 2574.06 126.67 2569.55 127C2571.31 119.3 2572.3 110.17 2572.3 97.2997L2526.1 97.2997L2526.1 107.42L2559.43 107.42C2559.43 115.89 2558.55 122.71 2557.12 127.88C2544.69 128.54 2530.17 128.87 2516.64 128.87C2517.19 132.39 2517.74 135.8 2518.4 139.32C2525.66 139.32 2535.67 139.21 2546.34 138.77L2546.34 158.9L2559.21 158.9ZM2568.12 152.08L2587.81 152.08L2587.81 166.05L2600.68 166.05L2600.68 91.3597L2587.81 91.3597L2587.81 143.28L2568.12 143.28L2568.12 152.08ZM2602.22 186.73L2602.22 176.5L2543.15 176.5L2543.15 156.48L2530.28 156.48L2530.28 186.73L2602.22 186.73Z"/>
<path clip-path="url(#TextBounds)" d="M2694.07 140.86L2694.07 91.3597L2681.31 91.3597L2681.31 103.35L2667.12 103.35L2667.12 113.03L2681.31 113.03L2681.31 121.72L2667.12 121.72L2667.12 131.4L2681.31 131.4L2681.31 140.86L2694.07 140.86ZM2697.15 188.6L2697.15 178.26L2642.59 178.26L2642.59 171.66L2694.07 171.66L2694.07 145.37L2629.17 145.37L2629.17 155.6L2681.31 155.6L2681.31 162.31L2629.61 162.31L2629.61 188.6L2697.15 188.6ZM2662.39 138L2662.39 95.4297L2649.52 95.4297L2649.52 107.42L2629.17 107.42L2629.17 95.5397L2616.19 95.5397L2616.19 138L2662.39 138ZM2649.52 127.77L2629.17 127.77L2629.17 117.54L2649.52 117.54L2649.52 127.77Z"/>
<path clip-path="url(#TextBounds)" d="M2786.03 144.27L2786.03 134.04L2732.57 134.04L2732.57 108.74L2785.48 108.74L2785.48 98.5097L2719.7 98.5097L2719.7 144.27L2745.88 144.27L2745.88 166.93L2708.26 166.93L2708.26 177.05L2796.81 177.05L2796.81 166.93L2758.75 166.93L2758.75 144.27L2786.03 144.27Z"/>
<path clip-path="url(#TextBounds)" d="M2816.38 197.652L2812.57 202.862L2801.24 202.862C2805.96 194.34 2809.26 187.358 2811.12 181.915C2814.31 172.713 2815.9 162.633 2815.9 151.676C2815.9 144.658 2815.33 138.176 2814.18 132.232C2812.43 123.173 2809.29 114.508 2804.78 106.236L2801.51 100.221L2813.05 100.221C2818.5 107.812 2822.63 114.902 2825.46 121.49C2829.65 131.158 2831.75 140.898 2831.75 150.709C2831.75 161.487 2829.26 172.444 2824.28 183.58C2821.49 189.811 2818.85 194.501 2816.38 197.652Z"/>
<path clip-path="url(#TextBounds)" d="M780.153 297.77C768.713 294.03 757.493 281.82 757.493 266.86L757.493 255.97L744.073 255.97L744.073 267.52C744.073 282.15 734.833 294.91 720.533 300.19L728.123 310.42C737.363 307.34 747.923 297.11 750.893 287.1C755.183 296.23 765.413 305.03 772.893 307.78C775.203 304.48 777.733 301.18 780.153 297.77ZM802.923 321.42L802.923 250.36L790.053 250.36L790.053 272.91L773.223 272.91L773.223 283.25L790.053 283.25L790.053 321.42L802.923 321.42ZM805.013 345.73L805.013 335.5L751.113 335.5L751.113 314.93L738.353 314.93L738.353 345.73L805.013 345.73Z"/>
<path clip-path="url(#TextBounds)" d="M873.103 298.54C863.533 295.79 854.403 290.07 852.093 279.18L870.793 279.18L870.793 269.06L819.093 269.06L819.093 279.18L837.793 279.18C835.703 290.29 827.013 297.22 814.913 301.18C817.333 304.48 819.753 307.78 822.063 311.08C831.743 308 841.533 299.86 845.053 291.06C849.013 299.31 859.243 306.13 866.723 308.44C868.923 305.14 871.013 301.84 873.103 298.54ZM829.103 315.04L829.103 325.27L880.803 325.27L880.803 348.48L893.673 348.48L893.673 315.04L829.103 315.04ZM907.643 286.33L907.643 275.77L893.563 275.77L893.563 250.36L880.803 250.36L880.803 310.42L893.563 310.42L893.563 286.33L907.643 286.33ZM830.753 263.56L859.243 263.56L859.243 253.55L830.753 253.55L830.753 263.56Z"/>
<path clip-path="url(#TextBounds)" d="M963.743 326.92L963.743 309.54L1000.7 309.54L1000.7 299.31L912.153 299.31L912.153 309.54L950.983 309.54L950.983 326.92L963.743 326.92ZM956.483 271.37C961.433 282.59 978.593 291.72 991.683 293.7L997.183 283.58C983.103 282.81 963.193 271.26 963.193 256.74L963.193 253.77L949.883 253.77L949.883 256.74C949.883 271.26 932.393 281.82 916.003 283.47L921.393 293.59C935.583 291.5 951.533 282.59 956.483 271.37ZM990.473 345.73L990.473 335.61L936.353 335.61L936.353 317.79L923.483 317.79L923.483 345.73L990.473 345.73Z"/>
<path clip-path="url(#TextBounds)" d="M1072.81 277.644C1070.98 275.459 1068.37 274.367 1064.97 274.367C1060.31 274.367 1057.14 276.104 1055.46 279.577C1054.49 281.582 1053.92 284.769 1053.74 289.138L1038.86 289.138C1039.11 282.513 1040.31 277.16 1042.46 273.078C1046.54 265.308 1053.79 261.423 1064.21 261.423C1072.45 261.423 1079 263.706 1083.87 268.271C1088.74 272.836 1091.18 278.879 1091.18 286.398C1091.18 292.163 1089.46 297.284 1086.02 301.76C1083.76 304.732 1080.06 308.044 1074.9 311.696L1068.78 316.047C1064.95 318.768 1062.32 320.738 1060.91 321.955C1059.5 323.173 1058.3 324.587 1057.34 326.198L1091.34 326.198L1091.34 339.68L1038 339.68C1038.15 334.094 1039.35 328.991 1041.6 324.372C1043.79 319.18 1048.94 313.684 1057.07 307.883C1064.12 302.834 1068.69 299.217 1070.77 297.033C1073.95 293.631 1075.55 289.908 1075.55 285.861C1075.55 282.567 1074.63 279.828 1072.81 277.644Z"/>
<path clip-path="url(#TextBounds)" d="M1125.07 301.008C1123.21 301.008 1121.59 301.241 1120.23 301.706C1117.83 302.565 1116.03 304.159 1114.81 306.486L1101.06 305.842L1106.54 262.819L1149.45 262.819L1149.45 275.817L1117.6 275.817L1114.81 292.844C1117.17 291.304 1119.02 290.284 1120.34 289.782C1122.56 288.959 1125.26 288.547 1128.45 288.547C1134.9 288.547 1140.52 290.713 1145.32 295.046C1150.11 299.379 1152.51 305.681 1152.51 313.952C1152.51 321.149 1150.2 327.577 1145.59 333.234C1140.97 338.892 1134.06 341.721 1124.85 341.721C1117.44 341.721 1111.35 339.733 1106.59 335.759C1101.83 331.784 1099.18 326.145 1098.64 318.84L1113.9 318.84C1114.5 322.17 1115.67 324.739 1117.39 326.547C1119.11 328.356 1121.61 329.26 1124.91 329.26C1128.7 329.26 1131.59 327.926 1133.58 325.258C1135.57 322.591 1136.56 319.234 1136.56 315.187C1136.56 311.213 1135.63 307.856 1133.77 305.117C1131.91 302.377 1129.01 301.008 1125.07 301.008Z"/>
<path clip-path="url(#TextBounds)" d="M1228.42 274.78L1228.42 284.9L1214.89 284.9L1214.89 295.02L1228.42 295.02L1228.42 307.45L1241.18 307.45L1241.18 250.36L1228.42 250.36L1228.42 264.66L1215 264.66L1215 274.78L1228.42 274.78ZM1209.5 301.62L1209.5 257.4L1164.18 257.4L1164.18 301.62L1209.5 301.62ZM1196.85 291.72L1176.83 291.72L1176.83 267.3L1196.85 267.3L1196.85 291.72ZM1241.95 328.57C1241.95 316.25 1229.63 308.66 1208.18 308.66C1187.06 308.66 1174.85 316.25 1174.85 328.57C1174.85 340.56 1187.06 348.37 1208.18 348.37C1229.63 348.37 1241.95 340.56 1241.95 328.57ZM1208.18 318.89C1221.27 318.89 1228.64 322.63 1228.64 328.57C1228.64 334.4 1221.27 338.03 1208.18 338.03C1195.64 338.03 1187.94 334.4 1187.94 328.57C1187.94 322.63 1195.64 318.89 1208.18 318.89Z"/>
<path clip-path="url(#TextBounds)" d="M1288.32 339.68L1288.32 259.758L1302.45 259.758L1302.45 339.68L1288.32 339.68Z"/>
<path clip-path="url(#TextBounds)" d="M1356.84 296.78C1370.26 295.02 1386.32 286.66 1391.49 276.65C1396.88 286 1413.71 294.91 1426.47 296.34C1428.23 293.04 1430.1 289.74 1431.86 286.33C1417.23 284.79 1400.84 276.43 1398.53 264.77L1427.79 264.77L1427.79 254.54L1355.19 254.54L1355.19 264.77L1384.45 264.77C1382.25 276.43 1365.97 285.23 1351.23 286.77L1356.84 296.78ZM1397.76 348.26L1397.76 314.16L1435.82 314.16L1435.82 303.93L1347.27 303.93L1347.27 314.16L1384.78 314.16L1384.78 348.26L1397.76 348.26Z"/>
<path clip-path="url(#TextBounds)" d="M1448.58 280.72L1469.04 280.72C1467.28 289.96 1457.16 297.66 1445.39 300.3L1451.77 310.2C1461.78 307.67 1472.34 299.86 1476.08 291.61C1480.15 298.65 1490.71 305.8 1498.96 307.56C1500.94 304.15 1502.92 300.63 1504.9 297.33C1495.33 296.12 1484.77 289.08 1482.68 280.72L1502.04 280.72L1502.04 270.6L1448.58 270.6L1448.58 280.72ZM1524.26 250.36L1511.28 250.36L1511.28 348.37L1524.26 348.37L1524.26 250.36ZM1506.22 317.68C1499.18 318.56 1491.04 319.33 1482.24 319.66L1482.24 304.15L1469.26 304.15L1469.26 320.21C1460.68 320.43 1451.66 320.43 1442.64 320.43L1444.51 330.88C1462.88 330.88 1489.39 329.89 1507.21 327.47L1506.22 317.68ZM1461.12 265.21L1490.38 265.21L1490.38 255.09L1461.12 255.09L1461.12 265.21Z"/>
<path clip-path="url(#TextBounds)" d="M1656.68 334.51L1656.68 324.28L1624.23 324.28L1624.23 294.36L1611.47 294.36L1611.47 324.28L1600.91 324.28L1600.91 294.36L1587.93 294.36L1587.93 324.28L1568.13 324.28L1568.13 334.51L1656.68 334.51ZM1647 260.48L1578.36 260.48L1578.36 270.82L1634.02 270.82C1634.13 284.9 1633.14 300.74 1630.28 311.74L1642.71 313.5C1645.79 300.41 1647 285.34 1647 260.48Z"/>
<path clip-path="url(#TextBounds)" d="M1718.94 298.76C1718.94 288.75 1708.93 281.93 1695.29 281.93C1681.76 281.93 1671.86 288.75 1671.86 298.76C1671.86 307.01 1678.57 313.06 1688.58 314.93L1688.58 323.07C1680.11 323.18 1671.53 323.29 1663.17 323.29L1664.82 333.74C1683.19 333.74 1710.8 332.2 1727.52 330.33L1726.42 320.54C1719.27 321.42 1710.69 321.97 1701.45 322.52L1701.45 315.04C1711.79 313.39 1718.94 307.23 1718.94 298.76ZM1744.9 250.36L1732.03 250.36L1732.03 348.37L1744.9 348.37L1744.9 250.36ZM1723.56 279.29L1723.56 269.61L1666.36 269.61L1666.36 279.29L1723.56 279.29ZM1680.99 265.21L1709.48 265.21L1709.48 255.53L1680.99 255.53L1680.99 265.21ZM1705.96 298.76C1705.96 302.5 1701.56 305.8 1695.29 305.8C1689.13 305.8 1684.73 302.5 1684.73 298.76C1684.73 295.02 1689.13 291.83 1695.29 291.83C1701.56 291.83 1705.96 295.02 1705.96 298.76Z"/>
<path clip-path="url(#TextBounds)" d="M1846.98 334.51L1846.98 324.28L1814.53 324.28L1814.53 294.36L1801.77 294.36L1801.77 324.28L1791.21 324.28L1791.21 294.36L1778.23 294.36L1778.23 324.28L1758.43 324.28L1758.43 334.51L1846.98 334.51ZM1837.3 260.48L1768.66 260.48L1768.66 270.82L1824.32 270.82C1824.43 284.9 1823.44 300.74 1820.58 311.74L1833.01 313.5C1836.09 300.41 1837.3 285.34 1837.3 260.48Z"/>
<path clip-path="url(#TextBounds)" d="M1864.03 315.48L1864.03 325.71L1917.93 325.71L1917.93 348.48L1930.69 348.48L1930.69 315.48L1919.58 315.48L1919.58 305.25L1942.13 305.25L1942.13 295.13L1853.58 295.13L1853.58 305.25L1875.8 305.25L1875.8 315.48L1864.03 315.48ZM1863.7 271.37C1863.7 282.26 1875.91 290.29 1897.91 290.29C1919.91 290.29 1932.12 282.26 1932.12 271.37C1932.12 260.37 1919.91 252.45 1897.8 252.45C1875.91 252.45 1863.7 260.37 1863.7 271.37ZM1877.01 271.37C1877.01 265.98 1884.6 262.35 1897.8 262.35C1911.22 262.35 1918.81 265.98 1918.81 271.37C1918.81 276.65 1910.78 280.39 1897.8 280.39C1884.6 280.39 1877.01 276.65 1877.01 271.37ZM1888.67 305.25L1906.71 305.25L1906.71 315.48L1888.67 315.48L1888.67 305.25Z"/>
<path clip-path="url(#TextBounds)" d="M2007.03 297.77C1995.59 294.03 1984.37 281.82 1984.37 266.86L1984.37 255.97L1970.95 255.97L1970.95 267.52C1970.95 282.15 1961.71 294.91 1947.41 300.19L1955 310.42C1964.24 307.34 1974.8 297.11 1977.77 287.1C1982.06 296.23 1992.29 305.03 1999.77 307.78C2002.08 304.48 2004.61 301.18 2007.03 297.77ZM2029.8 321.42L2029.8 250.36L2016.93 250.36L2016.93 272.91L2000.1 272.91L2000.1 283.25L2016.93 283.25L2016.93 321.42L2029.8 321.42ZM2031.89 345.73L2031.89 335.5L1977.99 335.5L1977.99 314.93L1965.23 314.93L1965.23 345.73L2031.89 345.73Z"/>
<path clip-path="url(#TextBounds)" d="M2132.43 334.51L2132.43 324.28L2099.98 324.28L2099.98 294.36L2087.22 294.36L2087.22 324.28L2076.66 324.28L2076.66 294.36L2063.68 294.36L2063.68 324.28L2043.88 324.28L2043.88 334.51L2132.43 334.51ZM2122.75 260.48L2054.11 260.48L2054.11 270.82L2109.77 270.82C2109.88 284.9 2108.89 300.74 2106.03 311.74L2118.46 313.5C2121.54 300.41 2122.75 285.34 2122.75 260.48Z"/>
<path clip-path="url(#TextBounds)" d="M2194.69 298.76C2194.69 288.75 2184.68 281.93 2171.04 281.93C2157.51 281.93 2147.61 288.75 2147.61 298.76C2147.61 307.01 2154.32 313.06 2164.33 314.93L2164.33 323.07C2155.86 323.18 2147.28 323.29 2138.92 323.29L2140.57 333.74C2158.94 333.74 2186.55 332.2 2203.27 330.33L2202.17 320.54C2195.02 321.42 2186.44 321.97 2177.2 322.52L2177.2 315.04C2187.54 313.39 2194.69 307.23 2194.69 298.76ZM2220.65 250.36L2207.78 250.36L2207.78 348.37L2220.65 348.37L2220.65 250.36ZM2199.31 279.29L2199.31 269.61L2142.11 269.61L2142.11 279.29L2199.31 279.29ZM2156.74 265.21L2185.23 265.21L2185.23 255.53L2156.74 255.53L2156.74 265.21ZM2181.71 298.76C2181.71 302.5 2177.31 305.8 2171.04 305.8C2164.88 305.8 2160.48 302.5 2160.48 298.76C2160.48 295.02 2164.88 291.83 2171.04 291.83C2177.31 291.83 2181.71 295.02 2181.71 298.76Z"/>
<path clip-path="url(#TextBounds)" d="M2274.31 296.78C2287.73 295.02 2303.79 286.66 2308.96 276.65C2314.35 286 2331.18 294.91 2343.94 296.34C2345.7 293.04 2347.57 289.74 2349.33 286.33C2334.7 284.79 2318.31 276.43 2316 264.77L2345.26 264.77L2345.26 254.54L2272.66 254.54L2272.66 264.77L2301.92 264.77C2299.72 276.43 2283.44 285.23 2268.7 286.77L2274.31 296.78ZM2315.23 348.26L2315.23 314.16L2353.29 314.16L2353.29 303.93L2264.74 303.93L2264.74 314.16L2302.25 314.16L2302.25 348.26L2315.23 348.26Z"/>
<path clip-path="url(#TextBounds)" d="M2449.98 290.4L2449.98 279.73L2437.55 279.73L2437.55 250.36L2424.79 250.36L2424.79 323.18L2437.55 323.18L2437.55 290.4L2449.98 290.4ZM2440.08 345.73L2440.08 335.5L2386.07 335.5L2386.07 316.91L2373.09 316.91L2373.09 345.73L2440.08 345.73ZM2420.28 307.23L2419.29 297.44C2412.8 298.43 2398.06 299.42 2389.26 299.64L2389.26 280.28L2376.5 280.28L2376.5 299.97C2370.12 300.08 2363.52 300.19 2357.69 300.19L2359.34 310.64C2365.83 310.64 2378.48 310.09 2389.81 309.65C2400.15 309.32 2413.24 308 2420.28 307.23ZM2413.79 257.29L2363.74 257.29L2363.74 267.52L2400.81 267.52C2400.81 276.76 2400.15 285.45 2398.83 290.4L2411.04 292.16C2413.13 284.46 2413.79 273.46 2413.79 257.29Z"/>
<path clip-path="url(#TextBounds)" d="M2564.58 276.54C2564.58 263.67 2550.94 254.87 2529.71 254.87C2508.59 254.87 2494.95 263.67 2494.95 276.54C2494.95 289.52 2508.59 298.32 2529.71 298.32C2550.94 298.32 2564.58 289.52 2564.58 276.54ZM2519.26 348.26L2519.26 315.59L2540.05 315.59L2540.05 348.26L2552.92 348.26L2552.92 315.59L2574.15 315.59L2574.15 305.36L2485.6 305.36L2485.6 315.59L2506.39 315.59L2506.39 348.26L2519.26 348.26ZM2551.16 276.54C2551.16 283.03 2542.91 287.98 2529.71 287.98C2516.4 287.98 2508.26 283.03 2508.26 276.54C2508.26 270.05 2516.4 265.21 2529.71 265.21C2542.91 265.21 2551.16 270.05 2551.16 276.54Z"/>
<path clip-path="url(#TextBounds)" d="M2669.3 335.61L2669.3 325.38L2580.75 325.38L2580.75 335.61L2669.3 335.61ZM2667.43 295.46C2652.47 292.93 2631.79 280.06 2631.79 262.79L2631.79 256.3L2618.37 256.3L2618.37 262.79C2618.37 280.17 2598.9 293.15 2582.84 295.46L2588.89 305.91C2602.42 302.94 2619.91 292.49 2624.97 279.29C2630.58 292.16 2647.52 302.39 2660.94 305.47L2667.43 295.46Z"/>
<path clip-path="url(#TextBounds)" d="M2756.86 348.37L2756.86 250.36L2744.1 250.36L2744.1 348.37L2756.86 348.37ZM2727.05 324.17L2727.05 258.06L2714.07 258.06L2714.07 281.82L2693.5 281.82L2693.5 258.28L2680.74 258.28L2680.74 324.17L2727.05 324.17ZM2714.07 314.05L2693.5 314.05L2693.5 291.94L2714.07 291.94L2714.07 314.05Z"/>
<path clip-path="url(#TextBounds)" d="M2774.46 268.73L2794.15 268.73L2794.15 269.06C2794.15 283.91 2784.69 295.79 2770.5 300.96L2778.09 311.08C2787.55 307.78 2797.89 297.99 2800.86 288.42C2805.04 297.44 2814.61 305.58 2822.09 308.33L2829.13 298.21C2817.91 294.58 2807.57 283.69 2807.35 268.73L2826.16 268.73L2826.16 258.17L2774.46 258.17L2774.46 268.73ZM2852.12 321.42L2852.12 250.36L2839.25 250.36L2839.25 276.43L2824.51 276.43L2824.51 286.77L2839.25 286.77L2839.25 321.42L2852.12 321.42ZM2854.21 345.73L2854.21 335.61L2799.54 335.61L2799.54 314.82L2786.56 314.82L2786.56 345.73L2854.21 345.73Z"/>
<path clip-path="url(#TextBounds)" d="M2924.5 297.77C2913.06 294.03 2901.84 281.82 2901.84 266.86L2901.84 255.97L2888.42 255.97L2888.42 267.52C2888.42 282.15 2879.18 294.91 2864.88 300.19L2872.47 310.42C2881.71 307.34 2892.27 297.11 2895.24 287.1C2899.53 296.23 2909.76 305.03 2917.24 307.78C2919.55 304.48 2922.08 301.18 2924.5 297.77ZM2947.27 321.42L2947.27 250.36L2934.4 250.36L2934.4 272.91L2917.57 272.91L2917.57 283.25L2934.4 283.25L2934.4 321.42L2947.27 321.42ZM2949.36 345.73L2949.36 335.5L2895.46 335.5L2895.46 314.93L2882.7 314.93L2882.7 345.73L2949.36 345.73Z"/>
<path clip-path="url(#TextBounds)" d="M3049.9 334.51L3049.9 324.28L3017.45 324.28L3017.45 294.36L3004.69 294.36L3004.69 324.28L2994.13 324.28L2994.13 294.36L2981.15 294.36L2981.15 324.28L2961.35 324.28L2961.35 334.51L3049.9 334.51ZM3040.22 260.48L2971.58 260.48L2971.58 270.82L3027.24 270.82C3027.35 284.9 3026.36 300.74 3023.5 311.74L3035.93 313.5C3039.01 300.41 3040.22 285.34 3040.22 260.48Z"/>
<path clip-path="url(#TextBounds)" d="M3112.16 298.76C3112.16 288.75 3102.15 281.93 3088.51 281.93C3074.98 281.93 3065.08 288.75 3065.08 298.76C3065.08 307.01 3071.79 313.06 3081.8 314.93L3081.8 323.07C3073.33 323.18 3064.75 323.29 3056.39 323.29L3058.04 333.74C3076.41 333.74 3104.02 332.2 3120.74 330.33L3119.64 320.54C3112.49 321.42 3103.91 321.97 3094.67 322.52L3094.67 315.04C3105.01 313.39 3112.16 307.23 3112.16 298.76ZM3138.12 250.36L3125.25 250.36L3125.25 348.37L3138.12 348.37L3138.12 250.36ZM3116.78 279.29L3116.78 269.61L3059.58 269.61L3059.58 279.29L3116.78 279.29ZM3074.21 265.21L3102.7 265.21L3102.7 255.53L3074.21 255.53L3074.21 265.21ZM3099.18 298.76C3099.18 302.5 3094.78 305.8 3088.51 305.8C3082.35 305.8 3077.95 302.5 3077.95 298.76C3077.95 295.02 3082.35 291.83 3088.51 291.83C3094.78 291.83 3099.18 295.02 3099.18 298.76Z"/>
</g>
<path id="cloud-3" d="M63.9905 103.177C63.9905 103.177 97.7746 143.173 126.89 104.925C195.491 125.673 203.665 38.5053 131.482 54.6976C136.133 23.7033 94.6761-9.10909 67.9691 37.4388C15.2027 18.2061-26.4346 90.856 63.9905 103.177Z" fill="#ffffff" fill-rule="nonzero" opacity="1" stroke="#000000" stroke-linecap="butt" stroke-linejoin="round" stroke-width="7"/>
<path id="cloud-2" d="M194.886 434.353C194.886 434.353 228.67 474.35 257.785 436.101C320.97 455.211 332.893 382.774 277.983 383.868C273.275 383.961 268.077 384.596 262.378 385.874C266.659 357.347 231.88 327.28 205.493 358.966C203.21 361.707 200.991 364.91 198.865 368.615C146.098 349.382 104.461 422.032 194.886 434.353Z" fill="#ffffff" fill-rule="nonzero" opacity="1" stroke="#000000" stroke-linecap="butt" stroke-linejoin="round" stroke-width="7"/>
<path id="cloud-1" d="M619.928 388.817C619.928 388.817 653.713 428.814 682.828 390.565C751.429 411.313 759.603 324.146 687.42 340.338C692.071 309.344 650.614 276.531 623.907 323.079C571.141 303.846 529.503 376.496 619.928 388.817Z" fill="#ffffff" fill-rule="nonzero" opacity="1" stroke="#000000" stroke-linecap="butt" stroke-linejoin="round" stroke-width="7"/>
<path d="M168.976 159.414C168.976 159.414 98.1811 168.221 129.848 219.762C198.287 247.147 183.424 242.423 236.251 259.627C266.194 231.585 255.765 236.807 275.954 224.367C297.702 230.625 408.215 231.12 380.179 254.182C361.353 279.382 369.667 270.53 366.214 275.257C367.54 288.693 539.214 261.268 565.738 213.183C565.925 214.476 572.449 202.702 563.089 191.258C572.821 166.122 595.18 117.392 611.73 78.3275C613.126 62.3705 509.999 93.4259 512.654 96.5397C502.041 102.838 484.939 132.533 479.42 139.039C473.901 145.544 327.504 92.94 215.888 121.581C218.763 116.219 183.057 134.886 168.976 159.414Z" fill="#98daf4" fill-rule="nonzero" opacity="1" stroke="#000000" stroke-linecap="butt" stroke-linejoin="round" stroke-width="7"/>
<path d="M478.268 139.497C478.268 139.497 461.648 155.912 449.336 156.713" fill="none" opacity="1" stroke="#000000" stroke-linecap="butt" stroke-linejoin="round" stroke-width="7"/>
<path d="M357.27 119.326C357.27 119.326 396.723 64.8548 427.418 46.4593C440.279 36.898 486.494 27.2296 495.777 67.9411C493.495 87.1616 466.076 126.425 466.338 137.04C414.394 129.074 440.355 126.471 357.27 119.326Z" fill="#98daf4" fill-rule="nonzero" opacity="1" stroke="#000000" stroke-linecap="butt" stroke-linejoin="round" stroke-width="7"/>
<path d="M272.718 225.079C272.718 225.079 231.02 235.78 190.77 307.144C147.14 409.321 256.694 382.953 289.378 354.287C316.633 330.383 369.866 276.097 384.934 248.192C389.56 236.587 292.852 222.262 272.718 225.079Z" fill="#98daf4" fill-rule="nonzero" opacity="1" stroke="#000000" stroke-linecap="butt" stroke-linejoin="round" stroke-width="7"/>
<path d="M279.319 194.729C279.319 184.383 287.706 175.995 298.053 175.995C308.4 175.995 316.788 184.383 316.788 194.729C316.788 205.076 308.4 213.464 298.053 213.464C287.706 213.464 279.319 205.076 279.319 194.729Z" fill="#224c63" fill-rule="nonzero" opacity="1" stroke="#000000" stroke-linecap="butt" stroke-linejoin="round" stroke-width="7"/>
<path d="M344.849 202.873C344.849 192.526 353.236 184.138 363.583 184.138C373.93 184.138 382.318 192.526 382.318 202.873C382.318 213.22 373.93 221.608 363.583 221.608C353.236 221.608 344.849 213.22 344.849 202.873Z" fill="#224c63" fill-rule="nonzero" opacity="1" stroke="#000000" stroke-linecap="butt" stroke-linejoin="round" stroke-width="7"/>
<path d="M411.43 210.402C411.43 200.055 419.818 191.668 430.165 191.668C440.511 191.668 448.899 200.055 448.899 210.402C448.899 220.749 440.511 229.137 430.165 229.137C419.818 229.137 411.43 220.749 411.43 210.402Z" fill="#224c63" fill-rule="nonzero" opacity="1" stroke="#000000" stroke-linecap="butt" stroke-linejoin="round" stroke-width="7"/>
<path d="M204.814 126.642C205.098 145.517 225.174 167.173 240.45 168.853C246.048 187.136 231.35 202.467 208.768 201.122C185.058 198.641 170.95 169.99 170.269 163.515C174.486 150.015 189.978 135.956 204.814 126.642Z" fill="#224c63" fill-rule="nonzero" opacity="1" stroke="#000000" stroke-linecap="butt" stroke-linejoin="round" stroke-width="7"/>
<path d="M153.254 184.343C169.341 180.145 192.88 159.916 212.156 145.955C222.499 138.464 231.614 132.778 237.693 132.341" fill="none" filter="url(#Filter)" opacity="1" stroke="#ffffff" stroke-linecap="butt" stroke-linejoin="round" stroke-width="7"/>
<path d="M365.575 275.626C375.661 283.167 477.873 273.195 540.231 235.001C540.206 235.075 448.021 322.923 341.413 303.404C341.444 303.312 365.695 275.572 365.575 275.626Z" fill="#fffeff" fill-rule="nonzero" opacity="1" stroke="#000000" stroke-linecap="butt" stroke-linejoin="round" stroke-width="7"/>
<path d="M133.55 224.141C133.55 224.141 160.037 258.513 207.304 276.03C211.657 277.643 219.506 262.351 222.439 258.557C229.558 249.353 133.55 224.141 133.55 224.141Z" fill="#fffeff" fill-rule="nonzero" opacity="1" stroke="#000000" stroke-linecap="butt" stroke-linejoin="round" stroke-width="7"/>
<path id="cloud-4" d="M622.095 101.646C622.095 101.646 655.879 141.642 684.994 103.394C753.595 124.142 761.769 36.9744 689.587 53.1667C694.238 22.1724 652.781-10.64 626.073 35.9079C573.307 16.6751 531.67 89.3251 622.095 101.646Z" fill="#ffffff" fill-rule="nonzero" opacity="1" stroke="#000000" stroke-linecap="butt" stroke-linejoin="round" stroke-width="7"/>
</g>
</svg>
