<?xml version="1.0" encoding="UTF-8" standalone="no"?>
<!DOCTYPE svg PUBLIC "-//W3C//DTD SVG 1.1//EN" "http://www.w3.org/Graphics/SVG/1.1/DTD/svg11.dtd">
<!-- Created with Vectornator (http://vectornator.io/) -->
<svg height="100%" stroke-miterlimit="10" style="fill-rule:nonzero;clip-rule:evenodd;stroke-linecap:round;stroke-linejoin:round;" version="1.1" viewBox="0 0 217.177 166.333" width="100%" xml:space="preserve" xmlns="http://www.w3.org/2000/svg" xmlns:vectornator="http://vectornator.io" xmlns:xlink="http://www.w3.org/1999/xlink">
<defs/>
<g id="레이어-1" vectornator:layerName="레이어 1">
<path d="M62.7766 8.35521C62.8134 8.35521 153.469 8.35521 153.468 8.35521C173.403 8.35521 167.032 42.6119 198.864 80.79C199.458 92.6194 200.054 119.977 198.232 122.298C196.792 124.132 192.805 129.017 181.422 129.017C172.312 129.017 43.4458 129.017 34.7872 129.008C26.6566 129.001 19.3299 124.506 17.6651 122.298C15.8521 119.893 17.6154 80.5528 17.6514 80.5528C49.1524 42.2804 41.7405 8.35521 62.7766 8.35521Z" fill="none" opacity="1" stroke="#ffffff" stroke-linecap="butt" stroke-linejoin="round" stroke-width="7"/>
<path d="M35.4619 55.6526C38.3893 59.5587 176.377 61.3971 180.851 54.978" fill="none" opacity="1" stroke="#ffffff" stroke-linecap="butt" stroke-linejoin="round" stroke-width="7"/>
<path d="M40.0117 42.2804C40.0117 42.2804 11.6754 42.2804 11.6858 42.2804C8.12148 47.4893 7.33299 53.71 11.6858 58.9063C11.6835 58.9063 32.3186 58.9063 32.3186 58.9063L40.0117 42.2804Z" fill="none" opacity="1" stroke="#ffffff" stroke-linecap="butt" stroke-linejoin="round" stroke-width="7"/>
<path d="M176.151 42.2804L204.421 42.2804C209.835 47.1635 208.321 55.0761 204.421 58.9063L183.947 58.9063L176.151 42.2804Z" fill="none" opacity="1" stroke="#ffffff" stroke-linecap="butt" stroke-linejoin="round" stroke-width="7"/>
<path d="M60.6292 95.0393C60.6292 95.0393 38.7937 95.0065 38.7735 95.0393C35.9827 99.2296 35.4992 108.446 38.7735 112.135C38.7735 112.107 60.6494 112.111 60.6494 112.111L60.6292 95.0393Z" fill="none" opacity="1" stroke="#ffffff" stroke-linecap="butt" stroke-linejoin="round" stroke-width="7"/>
<path d="M60.4581 129.017L60.4581 153.761C55.3157 157.1 38.7735 157.01 34.87 153.761L34.87 129.017L60.4581 129.017Z" fill="none" opacity="1" stroke="#ffffff" stroke-linecap="butt" stroke-linejoin="round" stroke-width="7"/>
<path d="M156.349 95.0393L178.469 95.0393C181.529 99.8125 181.446 107.759 178.469 112.111L156.349 112.111L156.349 95.0393Z" fill="none" opacity="1" stroke="#ffffff" stroke-linecap="butt" stroke-linejoin="round" stroke-width="7"/>
<path d="M156.349 129.017L156.349 153.761C160.691 156.574 174.461 157.42 181.637 153.761L181.618 129.017L156.349 129.017Z" fill="none" opacity="1" stroke="#ffffff" stroke-linecap="butt" stroke-linejoin="round" stroke-width="7"/>
<path d="M78.4216 111.608L138.192 112.169" fill="none" opacity="1" stroke="#ffffff" stroke-linecap="butt" stroke-linejoin="round" stroke-width="7"/>
</g>
</svg>
