<?xml version="1.0" encoding="UTF-8" standalone="no"?>
<!DOCTYPE svg PUBLIC "-//W3C//DTD SVG 1.1//EN" "http://www.w3.org/Graphics/SVG/1.1/DTD/svg11.dtd">
<!-- Created with Vectornator (http://vectornator.io/) -->
<svg height="100%" stroke-miterlimit="10" style="fill-rule:nonzero;clip-rule:evenodd;stroke-linecap:round;stroke-linejoin:round;" version="1.1" viewBox="9.59896 7.06921 580.802 455.862" width="100%" xml:space="preserve" xmlns="http://www.w3.org/2000/svg" xmlns:vectornator="http://vectornator.io" xmlns:xlink="http://www.w3.org/1999/xlink">
<defs/>
<g id="무제" vectornator:layerName="무제">
<g opacity="1" vectornator:layerName="g">
<path d="M12.599 244.831L309.599 206.831C312.599 206.831 315.199 210.831 311.599 212.831L178.599 309.831C178.599 309.831 176.599 310.731 175.599 309.831L12.599 251.831C8.59896 250.531 8.59896 244.531 12.599 244.831Z" fill="#56c2ff" fill-rule="nonzero" opacity="1" stroke="none" vectornator:layerName="path"/>
<path d="M570.599 30.5308L221.599 453.531C219.599 456.431 214.599 454.531 213.599 452.531L173.599 314.531C173.599 313.531 173.599 311.531 174.599 309.531L564.599 25.5308C568.599 19.5308 573.599 25.5308 570.599 30.5308Z" fill="#6b6bd9" fill-rule="nonzero" opacity="1" stroke="none" vectornator:layerName="path"/>
<path d="M217.599 332.231L215.599 451.231C215.599 453.231 218.599 455.231 220.599 452.231L569.599 29.2308C571.599 27.2308 568.599 22.5308 565.599 25.2308L218.599 328.231C218.199 330.531 217.599 330.531 217.599 332.231Z" fill="#9a9ae3" fill-rule="nonzero" opacity="1" stroke="none" vectornator:layerName="path"/>
<path d="M13.599 242.531L577.599 8.53079C579.599 8.53079 580.599 10.5308 578.599 11.5308L312.599 207.331C312.599 207.331 311.999 207.331 312.599 207.331L15.599 245.331C11.599 246.531 11.599 243.531 13.599 242.531Z" fill="#8fecff" fill-rule="nonzero" opacity="1" stroke="none" vectornator:layerName="path"/>
<path d="M586.599 7.53079L345.599 219.431C344.599 219.431 344.599 221.431 344.899 222.431L460.899 461.431C461.899 463.431 464.899 463.431 465.899 461.431L589.899 10.4308C591.599 7.53079 588.599 6.33079 586.599 7.53079Z" fill="#cdb3ff" fill-rule="nonzero" opacity="1" stroke="none" vectornator:layerName="path"/>
</g>
</g>
</svg>
