<?xml version="1.0" encoding="UTF-8" standalone="no"?>
<!DOCTYPE svg PUBLIC "-//W3C//DTD SVG 1.1//EN" "http://www.w3.org/Graphics/SVG/1.1/DTD/svg11.dtd">
<!-- Created with Vectornator (http://vectornator.io/) -->
<svg height="100%" stroke-miterlimit="10" style="fill-rule:nonzero;clip-rule:evenodd;stroke-linecap:round;stroke-linejoin:round;" version="1.1" viewBox="0 0 130 100" width="100%" xml:space="preserve" xmlns="http://www.w3.org/2000/svg" xmlns:vectornator="http://vectornator.io" xmlns:xlink="http://www.w3.org/1999/xlink">
<defs/>
<g id="무제" vectornator:layerName="무제">
<g opacity="1" vectornator:layerName="g">
<path d="M10.1735 52.6047L67.0542 45.3271C67.6288 45.3271 68.1267 46.0931 67.4373 46.4762L41.9654 65.0534C41.9654 65.0534 41.5824 65.2257 41.3909 65.0534L10.1735 53.9454C9.40744 53.6964 9.40744 52.5473 10.1735 52.6047Z" fill="#56c2ff" fill-rule="nonzero" opacity="1" stroke="none" vectornator:layerName="path"/>
<path d="M117.04 11.5625L50.2007 92.5744C49.8176 93.1298 48.8601 92.766 48.6685 92.3829L41.0078 65.9535C41.0078 65.762 41.0078 65.3789 41.1994 64.9959L115.891 10.6049C116.657 9.45582 117.615 10.6049 117.04 11.5625Z" fill="#6b6bd9" fill-rule="nonzero" opacity="1" stroke="none" vectornator:layerName="path"/>
<path d="M49.4346 69.3434L49.0516 92.134C49.0516 92.517 49.6261 92.9 50.0092 92.3255L116.849 11.3135C117.232 10.9305 116.657 10.0304 116.083 10.5475L49.6261 68.5773C49.5495 69.0178 49.4346 69.0178 49.4346 69.3434Z" fill="#9a9ae3" fill-rule="nonzero" opacity="1" stroke="none" vectornator:layerName="path"/>
<path d="M10.365 52.1642L118.381 7.34913C118.764 7.34913 118.955 7.73216 118.572 7.92368L67.6288 45.4228C67.6288 45.4228 67.5139 45.4228 67.6288 45.4228L10.7481 52.7005C9.98199 52.9303 9.98199 52.3558 10.365 52.1642Z" fill="#8fecff" fill-rule="nonzero" opacity="1" stroke="none" vectornator:layerName="path"/>
<path d="M120.105 7.15761L73.9489 47.7402C73.7573 47.7402 73.7573 48.1232 73.8148 48.3147L96.0308 94.0874C96.2224 94.4705 96.7969 94.4705 96.9884 94.0874L120.737 7.71301C121.062 7.15761 120.488 6.92779 120.105 7.15761Z" fill="#cdb3ff" fill-rule="nonzero" opacity="1" stroke="none" vectornator:layerName="path"/>
</g>
</g>
</svg>
