<?xml version="1.0" encoding="UTF-8" standalone="no"?>
<!DOCTYPE svg PUBLIC "-//W3C//DTD SVG 1.1//EN" "http://www.w3.org/Graphics/SVG/1.1/DTD/svg11.dtd">
<!-- Created with Vectornator (http://vectornator.io/) -->
<svg height="100%" stroke-miterlimit="10" style="fill-rule:nonzero;clip-rule:evenodd;stroke-linecap:round;stroke-linejoin:round;" version="1.1" viewBox="0 0 998.907 552.487" width="100%" xml:space="preserve" xmlns="http://www.w3.org/2000/svg" xmlns:vectornator="http://vectornator.io" xmlns:xlink="http://www.w3.org/1999/xlink">
<defs>
<clipPath id="TextBounds">
<rect height="136.022" width="164.314" x="826.996" y="0.343304"/>
</clipPath>
<path d="M732.255 97.9125L732.184 117.092L693.733 117.57L693.372 164.506L692.321 206.863L734.011 208.235L830.186 206.748L842.746 205.175L843.766 172.317L844.659 115.815L804.1 115.86L804.092 98.0017L770.115 79.9598L732.255 97.9125Z" id="Fill"/>
<path d="M107.845 287.55L107.798 294.689L956.075 354.227L956.152 345.652L107.845 287.55Z" id="Fill_2"/>
<path d="M679.282 159.082L687.993 160.194L662.262 323.479L653.552 322.843L679.282 159.082Z" id="Fill_3"/>
<path d="M75.7769 232.561L77.2536 227.153L905.83 464.961L903.705 470.66L75.7769 232.561Z" id="Fill_4"/>
<clipPath id="TextBounds_2">
<rect height="34" width="127.187" x="0.99443" y="178.346"/>
</clipPath>
<clipPath id="TextBounds_3">
<rect height="71" width="247.592" x="362.645" y="219.601"/>
</clipPath>
<clipPath id="TextBounds_4">
<rect height="75.8116" width="129.465" x="757.964" y="253.78"/>
</clipPath>
<clipPath id="TextBounds_5">
<rect height="38.8297" width="89.166" x="836.54" y="352.629"/>
</clipPath>
<clipPath id="TextBounds_6">
<rect height="113.817" width="183.379" x="718.231" y="430.725"/>
</clipPath>
</defs>
<g id="레이어-3" vectornator:layerName="레이어 3">
<path d="M822.894 95.4519C814.375 55.636 843.099 15.7356 887.05 6.33203C931.002-3.07157 973.537 21.5825 982.056 61.3985C990.575 101.214 961.851 141.115 917.899 150.518C909.477 152.32 887.1 155.799 872.902 150.253C861.132 162.906 846.687 168.855 846.731 168.692C846.603 168.707 850.428 155.046 855.622 139.454C843.118 130.401 825.285 106.628 822.894 95.4519Z" fill="#ffffff" fill-rule="nonzero" opacity="1" stroke="#a3b9d8" stroke-linecap="butt" stroke-linejoin="round" stroke-width="1"/>
<g fill="#1e5798" opacity="1" stroke="none">
<path clip-path="url(#TextBounds)" d="M894.083 25.5522L909.929 35.7926L904.491 44.2079C903.569 45.635 902.717 46.8635 901.935 47.8931C900.691 49.5307 899.558 50.7984 898.536 51.696L893.983 48.7543C894.754 48.0661 895.542 47.1975 896.348 46.1486C897.153 45.0996 897.906 44.0338 898.606 42.9511L902.604 36.7099L891.507 29.5384L894.083 25.5522ZM892.044 34.6991L896.768 37.7521L890.376 47.6438L899.406 53.4795L896.735 57.6133L879.486 46.4666L882.157 42.3327L885.651 44.5907L892.044 34.6991Z"/>
<path clip-path="url(#TextBounds)" d="M928.382 47.0197L933.106 50.0728L922.929 65.8206L918.205 62.7676L921.735 57.305L918.159 59.0058C917.39 57.8574 916.774 56.436 916.311 54.7415C915.922 53.3276 915.723 52.0709 915.712 50.9713C914.7 51.3866 913.453 51.697 911.971 51.9023C910.063 52.1571 908.348 52.1302 906.826 51.8214L906.887 47.5705C909.064 47.8374 911.174 47.5323 913.217 46.6553C915.26 45.7782 916.817 44.5113 917.888 42.8545L918.747 41.5258L923.25 44.4357L922.518 45.5676C921.691 46.8471 921.153 48.4177 920.903 50.2795C920.581 52.722 920.937 54.9408 921.974 56.936L928.382 47.0197ZM907.372 54.1621L912.096 57.2152L909.504 61.226L921.364 68.8904L918.915 72.6797L905.21 63.8227C904.078 63.0912 903.437 62.4097 903.287 61.7779C903.137 61.1462 903.396 60.3136 904.064 59.2802L907.372 54.1621Z"/>
<path clip-path="url(#TextBounds)" d="M932.248 72.5055L935.595 74.6681L933.178 78.4082L928.035 75.0849C927.133 74.5018 926.636 73.8669 926.545 73.1802C926.477 72.6015 926.692 71.9266 927.191 71.1557L938.242 54.0544L945.279 58.6022L942.862 62.3423L940.008 60.4978L932.248 72.5055ZM951.487 61.951L955.645 64.6383L941.159 87.0544L937.001 84.3671L944.188 73.2452L943.352 72.7045L936.164 83.8265L932.03 81.155L946.516 58.7389L950.65 61.4103L945.928 68.7183L946.764 69.259L951.487 61.951Z"/>
<path clip-path="url(#TextBounds)" d="M864.618 43.8347L862.185 47.5994L858.617 45.2937C857.801 46.5568 857.432 47.9463 857.51 49.4621C857.589 50.9779 858.13 52.525 859.133 54.1034L855.728 56.403C855.261 55.9384 854.693 55.0011 854.022 53.5913C853.235 51.9664 852.835 50.6611 852.821 49.6753C851.732 50.0647 850.452 50.2374 848.98 50.1934C847.509 50.1494 846.22 49.9213 845.114 49.5091L846.108 45.6511C848.14 46.1043 849.961 45.9672 851.571 45.2399C852.793 44.6807 853.727 43.9008 854.373 42.9002L854.532 42.6541L850.743 40.2053L853.176 36.4406L856.744 38.7463L857.634 37.3683L862.383 40.4373L861.493 41.8152L864.618 43.8347ZM857.976 50.4956L859.948 47.4444L862.655 49.1936L866.757 42.8452L871.506 45.9142L860.709 62.6217L855.96 59.5527L860.683 52.2447L857.976 50.4956ZM843.636 59.7856C842.406 58.9905 841.801 58.1811 841.822 57.3574C841.831 56.8751 842.185 56.0926 842.885 55.0099L845.954 50.261L850.728 53.3458L848.12 57.3812L859.488 64.7276L857.071 68.4677L843.636 59.7856Z"/>
<path clip-path="url(#TextBounds)" d="M876.166 57.5414C875.689 58.2796 875.417 58.9877 875.351 59.6659C875.277 60.5012 875.526 61.1044 876.1 61.4755C876.658 61.8359 877.257 61.8625 877.897 61.5554C878.538 61.2483 879.07 60.7667 879.494 60.1105C879.96 59.3888 880.238 58.7076 880.326 58.0671C880.438 57.2095 880.175 56.574 879.535 56.1606C878.994 55.8107 878.406 55.7853 877.771 56.0842C877.136 56.3831 876.601 56.8688 876.166 57.5414ZM881.939 52.6563C883.678 53.78 884.751 55.3574 885.16 57.3886C885.568 59.4197 885.21 61.3047 884.087 63.0436C882.973 64.766 881.416 65.8352 879.415 66.2511C877.414 66.667 875.536 66.3078 873.78 65.1736C872.041 64.0499 870.954 62.4753 870.519 60.45C870.084 58.4246 870.428 56.5425 871.552 54.8037C872.676 53.0649 874.253 51.9913 876.284 51.5831C878.315 51.1749 880.2 51.5326 881.939 52.6563ZM866.486 74.5174C865.404 73.8177 864.865 73.1211 864.872 72.4276C864.881 71.9453 865.204 71.212 865.84 70.2278L869.354 64.7898L874.078 67.8429L871.232 72.2473L882.329 79.4188L879.897 83.1835L866.486 74.5174ZM889.141 57.3805L893.89 60.4494L890.392 65.8627L892.238 67.0553L890.091 70.3771L888.246 69.1845L883.3 76.837L878.551 73.7681L889.141 57.3805Z"/>
<path clip-path="url(#TextBounds)" d="M892.947 78.0482L907.957 87.748L901.771 97.3197L889.075 89.1147C888.058 88.4574 887.531 87.8149 887.495 87.1869C887.473 86.7538 887.721 86.1354 888.24 85.3316L892.947 78.0482ZM912.451 72.3738L916.289 74.8544L908.561 86.8129L904.723 84.3324L907.458 80.1001L906.916 79.7503L904.181 83.9825L900.318 81.486L908.046 69.5275L911.909 72.024L909.158 76.2808L909.7 76.6307L912.451 72.3738ZM894.108 71.7175L896.287 68.3465L899.83 70.6362L900.243 69.9965L896.577 67.6272L898.756 64.2562L906.802 69.4559L905.005 72.2364C903.415 74.697 901.456 76.2622 899.128 76.932C896.799 77.6018 894.233 77.3906 891.427 76.2984L892.571 72.7471C893.17 72.9715 893.817 73.1221 894.511 73.1989C895.206 73.2756 895.802 73.2536 896.298 73.1327L894.108 71.7175ZM892.779 86.7295L900.111 91.4681L901.956 88.6138L894.623 83.8752L892.779 86.7295Z"/>
<path clip-path="url(#TextBounds)" d="M916.928 98.5335L918.38 99.4717L926.203 87.3655L924.751 86.4273L916.928 98.5335ZM922.661 102.238L924.088 103.161L921.671 106.901L909.024 98.7277L911.441 94.9875L912.647 95.7667L920.47 83.6605L919.338 82.9291L921.755 79.1889L934.181 87.2191L931.875 90.7869L930.596 89.9601L928.243 93.6018L930.063 94.7785L935.088 87.003L939.394 89.7857L924.86 112.276L920.554 109.493L927.901 98.1249L926.08 96.9482L922.661 102.238Z"/>
<path clip-path="url(#TextBounds)" d="M939.208 102.92C941.143 103.38 943.151 103.387 945.23 102.94C947.806 102.372 949.858 101.176 951.387 99.3497L951.864 98.6116L956.121 101.362L955.612 102.15C954.902 103.249 954.572 104.966 954.621 107.3C954.689 110.181 955.474 112.583 956.975 114.507L953.152 116.536C952.107 115.419 951.215 113.929 950.476 112.068C949.737 110.207 949.335 108.499 949.269 106.946C948.235 107.394 946.871 107.687 945.178 107.825C942.764 108.033 940.618 107.773 938.739 107.047L939.208 102.92ZM951.4 123.566L949.062 127.183L931.174 115.623L933.511 112.006L951.4 123.566Z"/>
</g>
<g opacity="1">
<use fill="#ffffff" fill-rule="nonzero" stroke="none" xlink:href="#Fill"/>
<mask height="132.275" id="StrokeMask" maskUnits="userSpaceOnUse" width="156.338" x="690.321" y="77.9598">
<rect fill="#ffffff" height="132.275" stroke="none" width="156.338" x="690.321" y="77.9598"/>
<use fill="#000000" fill-rule="evenodd" stroke="none" xlink:href="#Fill"/>
</mask>
<use fill="none" mask="url(#StrokeMask)" stroke="#000000" stroke-linecap="butt" stroke-linejoin="round" stroke-width="4" xlink:href="#Fill"/>
</g>
<g opacity="1">
<use fill="#ffffff" fill-rule="nonzero" stroke="none" xlink:href="#Fill_2"/>
<mask height="70.6769" id="StrokeMask_2" maskUnits="userSpaceOnUse" width="852.354" x="105.798" y="285.55">
<rect fill="#ffffff" height="70.6769" stroke="none" width="852.354" x="105.798" y="285.55"/>
<use fill="#000000" fill-rule="evenodd" stroke="none" xlink:href="#Fill_2"/>
</mask>
<use fill="none" mask="url(#StrokeMask_2)" stroke="#ffffff" stroke-linecap="butt" stroke-linejoin="round" stroke-width="4" xlink:href="#Fill_2"/>
</g>
<g opacity="1">
<use fill="#ffffff" fill-rule="nonzero" stroke="none" xlink:href="#Fill_3"/>
<mask height="168.397" id="StrokeMask_3" maskUnits="userSpaceOnUse" width="38.4408" x="651.552" y="157.082">
<rect fill="#ffffff" height="168.397" stroke="none" width="38.4408" x="651.552" y="157.082"/>
<use fill="#000000" fill-rule="evenodd" stroke="none" xlink:href="#Fill_3"/>
</mask>
<use fill="none" mask="url(#StrokeMask_3)" stroke="#ffffff" stroke-linecap="butt" stroke-linejoin="round" stroke-width="4" xlink:href="#Fill_3"/>
</g>
<g opacity="1">
<use fill="#ffecb7" fill-rule="nonzero" stroke="none" xlink:href="#Fill_4"/>
<mask height="247.507" id="StrokeMask_4" maskUnits="userSpaceOnUse" width="834.053" x="73.7769" y="225.153">
<rect fill="#ffffff" height="247.507" stroke="none" width="834.053" x="73.7769" y="225.153"/>
<use fill="#000000" fill-rule="evenodd" stroke="none" xlink:href="#Fill_4"/>
</mask>
<use fill="none" mask="url(#StrokeMask_4)" stroke="#ffecb7" stroke-linecap="butt" stroke-linejoin="round" stroke-width="4" xlink:href="#Fill_4"/>
</g>
<path d="M719.477 92.6819C728.938 86.7117 766.13 69.4699 770.1 69.8884C774.07 70.3068 817.286 92.1426 820.866 95.225C820.471 97.8681 819.331 99.4144 813.076 102.287C809.627 100.914 774.794 83.2679 770.234 79.8818C765.891 82.8775 731.311 98.9913 723.792 101.332C721.197 99.9764 720.096 97.3535 719.477 92.6819Z" fill="#f25858" fill-rule="nonzero" opacity="1" stroke="#060000" stroke-linecap="butt" stroke-linejoin="round" stroke-width="3"/>
<path d="M769.088 57.3896L769.28 67.4467L776.289 60.2585L769.088 57.3896Z" fill="#f25858" fill-rule="nonzero" opacity="1" stroke="#060000" stroke-linecap="butt" stroke-linejoin="round" stroke-width="3"/>
<path d="M756.365 107.636C756.365 100.666 762.041 95.0153 769.041 95.0153C776.042 95.0153 781.717 100.666 781.717 107.636C781.717 114.607 776.042 120.257 769.041 120.257C762.041 120.257 756.365 114.607 756.365 107.636Z" fill="#ffffff" fill-rule="nonzero" opacity="1" stroke="#060000" stroke-linecap="butt" stroke-linejoin="round" stroke-width="3"/>
<path d="M769.493 100.09L768.952 108.527L763.924 111.338" fill="none" opacity="1" stroke="#060000" stroke-linecap="butt" stroke-linejoin="round" stroke-width="3"/>
<path d="M711.731 134.814L711.775 142.408L719.069 142.71L718.912 135.363L711.731 134.814Z" fill="#6eccfb" fill-rule="nonzero" opacity="1" stroke="#060000" stroke-linecap="butt" stroke-linejoin="round" stroke-width="3"/>
<path d="M729.502 135.255L729.76 142.533L736.694 142.749L737.511 135.188L729.502 135.255Z" fill="#6eccfb" fill-rule="nonzero" opacity="1" stroke="#060000" stroke-linecap="butt" stroke-linejoin="round" stroke-width="3"/>
<path d="M746.347 135.285L747.175 142.26L754.064 142.816L754.588 135.652L746.347 135.285Z" fill="#6eccfb" fill-rule="nonzero" opacity="1" stroke="#060000" stroke-linecap="butt" stroke-linejoin="round" stroke-width="3"/>
<path d="M764.398 135.04L764.187 142.013L772.835 142.562L773.002 134.816L764.398 135.04Z" fill="#6eccfb" fill-rule="nonzero" opacity="1" stroke="#060000" stroke-linecap="butt" stroke-linejoin="round" stroke-width="3"/>
<path d="M783.06 136.7L781.511 143.232L789.965 143.534L791.296 136.346L783.06 136.7Z" fill="#6eccfb" fill-rule="nonzero" opacity="1" stroke="#060000" stroke-linecap="butt" stroke-linejoin="round" stroke-width="3"/>
<path d="M799.657 135.099L799.817 143.715L807.351 143.425L807.704 136.348L799.657 135.099Z" fill="#5fd1ff" fill-rule="nonzero" opacity="1" stroke="#060000" stroke-linecap="butt" stroke-linejoin="round" stroke-width="3"/>
<path d="M816.778 136.021L817.87 144.314L825.092 144.587L825.009 136.302L816.778 136.021Z" fill="#5fd1ff" fill-rule="nonzero" opacity="1" stroke="#060000" stroke-linecap="butt" stroke-linejoin="round" stroke-width="3"/>
<path d="M815.957 152.947L816.247 159.642L822.923 161.109L824.731 151.774L815.957 152.947Z" fill="#5fd1ff" fill-rule="nonzero" opacity="1" stroke="#060000" stroke-linecap="butt" stroke-linejoin="round" stroke-width="3"/>
<path d="M798.124 151.711L798.06 158.105L807.106 159.318L806.552 151.919L798.124 151.711Z" fill="#5fd1ff" fill-rule="nonzero" opacity="1" stroke="#060000" stroke-linecap="butt" stroke-linejoin="round" stroke-width="3"/>
<path d="M781.146 152.163L780.741 158.988L788.871 159.08L788.302 151.522L781.146 152.163Z" fill="#6eccfb" fill-rule="nonzero" opacity="1" stroke="#060000" stroke-linecap="butt" stroke-linejoin="round" stroke-width="3"/>
<path d="M763.803 150.787L763.154 158.635L771.825 158.447L771.662 151.616L763.803 150.787Z" fill="#6eccfb" fill-rule="nonzero" opacity="1" stroke="#060000" stroke-linecap="butt" stroke-linejoin="round" stroke-width="3"/>
<path d="M745.499 151.478L744.453 158.715L752.84 158.529L753.542 151.213L745.499 151.478Z" fill="#6eccfb" fill-rule="nonzero" opacity="1" stroke="#060000" stroke-linecap="butt" stroke-linejoin="round" stroke-width="3"/>
<path d="M728.053 150L726.932 157.11C726.932 157.11 735.352 157.579 735.247 157.579C735.141 157.579 735.641 149.422 735.641 149.422L728.053 150Z" fill="#6eccfb" fill-rule="nonzero" opacity="1" stroke="#060000" stroke-linecap="butt" stroke-linejoin="round" stroke-width="3"/>
<path d="M710.605 149.796L710.228 156.978L717.699 157.088C717.699 157.088 717.612 150.774 717.769 150.721C717.925 150.668 710.605 149.796 710.605 149.796Z" fill="#6eccfb" fill-rule="nonzero" opacity="1" stroke="#060000" stroke-linecap="butt" stroke-linejoin="round" stroke-width="3"/>
<path d="M720.253 171.257L707.532 186.555L713.395 186.672L707.45 194.9L729.892 195.285L724.337 186.985L729.912 187.016L720.253 171.257Z" fill="#81b347" fill-rule="nonzero" opacity="1" stroke="#060000" stroke-linecap="butt" stroke-linejoin="round" stroke-width="3"/>
<path d="M716.788 195.084L716.611 209.084L721.754 209.095L721.782 195.096L716.788 195.084Z" fill="#765032" fill-rule="nonzero" opacity="1" stroke="#060000" stroke-linecap="butt" stroke-linejoin="round" stroke-width="3"/>
<path d="M817.302 171.331L804.581 186.628L810.444 186.745L804.499 194.973L826.941 195.358L821.386 187.059L826.96 187.09L817.302 171.331Z" fill="#81b347" fill-rule="nonzero" opacity="1" stroke="#060000" stroke-linecap="butt" stroke-linejoin="round" stroke-width="3"/>
<path d="M814.004 194.669L813.827 208.669L818.969 208.68L818.998 194.681L814.004 194.669Z" fill="#765032" fill-rule="nonzero" opacity="1" stroke="#060000" stroke-linecap="butt" stroke-linejoin="round" stroke-width="3"/>
<path d="M738.581 169.018C737.271 170.602 738.32 177.212 738.734 177.15C738.963 177.547 796.36 177.769 797.062 177.52C797.36 176.484 797.262 169.917 797.164 169.625C796.844 169.54 739.179 168.293 738.581 169.018Z" fill="#fe5a59" fill-rule="nonzero" opacity="1" stroke="#060000" stroke-linecap="butt" stroke-linejoin="round" stroke-width="3"/>
<path d="M746.493 177.475L746.279 200.683L767.501 200.888L767.776 177.627L746.493 177.475Z" fill="#cccccc" fill-rule="nonzero" opacity="1" stroke="#060000" stroke-linecap="butt" stroke-linejoin="round" stroke-width="3"/>
<path d="M767.574 177.544L767.404 200.888L789.488 200.961L789.636 177.622L767.574 177.544Z" fill="#cccccc" fill-rule="nonzero" opacity="1" stroke="#060000" stroke-linecap="butt" stroke-linejoin="round" stroke-width="3"/>
<path d="M738.602 200.555C737.292 202.139 738.342 208.749 738.755 208.687C738.985 209.084 796.381 209.306 797.083 209.057C797.381 208.02 797.284 201.454 797.185 201.162C796.865 201.077 739.201 199.83 738.602 200.555Z" fill="#6e6252" fill-rule="nonzero" opacity="1" stroke="#060000" stroke-linecap="butt" stroke-linejoin="round" stroke-width="3"/>
<path d="M762.356 189.439C761.697 187.893 762.687 190.144 762.973 189.999C763.143 189.912 763.482 189.053 763.313 188.883C761.968 187.539 762.938 190.806 762.356 189.439Z" fill="none" opacity="1" stroke="#060000" stroke-linecap="round" stroke-linejoin="round" stroke-width="3"/>
<path d="M772.011 189.811C771.224 189.974 771.776 189.017 772.124 188.893C772.586 188.729 772.713 189.666 772.011 189.811Z" fill="none" opacity="1" stroke="#060000" stroke-linecap="round" stroke-linejoin="round" stroke-width="3"/>
<path d="M709.47 235.488L709.352 241.898L702.628 241.808L702.565 247.063L709.195 247.224L709.106 253.714L714.982 253.689L715.078 247.219L721.545 247.3L721.578 242.167L715.174 242.031L715.313 235.599L709.47 235.488Z" fill="#fe6c5f" fill-rule="nonzero" opacity="1" stroke="#060000" stroke-linecap="butt" stroke-linejoin="round" stroke-width="2"/>
<path d="M691.401 253.696L690.472 313.374L729.44 313.72L731.267 253.356L691.401 253.696Z" fill="#fefeff" fill-rule="nonzero" opacity="1" stroke="#060000" stroke-linecap="butt" stroke-linejoin="round" stroke-width="2"/>
<path d="M697.399 257.967L697.379 262.617L702.019 262.666L701.962 258.045L697.399 257.967Z" fill="#41b6ff" fill-rule="nonzero" opacity="1" stroke="none"/>
<path d="M705.034 258.077L705.013 262.727L709.653 262.776L709.597 258.155L705.034 258.077Z" fill="#41b6ff" fill-rule="nonzero" opacity="1" stroke="none"/>
<path d="M696.848 268.457L696.828 273.107L701.468 273.156L701.412 268.535L696.848 268.457Z" fill="#41b6ff" fill-rule="nonzero" opacity="1" stroke="none"/>
<path d="M705.01 268.558L704.989 273.208L709.629 273.257L709.573 268.635L705.01 268.558Z" fill="#41b6ff" fill-rule="nonzero" opacity="1" stroke="none"/>
<path d="M713.121 258.162L713.101 262.812L717.741 262.861L717.684 258.239L713.121 258.162Z" fill="#41b6ff" fill-rule="nonzero" opacity="1" stroke="none"/>
<path d="M712.76 268.64L712.74 273.29L717.38 273.339L717.324 268.717L712.76 268.64Z" fill="#41b6ff" fill-rule="nonzero" opacity="1" stroke="none"/>
<path d="M721.435 258.322L721.415 262.972L726.055 263.021L725.998 258.399L721.435 258.322Z" fill="#41b6ff" fill-rule="nonzero" opacity="1" stroke="none"/>
<path d="M721.05 268.696L721.029 273.346L725.669 273.395L725.613 268.773L721.05 268.696Z" fill="#41b6ff" fill-rule="nonzero" opacity="1" stroke="none"/>
<path d="M696.555 279.001L696.535 283.651L701.175 283.7L701.118 279.079L696.555 279.001Z" fill="#41b6ff" fill-rule="nonzero" opacity="1" stroke="none"/>
<path d="M704.689 279.054L704.668 283.704L709.308 283.753L709.252 279.131L704.689 279.054Z" fill="#41b6ff" fill-rule="nonzero" opacity="1" stroke="none"/>
<path d="M712.583 279.086L712.562 283.736L717.202 283.785L717.146 279.163L712.583 279.086Z" fill="#41b6ff" fill-rule="nonzero" opacity="1" stroke="none"/>
<path d="M720.809 279.333L720.789 283.983L725.429 284.032L725.372 279.41L720.809 279.333Z" fill="#41b6ff" fill-rule="nonzero" opacity="1" stroke="none"/>
<path d="M700.134 294.874L700.034 310.028L709.948 310.162L710.077 294.974L700.134 294.874Z" fill="#44b4fe" fill-rule="nonzero" opacity="1" stroke="#060000" stroke-linecap="butt" stroke-linejoin="round" stroke-width="1"/>
<path d="M709.983 294.919L709.903 310.162L720.22 310.209L720.289 294.97L709.983 294.919Z" fill="#44b4fe" fill-rule="nonzero" opacity="1" stroke="#060000" stroke-linecap="butt" stroke-linejoin="round" stroke-width="1"/>
<path d="M698.153 291.009L698.263 294.634L722.769 294.972L722.833 291.334L698.153 291.009Z" fill="#cecfd3" fill-rule="nonzero" opacity="1" stroke="#060000" stroke-linecap="butt" stroke-linejoin="round" stroke-width="1"/>
<path d="M697.653 309.477L697.763 313.102L722.27 313.44L722.334 309.802L697.653 309.477Z" fill="#cecfd3" fill-rule="nonzero" opacity="1" stroke="#060000" stroke-linecap="butt" stroke-linejoin="round" stroke-width="1"/>
<g fill="#ffffff" opacity="1" stroke="none">
<path clip-path="url(#TextBounds_2)" d="M28.0478 187.666L33.5918 187.666L33.5918 188.17C33.5918 191.25 30.6518 194.218 27.4038 195.198L28.5518 196.822C31.3798 195.842 33.8998 193.434 34.6838 191.25C35.8318 193.434 38.4358 195.506 40.5918 196.15L41.6838 194.498C38.8278 193.798 35.8038 191.194 35.8038 188.114L35.8038 187.666L41.2358 187.666L41.2358 185.93L28.0478 185.93L28.0478 187.666ZM47.4238 180.834L45.2958 180.834L45.2958 189.262L40.7598 189.262L40.7598 191.026L45.2958 191.026L45.2958 198.698L47.4238 198.698L47.4238 180.834ZM47.9558 204.494L47.9558 202.73L33.8158 202.73L33.8158 197.186L31.6878 197.186L31.6878 204.494L47.9558 204.494ZM31.2398 183.746L38.1838 183.746L38.1838 181.898L31.2398 181.898L31.2398 183.746Z"/>
<path clip-path="url(#TextBounds_2)" d="M74.1918 189.794L74.1918 188.002L70.4678 188.002L70.4678 180.834L68.3398 180.834L68.3398 198.614L70.4678 198.614L70.4678 189.794L74.1918 189.794ZM71.3638 204.466L71.3638 202.702L57.2518 202.702L57.2518 196.878L55.1238 196.878L55.1238 204.466L71.3638 204.466ZM58.4558 182.626C54.7878 182.626 51.9878 185.146 51.9878 188.814C51.9878 192.51 54.7878 194.918 58.4838 194.918C62.1518 194.918 64.9518 192.482 64.9518 188.786C64.9518 185.118 62.1238 182.626 58.4558 182.626ZM58.4558 184.446C61.0598 184.446 62.8238 186.266 62.8238 188.814C62.8238 191.306 61.0598 193.098 58.4838 193.098C56.0198 193.098 54.1158 191.306 54.1158 188.786C54.1158 186.266 55.9918 184.446 58.4558 184.446Z"/>
<path clip-path="url(#TextBounds_2)" d="M77.4191 203.346L77.4191 183.303L80.0714 183.303L80.0714 203.346L77.4191 203.346Z"/>
<path clip-path="url(#TextBounds_2)" d="M99.048 196.319L101.7 196.989C101.144 199.167 100.144 200.828 98.6994 201.972C97.2547 203.116 95.4888 203.688 93.4015 203.688C91.2414 203.688 89.4845 203.248 88.131 202.369C86.7775 201.489 85.7475 200.216 85.0412 198.548C84.3348 196.88 83.9816 195.089 83.9816 193.175C83.9816 191.087 84.3804 189.267 85.1779 187.713C85.9754 186.159 87.1102 184.978 88.5822 184.172C90.0542 183.365 91.6743 182.962 93.4425 182.962C95.4477 182.962 97.1339 183.472 98.5011 184.493C99.8683 185.514 100.821 186.949 101.359 188.8L98.7472 189.415C98.2824 187.956 97.6079 186.895 96.7238 186.229C95.8397 185.564 94.7277 185.231 93.3878 185.231C91.8475 185.231 90.56 185.6 89.5255 186.339C88.491 187.077 87.7642 188.068 87.3449 189.312C86.9256 190.556 86.716 191.839 86.716 193.161C86.716 194.865 86.9643 196.353 87.4611 197.625C87.9578 198.896 88.7303 199.846 89.7785 200.475C90.8267 201.104 91.9614 201.419 93.1828 201.419C94.6684 201.419 95.9263 200.99 96.9562 200.133C97.9862 199.277 98.6834 198.005 99.048 196.319Z"/>
</g>
<g fill="#ffffff" opacity="1" stroke="none">
<path clip-path="url(#TextBounds_3)" d="M365.02 228.236L365.649 226.295C367.098 226.805 368.151 227.247 368.807 227.621C368.634 225.971 368.543 224.836 368.534 224.216L370.516 224.216C370.489 225.119 370.384 226.249 370.202 227.607C371.141 227.133 372.216 226.696 373.428 226.295L374.057 228.236C372.9 228.619 371.765 228.874 370.653 229.002C371.209 229.485 371.993 230.346 373.005 231.586L371.364 232.748C370.835 232.028 370.211 231.048 369.491 229.808C368.816 231.093 368.224 232.073 367.714 232.748L366.1 231.586C367.158 230.282 367.914 229.421 368.37 229.002C367.194 228.774 366.077 228.519 365.02 228.236Z"/>
<path clip-path="url(#TextBounds_3)" d="M376.722 228.921L382.266 228.921L382.266 229.425C382.266 232.505 379.326 235.473 376.078 236.453L377.226 238.077C380.054 237.097 382.574 234.689 383.358 232.505C384.506 234.689 387.11 236.761 389.266 237.405L390.358 235.753C387.502 235.053 384.478 232.449 384.478 229.369L384.478 228.921L389.91 228.921L389.91 227.185L376.722 227.185L376.722 228.921ZM396.098 222.089L393.97 222.089L393.97 230.517L389.434 230.517L389.434 232.281L393.97 232.281L393.97 239.953L396.098 239.953L396.098 222.089ZM396.63 245.749L396.63 243.985L382.49 243.985L382.49 238.441L380.362 238.441L380.362 245.749L396.63 245.749ZM379.914 225.001L386.858 225.001L386.858 223.153L379.914 223.153L379.914 225.001Z"/>
<path clip-path="url(#TextBounds_3)" d="M422.866 231.049L422.866 229.257L419.142 229.257L419.142 222.089L417.014 222.089L417.014 239.869L419.142 239.869L419.142 231.049L422.866 231.049ZM420.038 245.721L420.038 243.957L405.926 243.957L405.926 238.133L403.798 238.133L403.798 245.721L420.038 245.721ZM407.13 223.881C403.462 223.881 400.662 226.401 400.662 230.069C400.662 233.765 403.462 236.173 407.158 236.173C410.826 236.173 413.626 233.737 413.626 230.041C413.626 226.373 410.798 223.881 407.13 223.881ZM407.13 225.701C409.734 225.701 411.498 227.521 411.498 230.069C411.498 232.561 409.734 234.353 407.158 234.353C404.694 234.353 402.79 232.561 402.79 230.041C402.79 227.521 404.666 225.701 407.13 225.701Z"/>
<path clip-path="url(#TextBounds_3)" d="M426.093 244.601L426.093 224.558L428.745 224.558L428.745 244.601L426.093 244.601Z"/>
<path clip-path="url(#TextBounds_3)" d="M447.722 237.574L450.374 238.244C449.818 240.422 448.818 242.083 447.373 243.227C445.929 244.371 444.163 244.943 442.075 244.943C439.915 244.943 438.158 244.503 436.805 243.624C435.451 242.744 434.421 241.47 433.715 239.802C433.009 238.134 432.656 236.343 432.656 234.429C432.656 232.342 433.054 230.521 433.852 228.967C434.649 227.413 435.784 226.233 437.256 225.426C438.728 224.62 440.348 224.216 442.116 224.216C444.122 224.216 445.808 224.727 447.175 225.748C448.542 226.769 449.495 228.204 450.032 230.054L447.421 230.67C446.956 229.211 446.282 228.149 445.398 227.484C444.514 226.819 443.402 226.486 442.062 226.486C440.521 226.486 439.234 226.855 438.199 227.593C437.165 228.332 436.438 229.323 436.019 230.567C435.6 231.811 435.39 233.094 435.39 234.416C435.39 236.12 435.638 237.608 436.135 238.88C436.632 240.151 437.404 241.101 438.452 241.73C439.501 242.359 440.635 242.673 441.857 242.673C443.342 242.673 444.6 242.245 445.63 241.388C446.66 240.532 447.357 239.26 447.722 237.574Z"/>
<path clip-path="url(#TextBounds_3)" d="M458.314 224.217C454.758 224.217 452.938 227.689 452.938 232.589C452.938 237.517 454.758 240.961 458.314 240.961C461.674 240.961 463.466 237.965 463.69 233.541L466.322 233.541L466.322 245.385L468.394 245.385L468.394 222.565L466.322 222.565L466.322 231.777L463.69 231.777C463.522 227.325 461.702 224.217 458.314 224.217ZM461.59 232.589C461.59 236.565 460.302 239.085 458.314 239.085C456.354 239.085 455.094 236.565 455.094 232.589C455.094 228.641 456.354 226.093 458.314 226.093C460.302 226.093 461.59 228.641 461.59 232.589ZM473.182 246.561L473.182 222.089L471.082 222.089L471.082 246.561L473.182 246.561Z"/>
<path clip-path="url(#TextBounds_3)" d="M496.842 246.561L496.842 222.089L494.714 222.089L494.714 230.825L489.002 230.825L489.002 232.617L494.714 232.617L494.714 246.561L496.842 246.561ZM491.41 239.085C488.05 237.125 485.138 233.149 485.138 228.669L485.138 224.217L482.926 224.217L482.926 228.753C482.926 233.093 480.098 237.433 476.542 239.673L477.942 241.269C480.77 239.225 483.178 236.201 484.046 233.149C485.026 236.089 487.854 239.197 490.094 240.709L491.41 239.085Z"/>
<path clip-path="url(#TextBounds_3)" d="M521.633 229.466L519.185 229.658C518.967 228.692 518.657 227.99 518.256 227.552C517.59 226.851 516.77 226.5 515.795 226.5C515.011 226.5 514.323 226.718 513.73 227.156C512.956 227.721 512.345 228.546 511.898 229.631C511.452 230.715 511.219 232.26 511.201 234.265C511.793 233.363 512.518 232.693 513.375 232.256C514.232 231.818 515.129 231.599 516.068 231.599C517.709 231.599 519.106 232.203 520.259 233.411C521.412 234.618 521.988 236.179 521.988 238.093C521.988 239.351 521.717 240.52 521.175 241.6C520.632 242.68 519.887 243.507 518.939 244.082C517.991 244.656 516.916 244.943 515.713 244.943C513.662 244.943 511.989 244.189 510.695 242.68C509.401 241.172 508.754 238.686 508.754 235.222C508.754 231.349 509.469 228.532 510.9 226.773C512.149 225.242 513.831 224.476 515.945 224.476C517.522 224.476 518.814 224.918 519.821 225.802C520.828 226.687 521.432 227.908 521.633 229.466ZM511.584 238.107C511.584 238.955 511.764 239.766 512.124 240.541C512.484 241.315 512.987 241.906 513.635 242.311C514.282 242.717 514.961 242.92 515.672 242.92C516.711 242.92 517.604 242.5 518.351 241.662C519.099 240.823 519.472 239.684 519.472 238.244C519.472 236.858 519.103 235.767 518.365 234.969C517.627 234.172 516.697 233.773 515.576 233.773C514.464 233.773 513.521 234.172 512.746 234.969C511.971 235.767 511.584 236.813 511.584 238.107Z"/>
<path clip-path="url(#TextBounds_3)" d="M525.816 244.601L525.816 241.798L528.619 241.798L528.619 244.601L525.816 244.601Z"/>
<path clip-path="url(#TextBounds_3)" d="M532.379 227.183L532.379 224.818L545.353 224.818L545.353 226.732C544.077 228.09 542.813 229.895 541.559 232.146C540.306 234.397 539.338 236.713 538.654 239.091C538.162 240.769 537.847 242.605 537.711 244.601L535.181 244.601C535.209 243.024 535.519 241.119 536.111 238.886C536.704 236.653 537.554 234.5 538.661 232.426C539.768 230.353 540.946 228.605 542.195 227.183L532.379 227.183Z"/>
<path clip-path="url(#TextBounds_3)" d="M548.484 244.601L548.484 224.558L550.945 224.558L550.945 235.988L556.769 230.082L559.955 230.082L554.404 235.468L560.515 244.601L557.48 244.601L552.681 237.177L550.945 238.845L550.945 244.601L548.484 244.601Z"/>
<path clip-path="url(#TextBounds_3)" d="M562.471 244.601L562.471 230.082L564.672 230.082L564.672 232.119C565.127 231.408 565.734 230.836 566.49 230.403C567.247 229.97 568.108 229.754 569.074 229.754C570.15 229.754 571.031 229.977 571.72 230.423C572.408 230.87 572.893 231.494 573.176 232.297C574.324 230.601 575.819 229.754 577.66 229.754C579.1 229.754 580.207 230.152 580.982 230.95C581.757 231.747 582.144 232.976 582.144 234.634L582.144 244.601L579.697 244.601L579.697 235.455C579.697 234.47 579.617 233.762 579.458 233.329C579.298 232.896 579.009 232.547 578.59 232.283C578.17 232.019 577.678 231.886 577.113 231.886C576.092 231.886 575.245 232.226 574.57 232.905C573.896 233.584 573.558 234.671 573.558 236.166L573.558 244.601L571.097 244.601L571.097 235.168C571.097 234.074 570.897 233.254 570.496 232.707C570.095 232.16 569.439 231.886 568.527 231.886C567.834 231.886 567.194 232.069 566.606 232.433C566.018 232.798 565.592 233.331 565.328 234.033C565.064 234.735 564.931 235.746 564.931 237.068L564.931 244.601L562.471 244.601Z"/>
<path clip-path="url(#TextBounds_3)" d="M365.02 265.236L365.649 263.295C367.098 263.805 368.151 264.247 368.807 264.621C368.634 262.971 368.543 261.836 368.534 261.216L370.516 261.216C370.489 262.119 370.384 263.249 370.202 264.607C371.141 264.133 372.216 263.696 373.428 263.295L374.057 265.236C372.9 265.619 371.765 265.874 370.653 266.002C371.209 266.485 371.993 267.346 373.005 268.586L371.364 269.748C370.835 269.028 370.211 268.048 369.491 266.808C368.816 268.093 368.224 269.073 367.714 269.748L366.1 268.586C367.158 267.282 367.914 266.421 368.37 266.002C367.194 265.774 366.077 265.519 365.02 265.236Z"/>
<path clip-path="url(#TextBounds_3)" d="M376.722 265.921L382.266 265.921L382.266 266.425C382.266 269.505 379.326 272.473 376.078 273.453L377.226 275.077C380.054 274.097 382.574 271.689 383.358 269.505C384.506 271.689 387.11 273.761 389.266 274.405L390.358 272.753C387.502 272.053 384.478 269.449 384.478 266.369L384.478 265.921L389.91 265.921L389.91 264.185L376.722 264.185L376.722 265.921ZM396.098 259.089L393.97 259.089L393.97 267.517L389.434 267.517L389.434 269.281L393.97 269.281L393.97 276.953L396.098 276.953L396.098 259.089ZM396.63 282.749L396.63 280.985L382.49 280.985L382.49 275.441L380.362 275.441L380.362 282.749L396.63 282.749ZM379.914 262.001L386.858 262.001L386.858 260.153L379.914 260.153L379.914 262.001Z"/>
<path clip-path="url(#TextBounds_3)" d="M422.866 268.049L422.866 266.257L419.142 266.257L419.142 259.089L417.014 259.089L417.014 276.869L419.142 276.869L419.142 268.049L422.866 268.049ZM420.038 282.721L420.038 280.957L405.926 280.957L405.926 275.133L403.798 275.133L403.798 282.721L420.038 282.721ZM407.13 260.881C403.462 260.881 400.662 263.401 400.662 267.069C400.662 270.765 403.462 273.173 407.158 273.173C410.826 273.173 413.626 270.737 413.626 267.041C413.626 263.373 410.798 260.881 407.13 260.881ZM407.13 262.701C409.734 262.701 411.498 264.521 411.498 267.069C411.498 269.561 409.734 271.353 407.158 271.353C404.694 271.353 402.79 269.561 402.79 267.041C402.79 264.521 404.666 262.701 407.13 262.701Z"/>
<path clip-path="url(#TextBounds_3)" d="M447.366 270.737L447.366 268.945L443.362 268.945L443.362 259.089L441.234 259.089L441.234 283.561L443.362 283.561L443.362 270.737L447.366 270.737ZM424.882 269.561C424.882 274.769 427.178 278.241 431.154 278.241C435.13 278.241 437.398 274.769 437.398 269.589C437.398 264.409 435.13 260.937 431.154 260.937C427.178 260.937 424.882 264.409 424.882 269.561ZM435.326 269.589C435.326 273.593 433.702 276.393 431.154 276.393C428.606 276.393 426.954 273.593 426.954 269.589C426.954 265.557 428.606 262.785 431.154 262.785C433.702 262.785 435.326 265.557 435.326 269.589Z"/>
<path clip-path="url(#TextBounds_3)" d="M471.306 268.357L471.306 266.565L467.582 266.565L467.582 259.089L465.454 259.089L465.454 276.869L467.582 276.869L467.582 268.357L471.306 268.357ZM468.45 282.777L468.45 281.013L454.394 281.013L454.394 275.161L452.266 275.161L452.266 282.777L468.45 282.777ZM462.738 271.213C459.798 270.149 456.634 267.181 456.634 263.093L456.634 260.405L454.478 260.405L454.478 263.177C454.478 267.097 451.538 270.625 448.29 272.081L449.606 273.789C452.266 272.445 454.87 269.617 455.598 267.013C456.606 269.533 458.93 271.745 461.506 272.921L462.738 271.213Z"/>
<path clip-path="url(#TextBounds_3)" d="M486.398 264.297L490.85 264.297L490.85 268.301L486.398 268.301L486.37 270.065L490.85 270.065L490.85 273.509L492.978 273.509L492.978 259.089L490.85 259.089L490.85 262.505L486.37 262.505L486.398 264.297ZM476.57 274.797L476.57 276.561L490.85 276.561L490.85 283.589L492.978 283.589L492.978 274.797L476.57 274.797ZM479.538 260.517C476.094 260.517 473.238 262.869 473.238 266.425C473.238 269.953 476.094 272.193 479.538 272.193C482.982 272.193 485.81 269.953 485.81 266.397C485.81 262.813 482.982 260.517 479.538 260.517ZM479.538 262.337C482.058 262.337 483.682 263.961 483.682 266.425C483.682 268.861 482.03 270.457 479.538 270.457C477.13 270.457 475.366 268.861 475.366 266.397C475.366 263.933 477.13 262.337 479.538 262.337Z"/>
<path clip-path="url(#TextBounds_3)" d="M505.452 276.966L507.817 276.748C508.018 277.86 508.401 278.666 508.966 279.168C509.531 279.669 510.256 279.92 511.14 279.92C511.896 279.92 512.559 279.746 513.129 279.4C513.699 279.054 514.166 278.591 514.53 278.012C514.895 277.434 515.2 276.652 515.446 275.668C515.692 274.683 515.816 273.681 515.816 272.66C515.816 272.55 515.811 272.386 515.802 272.168C515.31 272.951 514.637 273.587 513.785 274.075C512.933 274.562 512.01 274.806 511.017 274.806C509.358 274.806 507.954 274.205 506.806 273.002C505.657 271.798 505.083 270.213 505.083 268.244C505.083 266.211 505.682 264.575 506.881 263.336C508.08 262.096 509.581 261.476 511.386 261.476C512.689 261.476 513.881 261.827 514.961 262.529C516.041 263.231 516.861 264.231 517.422 265.53C517.982 266.829 518.263 268.709 518.263 271.17C518.263 273.731 517.985 275.77 517.429 277.288C516.873 278.805 516.046 279.961 514.947 280.754C513.849 281.547 512.562 281.943 511.085 281.943C509.517 281.943 508.237 281.508 507.243 280.637C506.25 279.767 505.653 278.543 505.452 276.966ZM515.528 268.121C515.528 266.708 515.152 265.587 514.4 264.757C513.649 263.928 512.744 263.513 511.687 263.513C510.593 263.513 509.64 263.96 508.829 264.853C508.018 265.746 507.612 266.904 507.612 268.326C507.612 269.602 507.997 270.639 508.768 271.436C509.538 272.234 510.488 272.632 511.618 272.632C512.758 272.632 513.694 272.234 514.428 271.436C515.162 270.639 515.528 269.534 515.528 268.121Z"/>
<path clip-path="url(#TextBounds_3)" d="M522.036 281.601L522.036 278.798L524.839 278.798L524.839 281.601L522.036 281.601Z"/>
<path clip-path="url(#TextBounds_3)" d="M541.368 279.236L541.368 281.601L528.12 281.601C528.102 281.009 528.198 280.439 528.407 279.892C528.745 278.99 529.285 278.101 530.027 277.226C530.77 276.351 531.843 275.34 533.247 274.191C535.426 272.405 536.898 270.99 537.663 269.946C538.429 268.902 538.812 267.916 538.812 266.986C538.812 266.011 538.463 265.188 537.766 264.518C537.068 263.848 536.159 263.513 535.038 263.513C533.853 263.513 532.905 263.869 532.194 264.58C531.483 265.291 531.123 266.275 531.114 267.533L528.585 267.273C528.758 265.386 529.41 263.949 530.54 262.96C531.67 261.971 533.188 261.476 535.093 261.476C537.016 261.476 538.538 262.009 539.659 263.076C540.78 264.142 541.341 265.464 541.341 267.041C541.341 267.843 541.177 268.631 540.849 269.406C540.521 270.181 539.976 270.996 539.215 271.853C538.454 272.71 537.189 273.886 535.421 275.381C533.944 276.62 532.996 277.461 532.577 277.903C532.158 278.345 531.812 278.789 531.538 279.236L541.368 279.236Z"/>
<path clip-path="url(#TextBounds_3)" d="M544.704 281.601L544.704 261.558L547.165 261.558L547.165 272.988L552.989 267.082L556.175 267.082L550.624 272.468L556.735 281.601L553.7 281.601L548.901 274.177L547.165 275.845L547.165 281.601L544.704 281.601Z"/>
<path clip-path="url(#TextBounds_3)" d="M558.691 281.601L558.691 267.082L560.892 267.082L560.892 269.119C561.347 268.408 561.954 267.836 562.71 267.403C563.467 266.97 564.328 266.754 565.294 266.754C566.37 266.754 567.251 266.977 567.94 267.423C568.628 267.87 569.113 268.494 569.396 269.297C570.544 267.601 572.039 266.754 573.88 266.754C575.32 266.754 576.427 267.152 577.202 267.95C577.977 268.747 578.364 269.976 578.364 271.634L578.364 281.601L575.917 281.601L575.917 272.455C575.917 271.47 575.837 270.762 575.678 270.329C575.518 269.896 575.229 269.547 574.81 269.283C574.39 269.019 573.898 268.886 573.333 268.886C572.312 268.886 571.465 269.226 570.79 269.905C570.116 270.584 569.778 271.671 569.778 273.166L569.778 281.601L567.317 281.601L567.317 272.168C567.317 271.074 567.117 270.254 566.716 269.707C566.315 269.16 565.659 268.886 564.747 268.886C564.054 268.886 563.414 269.069 562.826 269.433C562.238 269.798 561.812 270.331 561.548 271.033C561.284 271.735 561.151 272.746 561.151 274.068L561.151 281.601L558.691 281.601Z"/>
</g>
<g fill="#ffffff" opacity="1" stroke="none">
<path clip-path="url(#TextBounds_4)" d="M783.868 278.569C784.096 276.06 781.609 274.343 776.747 273.704L776.945 271.529L786.9 272.435L787.06 270.678L765.059 268.676L764.899 270.433L774.826 271.336L774.628 273.511C769.728 273.29 767.023 274.59 766.802 277.016C766.566 279.61 769.377 281.468 774.926 281.973C780.503 282.48 783.626 281.218 783.868 278.569ZM786.178 267.393C782.908 266.87 778.768 265.397 777.945 263.016L785.334 263.689L785.494 261.932L768.15 260.354L767.99 262.111L775.407 262.786C774.22 265.011 770.101 265.789 766.57 265.665L767.333 267.477C771.135 267.401 775.097 266.497 776.548 264.155C777.693 266.705 781.569 268.295 785.067 269.091L786.178 267.393ZM775.528 275.364C779.487 275.725 781.86 276.84 781.72 278.374C781.581 279.907 779.051 280.521 775.091 280.16C771.159 279.803 768.81 278.745 768.949 277.212C769.089 275.678 771.596 275.006 775.528 275.364ZM780.868 259.627L781.028 257.871L773.331 257.17L773.172 258.927L780.868 259.627Z"/>
<path clip-path="url(#TextBounds_4)" d="M808.576 280.48C808.83 277.692 805.948 275.686 800.538 275.194C795.128 274.702 791.932 276.154 791.678 278.943C791.429 281.675 794.311 283.681 799.721 284.173C805.131 284.665 808.327 283.213 808.576 280.48ZM790.32 265.127L795.841 265.629C795.507 268.691 792.312 271.353 789.047 272.012L790.043 273.733C792.948 273.013 795.709 270.79 796.688 268.686C797.631 270.993 800.011 273.262 802.097 274.127L803.337 272.553C800.581 271.627 797.91 268.854 798.072 265.832L803.454 266.322L803.611 264.593L790.478 263.398L790.32 265.127ZM806.401 280.282C806.244 282.011 803.81 282.802 799.878 282.444C795.974 282.089 793.696 280.869 793.853 279.14C794.01 277.412 796.477 276.568 800.381 276.923C804.312 277.281 806.558 278.553 806.401 280.282ZM810.198 260.497L808.078 260.304L807.365 268.14L802.486 267.696L802.323 269.48L807.203 269.924L806.678 275.697L808.797 275.889L810.198 260.497ZM793.892 261.403L800.752 262.027L800.92 260.187L794.06 259.563L793.892 261.403Z"/>
<path clip-path="url(#TextBounds_4)" d="M836.16 270.254L836.323 268.469L832.614 268.132L833.119 262.583L831 262.39L829.761 275.998L831.881 276.191L832.452 269.916L836.16 270.254ZM830.949 286.424L831.744 277.696L816.323 276.293L815.529 285.021L830.949 286.424ZM828.99 284.475L817.808 283.457L818.283 278.243L829.465 279.26L828.99 284.475ZM828.013 271.424C825.11 271.807 820.408 271.885 816.344 271.431L817.151 262.564L815.032 262.371L814.06 273.051L816.207 273.246C820.083 273.599 825.176 273.556 828.048 273.199L828.013 271.424Z"/>
<path clip-path="url(#TextBounds_4)" d="M858.594 286.353L858.756 284.569L848.773 283.66L849.316 277.693L856.817 278.375L856.977 276.619L842.254 275.279L842.977 267.332L857.561 268.659L857.721 266.902L840.99 265.38L839.947 276.84L847.197 277.5L846.654 283.467L836.755 282.566L836.592 284.351L858.594 286.353Z"/>
<path clip-path="url(#TextBounds_4)" d="M763.27 295.135L768.791 295.637L768.745 296.139C768.466 299.206 765.269 301.896 761.946 302.577L762.942 304.299C765.847 303.579 768.575 301.409 769.553 299.305C770.499 301.584 772.904 303.884 774.993 304.721L776.23 303.174C773.449 302.218 770.674 299.351 770.953 296.284L770.994 295.838L776.403 296.33L776.561 294.601L763.427 293.406L763.27 295.135ZM783.185 290.087L781.066 289.894L780.302 298.287L775.785 297.876L775.625 299.633L780.142 300.044L779.447 307.684L781.566 307.877L783.185 290.087ZM781.571 313.698L781.73 311.941L767.649 310.659L768.151 305.138L766.032 304.945L765.37 312.223L781.571 313.698ZM766.804 291.52L773.719 292.149L773.887 290.309L766.971 289.68L766.804 291.52Z"/>
<path clip-path="url(#TextBounds_4)" d="M809.031 301.436L809.193 299.651L805.485 299.314L806.134 292.175L804.015 291.982L802.404 309.689L804.523 309.882L805.322 301.098L809.031 301.436ZM804.885 315.791L805.045 314.034L790.991 312.755L791.519 306.955L789.399 306.763L788.712 314.319L804.885 315.791ZM794.009 292.871C790.356 292.539 787.339 294.795 787.007 298.448C786.672 302.128 789.242 304.78 792.923 305.115C796.576 305.448 799.585 303.275 799.92 299.594C800.253 295.942 797.662 293.204 794.009 292.871ZM793.844 294.684C796.437 294.92 798.029 296.892 797.798 299.43C797.573 301.911 795.653 303.536 793.088 303.303C790.634 303.079 788.9 301.122 789.129 298.612C789.357 296.103 791.39 294.46 793.844 294.684Z"/>
<path clip-path="url(#TextBounds_4)" d="M829.418 294.294L827.2 318.665L829.319 318.858L831.537 294.487L829.418 294.294ZM824.869 301.64C825.194 298.071 822.665 295.591 819.067 295.264C815.526 294.942 812.494 297.056 812.182 300.485C811.885 303.748 814.427 306.397 818.025 306.724C821.538 307.044 824.555 305.098 824.869 301.64ZM822.806 301.452C822.598 303.739 820.501 305.15 818.187 304.94C815.817 304.724 814.04 302.932 814.245 300.673C814.453 298.387 816.56 296.863 818.902 297.076C821.273 297.292 823.029 298.998 822.806 301.452ZM826.341 312.345L826.303 310.599C824.499 310.659 821.33 310.568 817.918 310.37C814.947 310.268 812.07 310.063 809.981 309.844L810.201 311.748C812.044 311.888 814.729 312.048 817.613 312.17C820.721 312.312 824.227 312.406 826.341 312.345Z"/>
<path clip-path="url(#TextBounds_4)" d="M854.232 311.425L854.391 309.668L839.278 308.293L839.633 304.389L854.05 305.701L854.712 298.423L838.232 296.923L838.069 298.708L852.43 300.015L852.09 303.751L837.646 302.437L836.971 309.854L840.429 310.169L839.997 314.909L833.863 314.351L833.7 316.136L855.701 318.138L855.864 316.353L849.868 315.808L850.3 311.067L854.232 311.425ZM842.548 310.362L848.208 310.877L847.777 315.617L842.116 315.102L842.548 310.362Z"/>
<path clip-path="url(#TextBounds_4)" d="M873.435 304.007C873.686 301.246 871.141 299.243 867.377 298.901C863.612 298.558 860.692 300.064 860.443 302.796C860.184 305.641 862.795 307.537 866.56 307.88C870.324 308.222 873.181 306.795 873.435 304.007ZM878.073 317.615L879.778 298.877L877.659 298.684L876.347 313.1L871.216 312.633L871.064 314.306L876.194 314.773L875.953 317.422L878.073 317.615ZM878.115 322.708L878.278 320.923L862.969 319.53L863.449 314.26L861.329 314.067L860.687 321.122L878.115 322.708ZM871.343 303.816C871.194 305.462 869.338 306.389 866.717 306.151C864.096 305.912 862.41 304.662 862.56 303.017C862.712 301.344 864.596 300.419 867.217 300.658C869.838 300.896 871.493 302.171 871.343 303.816ZM867.091 315.632L867.507 311.059C870.088 311.125 872.808 311.204 874.362 311.12L874.344 309.46C871.951 309.495 869.279 309.505 866.564 309.37C863.908 309.213 860.922 308.969 858.415 308.713L858.584 310.556C860.62 310.741 863.053 310.878 865.375 311.005L864.972 315.439L867.091 315.632Z"/>
</g>
<path d="M730.614 278.959L755.078 279.79L754.427 314.371L729.439 314.04L730.614 278.959Z" fill="#ffffff" fill-rule="nonzero" opacity="1" stroke="#060000" stroke-linecap="butt" stroke-linejoin="round" stroke-width="1"/>
<path d="M733.097 292.671L733.125 297.085L737.395 297.123L737.428 292.68L733.097 292.671Z" fill="#000000" fill-rule="nonzero" opacity="1" stroke="none"/>
<path d="M739.688 292.796L739.716 297.211L743.985 297.248L744.019 292.806L739.688 292.796Z" fill="#000000" fill-rule="nonzero" opacity="1" stroke="none"/>
<path d="M746.426 292.844L746.454 297.258L750.723 297.296L750.757 292.853L746.426 292.844Z" fill="#000000" fill-rule="nonzero" opacity="1" stroke="none"/>
<path d="M746.208 300.627L746.236 305.041L750.506 305.079L750.539 300.636L746.208 300.627Z" fill="#000000" fill-rule="nonzero" opacity="1" stroke="none"/>
<path d="M739.522 300.575L739.55 304.989L743.82 305.027L743.854 300.584L739.522 300.575Z" fill="#000000" fill-rule="nonzero" opacity="1" stroke="none"/>
<path d="M733.066 300.334L733.094 304.749L737.363 304.786L737.397 300.344L733.066 300.334Z" fill="#000000" fill-rule="nonzero" opacity="1" stroke="none"/>
<path d="M730.931 284.093L730.792 288.661L754.5 289.088L754.553 284.667L730.931 284.093Z" fill="#41b6ff" fill-rule="nonzero" opacity="1" stroke="none"/>
<g fill="#ffffff" opacity="1" stroke="none">
<path clip-path="url(#TextBounds_5)" d="M860.348 378.291C860.52 375.89 858.215 373.98 853.114 373.351L853.197 372.194L863.206 372.914L863.393 370.311L840.108 368.637L839.921 371.24L849.813 371.951L849.73 373.108C844.645 373.062 842.182 374.572 842.009 376.972C841.82 379.605 844.581 381.635 850.858 382.086C857.106 382.535 860.158 380.923 860.348 378.291ZM862.46 366.697C858.702 366.397 855.236 364.869 854.317 363.087L861.462 363.601L861.653 360.94L843.17 359.611L842.979 362.272L850.239 362.794C849.104 364.428 845.659 365.43 841.523 365.133L842.598 367.973C846.72 368.065 850.466 366.91 852.064 364.902C853.452 367.037 857.22 368.82 860.961 369.351L862.46 366.697ZM856.79 378.035C856.707 379.192 854.489 379.701 851.018 379.452C847.634 379.209 845.455 378.383 845.538 377.226C845.621 376.069 847.894 375.593 851.278 375.836C854.749 376.086 856.873 376.878 856.79 378.035ZM848.193 358.896L856.755 359.512L856.94 356.938L848.378 356.322L848.193 358.896Z"/>
<path clip-path="url(#TextBounds_5)" d="M886.352 384.202L886.545 381.512L871.88 380.457L872.001 378.78L885.885 379.778L886.378 372.923L869.051 371.677L868.858 374.367L882.8 375.369L882.677 377.076L868.764 376.076L868.273 382.902L886.352 384.202ZM866.664 361.213L871.754 361.579C871.189 364.998 868.706 367.175 865.117 368.167L866.926 370.914C869.504 370.227 872.39 368.108 873.35 365.677C874.262 367.952 876.658 370.218 878.577 371.024L880.586 368.552C877.898 367.516 875.532 365.252 875.37 361.839L880.23 362.188L880.429 359.411L866.863 358.436L866.664 361.213ZM886.471 371.621L887.409 358.576L884.025 358.332L883.64 363.684L879.793 363.407L879.595 366.155L883.443 366.431L883.087 371.378L886.471 371.621Z"/>
<path clip-path="url(#TextBounds_5)" d="M911.058 376.209L911.254 373.49L896.502 372.429L896.727 369.305L910.726 370.312L911.327 361.953L893.828 360.694L893.634 363.384L907.779 364.401L907.565 367.381L893.565 366.374L892.951 374.907L899.864 375.404L899.575 379.425L889.683 378.714L889.489 381.404L912.774 383.078L912.968 380.388L902.96 379.668L903.249 375.647L911.058 376.209Z"/>
</g>
<g fill="#ffffff" opacity="1" stroke="none">
<path clip-path="url(#TextBounds_6)" d="M754.039 459.297C754.895 456.194 752.304 453.373 746.88 451.877C741.513 450.397 737.87 451.498 737.014 454.601C736.166 457.676 738.721 460.517 744.089 461.997C749.512 463.493 753.191 462.372 754.039 459.297ZM755.36 453.855L759.346 439.402L756.075 438.5L754.911 442.721L750.69 441.557L749.98 444.129L754.202 445.293L753.523 447.753L748.966 446.496L748.28 448.984L752.837 450.241L752.089 452.953L755.36 453.855ZM750.657 458.364C750.232 459.901 748.141 460.287 744.814 459.369C741.627 458.49 740 457.079 740.425 455.542C740.841 454.032 742.976 453.598 746.163 454.477C749.49 455.395 751.073 456.854 750.657 458.364ZM751.043 438.856L739.469 435.664L738.722 438.376L746.661 440.566C744.633 444.429 740.03 445.957 735.399 445.732L736.407 448.838C743.484 448.594 748.859 445.684 751.043 438.856Z"/>
<path clip-path="url(#TextBounds_6)" d="M779.51 457.478L782.401 446.994L779.103 446.084L778.316 448.936L767.777 446.029L768.555 443.205L765.312 442.311L762.429 452.766L779.51 457.478ZM768.878 468.865L771.138 460.674L780.81 463.342L781.528 460.742L759.023 454.535L758.306 457.134L767.867 459.772L765.607 467.963L768.878 468.865ZM776.928 453.968L766.389 451.061L767.075 448.573L777.614 451.48L776.928 453.968Z"/>
<path clip-path="url(#TextBounds_6)" d="M803.705 474.68L804.422 472.08L793.267 469.004L795.581 460.617L792.31 459.715L789.996 468.102L781.917 465.873L781.2 468.473L803.705 474.68ZM806.438 454.737L788.909 449.902L788.185 452.53L802.414 456.455C801.55 459.917 800.035 464.643 798.458 467.307L801.481 468.562C803.258 465.502 804.822 461.03 806.438 454.737Z"/>
<path clip-path="url(#TextBounds_6)" d="M821.213 461.7C821.685 464.899 825.491 468.115 828.686 469.508L830.794 467.321C827.269 466.138 822.903 462.227 823.929 458.509L824.129 457.782L820.746 456.849L820.546 457.576C819.52 461.294 814.443 462.36 810.162 461.63L810.83 464.552C814.568 465.072 819.169 464.205 821.213 461.7ZM829.737 474.641L830.447 472.069L820.83 469.416L821.755 466.062L818.484 465.159L817.559 468.514L807.942 465.862L807.233 468.433L829.737 474.641ZM809.364 471.067L808.647 473.667L822.346 477.445L820.757 483.204L824 484.099L826.306 475.74L809.364 471.067Z"/>
<path clip-path="url(#TextBounds_6)" d="M851.527 479.297L852.244 476.697L838.657 472.95L840.431 466.52L853.877 470.229L854.595 467.629L837.877 463.018L834.669 474.647L841.323 476.482L839.734 482.241L830.173 479.604L829.464 482.176L851.968 488.384L852.678 485.812L843.005 483.144L844.593 477.385L851.527 479.297Z"/>
<path clip-path="url(#TextBounds_6)" d="M875.807 488.01L876.532 485.382L862.274 481.449L863.107 478.43L876.638 482.162L878.866 474.083L861.953 469.418L861.236 472.017L874.906 475.788L874.112 478.668L860.581 474.936L858.307 483.183L864.988 485.025L863.916 488.911L854.355 486.274L853.638 488.874L876.143 495.081L876.86 492.482L867.187 489.814L868.259 485.928L875.807 488.01Z"/>
</g>
</g>
</svg>
