<?xml version="1.0" encoding="UTF-8" standalone="no"?>
<!DOCTYPE svg PUBLIC "-//W3C//DTD SVG 1.1//EN" "http://www.w3.org/Graphics/SVG/1.1/DTD/svg11.dtd">
<!-- Created with Vectornator (http://vectornator.io/) -->
<svg height="100%" stroke-miterlimit="10" style="fill-rule:nonzero;clip-rule:evenodd;stroke-linecap:round;stroke-linejoin:round;" version="1.1" viewBox="0 0 2868.45 2353.26" width="100%" xml:space="preserve" xmlns="http://www.w3.org/2000/svg" xmlns:vectornator="http://vectornator.io" xmlns:xlink="http://www.w3.org/1999/xlink">
<defs/>
<clipPath id="ArtboardFrame">
<rect height="2353.26" width="2868.45" x="0" y="0"/>
</clipPath>
<g clip-path="url(#ArtboardFrame)" id="레이어-3" vectornator:layerName="레이어 3">
<path d="M526.315 927.934L1060.86 362.156C1104.21 316.279 1176.05 313.765 1221.32 356.541L1221.32 356.541C1266.59 399.316 1268.16 471.183 1224.82 517.06L690.27 1082.84C646.926 1128.71 575.086 1131.23 529.811 1088.45L529.811 1088.45C484.537 1045.68 482.971 973.811 526.315 927.934Z" fill="#000000" fill-rule="nonzero" opacity="1" stroke="#000000" stroke-linecap="butt" stroke-linejoin="round" stroke-width="1"/>
<path d="M710.062 1315.62L1733.76 232.118C1763.67 200.451 1813.6 199.034 1845.27 228.953L1845.27 228.953C1876.93 258.872 1878.35 308.796 1848.43 340.463L824.738 1423.97C794.819 1455.64 744.894 1457.05 713.227 1427.13L713.227 1427.13C681.561 1397.22 680.143 1347.29 710.062 1315.62Z" fill="#000000" fill-rule="nonzero" opacity="1" stroke="#000000" stroke-linecap="butt" stroke-linejoin="round" stroke-width="1"/>
<path d="M637.16 1130.63L1503.44 213.742C1537.94 177.222 1595.62 175.687 1632.27 210.313L1632.27 210.313C1668.92 244.94 1670.66 302.616 1636.16 339.136L769.881 1256.03C735.377 1292.55 677.695 1294.08 641.045 1259.46L641.045 1259.46C604.395 1224.83 602.656 1167.15 637.16 1130.63Z" fill="#000000" fill-rule="nonzero" opacity="1" stroke="#000000" stroke-linecap="butt" stroke-linejoin="round" stroke-width="1"/>
<path d="M597.011 1657.08L2033.54 136.615C2077.6 89.9903 2151.1 87.9038 2197.73 131.955L2197.73 131.955C2244.35 176.006 2246.44 249.513 2202.39 296.138L765.854 1816.61C721.803 1863.23 648.296 1865.32 601.671 1821.27L601.671 1821.27C555.046 1777.22 552.96 1703.71 597.011 1657.08Z" fill="#000000" fill-rule="nonzero" opacity="1" stroke="#000000" stroke-linecap="butt" stroke-linejoin="round" stroke-width="1"/>
<path d="M757.473 1821.02L2156.62 340.123C2232.11 260.221 2358.08 256.645 2437.98 332.137L2437.98 332.137C2517.88 407.628 2521.46 533.599 2445.97 613.501L1046.82 2094.4C971.333 2174.3 845.362 2177.87 765.46 2102.38L765.46 2102.38C685.558 2026.89 681.982 1900.92 757.473 1821.02Z" fill="#000000" fill-rule="nonzero" opacity="1" stroke="#000000" stroke-linecap="butt" stroke-linejoin="round" stroke-width="1"/>
<path d="M1220.3 1892.26L2271.2 779.967C2341.73 705.308 2459.44 701.967 2534.1 772.504L2534.1 772.504C2608.75 843.042 2612.1 960.746 2541.56 1035.4L1490.66 2147.7C1420.13 2222.36 1302.42 2225.7 1227.76 2155.16L1227.76 2155.16C1153.11 2084.63 1149.77 1966.92 1220.3 1892.26Z" fill="#000000" fill-rule="nonzero" opacity="1" stroke="#000000" stroke-linecap="butt" stroke-linejoin="round" stroke-width="1"/>
<path d="M1779.2 1829.07L2256.02 1324.39C2284.78 1293.96 2332.76 1292.59 2363.19 1321.35L2363.19 1321.35C2393.63 1350.1 2394.99 1398.09 2366.24 1428.52L1889.41 1933.2C1860.66 1963.64 1812.68 1965 1782.24 1936.25L1782.24 1936.25C1751.81 1907.49 1750.44 1859.51 1779.2 1829.07Z" fill="#000000" fill-rule="nonzero" opacity="1" stroke="#000000" stroke-linecap="butt" stroke-linejoin="round" stroke-width="1"/>
<path d="M1912.6 1896.12L2363.16 1419.24C2398.59 1381.73 2457.73 1380.05 2495.24 1415.49L2504.32 1424.07C2541.82 1459.51 2543.5 1518.64 2508.06 1556.15L2057.51 2033.03C2022.07 2070.54 1962.94 2072.22 1925.43 2036.78L1916.35 2028.2C1878.84 1992.77 1877.16 1933.63 1912.6 1896.12Z" fill="#000000" fill-rule="nonzero" opacity="1" stroke="#000000" stroke-linecap="butt" stroke-linejoin="round" stroke-width="1"/>
<path d="M-0.090154 0.700223C0.0535503 1.10195 0.0987751 1.64969 0.476609 1.84788C0.70097 1.96557 0.783845 1.44401 0.917583 1.22883C1.45067 0.371108 2.69705-1.44697 2.89631-2.35267C3.02264-2.9269 2.89631-1.17674 2.89631-0.588775C2.89631 0.0905623 2.17856 1.49924 1.54512 1.85354C-0.330497 2.90261-1.3028-2.68979-0.090154 0.700223Z" fill="none" opacity="1" stroke="#7d43cb" stroke-linecap="round" stroke-linejoin="round" stroke-width="1"/>
<path d="M2868.47 0.217467L2868.47 0.170919L2868.47 0.123595L2868.47 0.115061L2868.47 0.107044L2868.47 0.0987691L2868.47 0.0904939L2868.47 0.0822186L2868.47 0.0589446L2868.47 0.0429114L2868.45 0.0426528L2868.45 0.0351534L2868.45 0.0271368L2868.44 0.0266196L2868.43 0.0266196L2868.43 0.0416184L2868.43 0.0493764L2868.43 0.0641166L2868.44 0.078081L2868.45 0.0866149L2868.45 0.0866149" fill="none" opacity="1" stroke="#7d43cb" stroke-linecap="round" stroke-linejoin="round" stroke-width="1"/>
<path d="M2868.37 2353.63L2868.37 2353.57L2868.37 2353.39L2868.37 2353.37L2868.37 2353.36L2868.37 2353.34L2868.37 2353.33L2868.37 2353.31L2868.37 2353.27L2868.37 2353.24L2868.38 2353.24L2868.4 2353.24L2868.41 2353.24L2868.42 2353.24L2868.42 2353.26L2868.42 2353.27L2868.42 2353.28L2868.42 2353.33L2868.42 2353.36L2868.42 2353.36" fill="none" opacity="1" stroke="#7d43cb" stroke-linecap="round" stroke-linejoin="round" stroke-width="1"/>
<path d="M-0.140107 2353.35L-0.120567 2353.29L-0.101028 2353.23L-0.0619498 2353.23L-0.0424107 2353.23L-0.0228715 2353.19L0.0149043 2353.19L0.054634 2353.19L0.095015 2353.19L0.114554 2353.19L0.15233 2353.19L0.171869 2353.19L0.191408 2353.19L0.210947 2353.19L0.231789 2353.19L0.251328 2353.19L0.270868 2353.19L0.328183 2353.19L0.328183 2353.19" fill="none" opacity="1" stroke="#7d43cb" stroke-linecap="round" stroke-linejoin="round" stroke-width="1"/>
</g>
</svg>
