<?xml version="1.0" encoding="UTF-8" standalone="no"?>
<!DOCTYPE svg PUBLIC "-//W3C//DTD SVG 1.1//EN" "http://www.w3.org/Graphics/SVG/1.1/DTD/svg11.dtd">
<!-- Created with Vectornator (http://vectornator.io/) -->
<svg height="100%" stroke-miterlimit="10" style="fill-rule:nonzero;clip-rule:evenodd;stroke-linecap:round;stroke-linejoin:round;" version="1.1" viewBox="0 0 217.177 166.333" width="100%" xml:space="preserve" xmlns="http://www.w3.org/2000/svg" xmlns:vectornator="http://vectornator.io" xmlns:xlink="http://www.w3.org/1999/xlink">
<defs/>
<g id="레이어-3" vectornator:layerName="레이어 3">
<path d="M86.3486 16.4134C99.7944 16.4134 124.787 16.4134 136.307 16.4134C147.635 16.4134 167.265 39.397 167.31 51.1782C167.388 71.5216 167.388 111.262 167.388 120.518C167.388 127.755 162.339 135.161 156.131 135.161C149.835 135.161 69.8953 135.161 63.2077 135.161C56.4824 135.161 53.6161 127.755 53.6161 120.518C53.6161 111.283 53.6161 71.613 53.5446 51.1782C53.5034 39.397 73.3507 16.4134 86.3486 16.4134Z" fill="none" opacity="1" stroke="#ffffff" stroke-linecap="butt" stroke-linejoin="round" stroke-width="7"/>
<path d="M70.2346 45.5786L78.7083 45.5786C81.4733 45.5786 83.7147 47.8201 83.7147 50.5851L83.7147 84.1947C83.7147 86.9597 81.4733 89.2012 78.7083 89.2012L70.2346 89.2012C67.4696 89.2012 65.2282 86.9597 65.2282 84.1947L65.2282 50.5851C65.2282 47.8201 67.4696 45.5786 70.2346 45.5786Z" fill="none" opacity="1" stroke="#ffffff" stroke-linecap="butt" stroke-linejoin="round" stroke-width="7"/>
<path d="M100.387 36.4671C100.387 31.2174 104.795 26.9617 110.233 26.9617C115.67 26.9617 120.078 31.2174 120.078 36.4671C120.078 41.7168 115.67 45.9725 110.233 45.9725C104.795 45.9725 100.387 41.7168 100.387 36.4671Z" fill="none" opacity="1" stroke="#ffffff" stroke-linecap="butt" stroke-linejoin="round" stroke-width="7"/>
<path d="M95.7263 57.6507L124.379 57.6507L124.379 115.921L95.7263 115.921L95.7263 57.6507Z" fill="none" opacity="1" stroke="#ffffff" stroke-linecap="butt" stroke-linejoin="round" stroke-width="7"/>
<path d="M53.6161 117.152L167.388 117.152" fill="none" opacity="1" stroke="#ffffff" stroke-linecap="butt" stroke-linejoin="round" stroke-width="7"/>
<path d="M76.4278 135.16L57.1389 154.972" fill="none" opacity="1" stroke="#ffffff" stroke-linecap="butt" stroke-linejoin="round" stroke-width="7"/>
<path d="M143.994 135.158L163.855 155.277" fill="none" opacity="1" stroke="#ffffff" stroke-linecap="butt" stroke-linejoin="round" stroke-width="7"/>
<path d="M142.304 45.2602L150.778 45.2602C153.543 45.2602 155.785 47.5017 155.785 50.2667L155.785 83.8763C155.785 86.6413 153.543 88.8827 150.778 88.8827L142.304 88.8827C139.539 88.8827 137.298 86.6413 137.298 83.8763L137.298 50.2667C137.298 47.5017 139.539 45.2602 142.304 45.2602Z" fill="none" opacity="1" stroke="#ffffff" stroke-linecap="butt" stroke-linejoin="round" stroke-width="7"/>
</g>
</svg>
