<?xml version="1.0" encoding="UTF-8" standalone="no"?>
<!DOCTYPE svg PUBLIC "-//W3C//DTD SVG 1.1//EN" "http://www.w3.org/Graphics/SVG/1.1/DTD/svg11.dtd">
<!-- Created with Vectornator (http://vectornator.io/) -->
<svg height="100%" stroke-miterlimit="10" style="fill-rule:nonzero;clip-rule:evenodd;stroke-linecap:round;stroke-linejoin:round;" version="1.1" viewBox="0 0 499.23 505.702" width="100%" xml:space="preserve" xmlns="http://www.w3.org/2000/svg" xmlns:vectornator="http://vectornator.io" xmlns:xlink="http://www.w3.org/1999/xlink">
<defs>
<style type="text/css">
.logotext{
    display: inline-block;
    animation: logotext 10s ease-in-out infinite;
}
@keyframes logotext {
  from { transform-origin : 50% 50%; transform: rotate(0turn); }
  to { transform-origin : 50% 50%; transform: rotate(1turn); }
}
.fire{
    display: inline-block;
    animation: fire 1s ease infinite;
    animation-direction: alternate;
}
.f1{
    animation-delay:0.5s;
}
.f2{
    animation-delay:0.2s;
}
.f3{
    animation-delay:0.1s;
}
@keyframes fire {
  from { transform-origin : 30% 100%; transform: rotateY(0deg); }
  to { transform-origin : 30% 100%; transform: rotateY(35deg); }
}
</style>
<radialGradient cx="1731.09" cy="1216.75" gradientTransform="matrix(1 0 0 1 -1431.39 -949.247)" gradientUnits="userSpaceOnUse" id="RadialGradient" r="135.632">
<stop offset="0.0078125" stop-color="#f5c0c0"/>
<stop offset="0.485778" stop-color="#fa3a36"/>
<stop offset="1" stop-color="#7e2727"/>
</radialGradient>
<linearGradient gradientTransform="matrix(1 0 0 1 -1431.39 -949.247)" gradientUnits="userSpaceOnUse" id="LinearGradient" x1="1582.05" x2="1728.18" y1="1183.33" y2="1183.33">
<stop offset="0.0056645" stop-color="#797969"/>
<stop offset="0.47263" stop-color="#fdffa3"/>
<stop offset="1" stop-color="#a7370e"/>
</linearGradient>
<filter color-interpolation-filters="sRGB" filterUnits="userSpaceOnUse" height="237.997" id="Filter" width="123.792" x="152.101" y="118.738">
<feGaussianBlur in="SourceGraphic" result="Blur" stdDeviation="0.477346"/>
</filter>
<linearGradient gradientTransform="matrix(1 0 0 1 -1431.39 -949.247)" gradientUnits="userSpaceOnUse" id="LinearGradient_2" x1="1582.05" x2="1728.18" y1="1183.33" y2="1183.33">
<stop offset="0.0056645" stop-color="#797969"/>
<stop offset="0.274442" stop-color="#fdffa3"/>
<stop offset="0.415414" stop-color="#4ea14b"/>
<stop offset="0.83961" stop-color="#586dd1"/>
<stop offset="0.989381" stop-color="#0c28ab"/>
</linearGradient>
<filter color-interpolation-filters="sRGB" filterUnits="userSpaceOnUse" height="250.41" id="Filter_2" width="153.621" x="146.918" y="108.882">
<feGaussianBlur in="SourceGraphic" result="Blur" stdDeviation="1.5"/>
</filter>
<linearGradient gradientTransform="matrix(1 0 0 1 -1431.39 -949.247)" gradientUnits="userSpaceOnUse" id="LinearGradient_3" x1="1582.05" x2="1728.18" y1="1183.33" y2="1183.33">
<stop offset="0.0056645" stop-color="#797969"/>
<stop offset="0.274442" stop-color="#fdffa3"/>
<stop offset="0.602862" stop-color="#ff7e4e"/>
<stop offset="0.83961" stop-color="#586dd1"/>
<stop offset="0.989381" stop-color="#0c28ab"/>
</linearGradient>
<filter color-interpolation-filters="sRGB" filterUnits="userSpaceOnUse" height="292.573" id="Filter_3" width="117.573" x="152.101" y="64.1625">
<feGaussianBlur in="SourceGraphic" result="Blur" stdDeviation="0.477346"/>
</filter>
<linearGradient gradientTransform="matrix(1 0 0 1 -1419.18 -929.778)" gradientUnits="userSpaceOnUse" id="LinearGradient_4" x1="1582.05" x2="1728.18" y1="1183.33" y2="1183.33">
<stop offset="0.0056645" stop-color="#797969"/>
<stop offset="0.288196" stop-color="#a9ab70"/>
<stop offset="0.601788" stop-color="#85cc5f"/>
<stop offset="0.83961" stop-color="#586dd1"/>
<stop offset="0.989381" stop-color="#0c28ab"/>
</linearGradient>
<filter color-interpolation-filters="sRGB" filterUnits="userSpaceOnUse" height="203.024" id="Filter_4" width="146.901" x="150.794" y="155.018">
<feGaussianBlur in="SourceGraphic" result="Blur" stdDeviation="1"/>
</filter>
<linearGradient class="fire" gradientTransform="matrix(1 0 0 1 -1449.42 -940.876)" gradientUnits="userSpaceOnUse" id="LinearGradient_5" x1="1582.05" x2="1728.18" y1="1183.33" y2="1183.33">
<stop offset="0.0056645" stop-color="#797969"/>
<stop offset="0.274442" stop-color="#fdffa3"/>
<stop offset="0.408519" stop-color="#ff7e4e"/>
<stop offset="0.83961" stop-color="#586dd1"/>
<stop offset="0.989381" stop-color="#0c28ab"/>
</linearGradient>
<filter color-interpolation-filters="sRGB" filterUnits="userSpaceOnUse" height="254.589" id="Filter_5" width="98.3386" x="151.171" y="102.328">
<feGaussianBlur in="SourceGraphic" result="Blur" stdDeviation="0.55"/>
</filter>
<linearGradient gradientTransform="matrix(1 0 0 1 -1431.39 -949.247)" gradientUnits="userSpaceOnUse" id="LinearGradient_6" x1="1580.12" x2="1660.42" y1="1193.37" y2="1193.37">
<stop offset="0.00469443" stop-color="#898967"/>
<stop offset="0.347249" stop-color="#e7d55b"/>
<stop offset="0.704372" stop-color="#d96c55"/>
<stop offset="0.991616" stop-color="#565d7b"/>
</linearGradient>
<filter color-interpolation-filters="sRGB" filterUnits="userSpaceOnUse" height="225.331" id="Filter_6" width="82.7986" x="147.488" y="131.461">
<feGaussianBlur in="SourceGraphic" result="Blur" stdDeviation="0.5"/>
</filter>
<linearGradient gradientTransform="matrix(1 0 0 1 -1431.39 -949.247)" gradientUnits="userSpaceOnUse" id="LinearGradient_7" x1="1570.27" x2="1587.19" y1="1297.92" y2="1297.92">
<stop offset="0.00469443" stop-color="#545523"/>
<stop offset="0.991616" stop-color="#565d7b"/>
</linearGradient>
<filter color-interpolation-filters="sRGB" filterUnits="userSpaceOnUse" height="39.1736" id="Filter_7" width="20.4207" x="137.136" y="329.085">
<feGaussianBlur in="SourceGraphic" result="Blur" stdDeviation="0.5"/>
</filter>
</defs>
<g id="불꽃" vectornator:layerName="불꽃" >
<g fill="#000000" opacity="1" stroke="none" class="logotext">
<path d="M48.9749 315.935L49.4235 315.833L47.0733 305.47L46.6247 305.572C46.6598 306.004 46.6909 306.453 46.7179 306.919C46.7448 307.384 46.7259 307.821 46.6612 308.229C46.5964 308.636 46.4566 308.99 46.2417 309.291C46.0268 309.591 45.6801 309.795 45.2016 309.904C44.9025 309.972 44.56 309.987 44.1739 309.948C43.7879 309.91 43.4043 309.848 43.0231 309.761C42.6418 309.675 42.2738 309.577 41.9191 309.469C41.5644 309.361 41.2505 309.259 40.9773 309.164C40.4377 309.003 39.6899 308.756 38.7338 308.423C37.7777 308.089 36.7774 307.734 35.733 307.358C34.6886 306.982 33.6608 306.61 32.6497 306.241C31.6385 305.873 30.8047 305.559 30.1483 305.299C30.8473 304.638 31.5827 303.928 32.3544 303.172C33.1261 302.415 33.8771 301.671 34.6074 300.939C35.3377 300.207 36.0332 299.531 36.6941 298.909C37.355 298.288 37.9173 297.751 38.381 297.3C39.08 296.639 39.7766 296.001 40.4708 295.388C41.165 294.774 41.7065 294.424 42.0953 294.335C42.4841 294.247 42.8177 294.297 43.0963 294.486C43.3749 294.674 43.6255 294.947 43.8483 295.306C44.071 295.664 44.2632 296.061 44.4248 296.496C44.5863 296.931 44.7329 297.369 44.8646 297.811L45.3132 297.709L42.2304 284.116L41.7818 284.218C41.8876 284.823 41.8435 285.391 41.6495 285.923C41.4556 286.454 41.1587 287.017 40.7588 287.61C40.3589 288.204 39.8526 288.814 39.24 289.441C38.6273 290.067 37.9518 290.763 37.2134 291.528C36.8326 291.928 36.3342 292.435 35.7181 293.046C35.1021 293.657 34.4405 294.311 33.7334 295.005C33.0262 295.7 32.2984 296.408 31.5497 297.128C30.8011 297.848 30.1246 298.505 29.5201 299.098C28.9157 299.691 28.4081 300.191 27.9974 300.599C27.5867 301.006 27.3433 301.25 27.2671 301.33C25.6222 301.703 24.2224 302.013 23.0676 302.259C21.9127 302.505 20.9132 302.708 20.0691 302.868C19.5905 302.977 19.0954 303.081 18.5836 303.182C18.0717 303.282 17.5864 303.361 17.1277 303.418C16.6689 303.474 16.2516 303.506 15.8757 303.513C15.4999 303.519 15.2202 303.465 15.0368 303.349C14.1399 302.861 13.5281 302.347 13.2015 301.808C12.8748 301.269 12.5784 300.621 12.3124 299.864L11.8637 299.965L14.9974 313.782L15.446 313.681C15.4164 312.996 15.4249 312.27 15.4714 311.505C15.518 310.74 15.8194 310.058 16.3756 309.461C16.6503 309.147 17.1938 308.874 18.0061 308.643C18.8184 308.411 19.6582 308.197 20.5255 308.001L29.5425 305.956C30.1622 306.192 31.0218 306.516 32.1213 306.927C33.2207 307.338 34.3701 307.762 35.5695 308.197C36.7689 308.633 37.9275 309.062 39.0453 309.484C40.1631 309.907 41.0468 310.233 41.6964 310.463C42.6559 310.811 43.5172 311.143 44.2803 311.457C45.0434 311.772 45.7218 312.129 46.3157 312.529C46.9095 312.928 47.4238 313.394 47.8585 313.924C48.2932 314.454 48.6653 315.124 48.9749 315.935Z"/>
<path d="M46.729 353.373C48.7813 352.559 50.6066 351.422 52.205 349.962C53.8034 348.503 55.0564 346.818 55.964 344.907C56.8717 342.996 57.3713 340.909 57.4627 338.645C57.5541 336.382 57.119 334.039 56.1573 331.616C55.2748 329.393 54.0714 327.421 52.5469 325.7C51.0224 323.979 49.2863 322.639 47.3384 321.68C45.3905 320.721 43.2649 320.187 40.9617 320.078C38.6585 319.97 36.2813 320.402 33.83 321.375C31.5212 322.291 29.5717 323.552 27.9815 325.156C26.3913 326.761 25.1935 328.564 24.3881 330.567C23.5826 332.569 23.1869 334.689 23.2009 336.927C23.2149 339.165 23.6519 341.367 24.5117 343.534C25.3829 345.728 26.5908 347.649 28.1353 349.296C29.6799 350.943 31.4561 352.218 33.464 353.12C35.4718 354.022 37.6145 354.516 39.8922 354.602C42.1698 354.688 44.4488 354.278 46.729 353.373ZM44.5819 348.089C42.7862 348.801 40.9028 349.293 38.9317 349.564C36.9607 349.835 35.08 349.814 33.2899 349.502C31.4998 349.19 29.8856 348.552 28.4474 347.589C27.0092 346.625 25.9337 345.246 25.2209 343.45C24.5082 341.654 24.2964 339.916 24.5856 338.234C24.8747 336.552 25.5252 334.99 26.537 333.549C27.5488 332.108 28.862 330.803 30.4767 329.635C32.0914 328.466 33.8679 327.497 35.8061 326.727C37.6588 325.992 39.5722 325.472 41.5462 325.167C43.5202 324.861 45.3923 324.861 47.1626 325.164C48.9328 325.468 50.5356 326.119 51.9708 327.116C53.4061 328.114 54.4914 329.539 55.2268 331.391C55.9509 333.216 56.1299 334.976 55.7638 336.672C55.3977 338.368 54.6731 339.951 53.5901 341.42C52.507 342.889 51.1696 344.195 49.5777 345.338C47.9859 346.482 46.3206 347.398 44.5819 348.089Z"/>
<path d="M81.4467 380.337L81.8383 380.096L75.8544 370.383L75.4628 370.625C76.0521 371.991 76.3154 373.134 76.2526 374.055C76.1898 374.976 75.8733 375.793 75.3031 376.504C75.1063 376.77 74.8086 377.061 74.41 377.379C74.0114 377.696 73.5721 378.021 73.0921 378.353C72.6121 378.684 72.102 379.026 71.5617 379.377C71.0215 379.727 70.4902 380.064 69.9681 380.385C69.4198 380.723 68.8845 381.053 68.3623 381.375C67.8663 381.68 67.3571 381.994 66.8349 382.316C66.3389 382.621 65.8036 382.951 65.2292 383.305C64.6548 383.659 64.0151 384.053 63.3102 384.487C62.4225 385.034 61.4951 385.561 60.528 386.066C59.5609 386.572 58.5732 387.001 57.5648 387.352C56.5564 387.703 55.536 387.917 54.5034 387.995C53.4707 388.073 52.4411 387.951 51.4143 387.629C50.3875 387.307 49.3867 386.735 48.4119 385.913C47.4371 385.091 46.4912 383.935 45.5743 382.447C44.7701 381.142 44.2696 379.847 44.0731 378.564C43.8766 377.28 43.9593 376.04 44.3213 374.845C44.6833 373.649 45.3116 372.506 46.206 371.414C47.1005 370.323 48.2316 369.338 49.5993 368.459C50.2259 368.073 50.8159 367.701 51.3692 367.342C51.9225 366.983 52.4994 366.618 53.0999 366.248C53.7265 365.862 54.3923 365.452 55.0973 365.018C55.8022 364.584 56.5986 364.093 57.4863 363.546C58.1912 363.112 58.8048 362.734 59.327 362.412C59.8753 362.074 60.3975 361.753 60.8935 361.447C61.3896 361.141 61.9028 360.834 62.433 360.525C62.9632 360.217 63.5758 359.866 64.2707 359.474C64.8873 359.13 65.4638 358.955 66.0002 358.949C66.5367 358.943 67.0204 359.041 67.4514 359.244C67.8825 359.446 68.2789 359.724 68.6407 360.078C69.0025 360.431 69.3221 360.775 69.5995 361.108L69.9912 360.867L62.8009 349.196L62.4092 349.437C62.7491 350.164 62.986 350.856 63.12 351.512C63.2539 352.167 63.2116 352.815 62.9929 353.454C62.9067 353.723 62.7245 353.997 62.4464 354.277C62.1683 354.556 61.8389 354.84 61.4584 355.129C61.0778 355.417 60.6525 355.706 60.1826 355.996C59.7126 356.285 59.2426 356.575 58.7727 356.864L53.5639 360.073C52.1278 360.958 50.8184 361.756 49.6354 362.467C48.4524 363.178 47.4954 363.758 46.7644 364.209C46.4511 364.402 45.9866 364.715 45.3711 365.148C44.7555 365.581 44.131 366.146 43.4975 366.843C42.864 367.539 42.2899 368.361 41.775 369.309C41.2602 370.256 40.9273 371.353 40.7762 372.598C40.6252 373.844 40.752 375.234 41.1566 376.767C41.5612 378.301 42.3426 380.008 43.5007 381.888C44.675 383.794 45.8666 385.275 47.0756 386.331C48.2846 387.387 49.4924 388.12 50.699 388.529C51.9056 388.938 53.074 389.11 54.204 389.044C55.3341 388.978 56.3877 388.788 57.365 388.474C58.3422 388.16 59.2215 387.79 60.0028 387.362C60.7841 386.935 61.4308 386.582 61.943 386.302C63.7245 385.277 65.3192 384.357 66.7271 383.544C68.135 382.73 69.4084 381.991 70.5471 381.325C71.1477 380.955 71.7627 380.594 72.3924 380.243C73.022 379.891 73.6271 379.572 74.2076 379.286C74.788 379.001 75.3073 378.762 75.7652 378.57C76.2232 378.378 76.5677 378.265 76.7987 378.23C77.7489 378.077 78.5797 378.169 79.291 378.505C80.0024 378.841 80.721 379.452 81.4467 380.337Z"/>
<path d="M100.571 413.698L106.242 406.593C105.61 406.214 105.022 405.826 104.477 405.429C103.933 405.032 103.31 404.468 102.609 403.738C101.828 402.873 101.124 402.104 100.496 401.432C99.8676 400.759 99.2601 400.109 98.6733 399.483C98.0864 398.856 97.4846 398.201 96.868 397.518C96.2719 396.858 95.5936 396.107 94.8331 395.265C94.0726 394.423 93.3841 393.66 92.7674 392.977C92.1714 392.317 91.5856 391.669 91.0101 391.032C90.4345 390.394 89.8442 389.729 89.2389 389.036C88.6337 388.343 87.9519 387.554 87.1936 386.668C86.4559 385.806 85.9207 385.122 85.5882 384.616C85.2557 384.111 84.9099 383.545 84.551 382.919L77.1397 387.753L77.3148 388.152C77.8478 387.919 78.4384 387.726 79.0866 387.575C79.7349 387.423 80.3649 387.309 80.9768 387.231C81.5887 387.154 82.1619 387.091 82.6964 387.042C83.2308 386.993 83.6599 386.988 83.9836 387.026C84.8705 387.093 85.6567 387.323 86.3423 387.716C87.028 388.109 87.7727 388.728 88.5765 389.572C88.9671 390.005 89.317 390.381 89.6264 390.701C89.9359 391.02 90.2242 391.328 90.4914 391.624C90.7791 391.943 91.0772 392.273 91.3855 392.614C91.7143 392.978 92.0946 393.399 92.5262 393.877L81.2264 404.082C80.6119 404.637 79.9632 405.223 79.2805 405.84C78.5977 406.456 77.9325 407.047 77.285 407.611C76.6375 408.175 76.0468 408.688 75.5131 409.149C74.9794 409.61 74.5532 409.985 74.2346 410.273C73.8704 410.602 73.4898 410.935 73.0926 411.273C72.6954 411.611 72.3164 411.912 71.9556 412.176C71.5947 412.44 71.2577 412.662 70.9446 412.841C70.6315 413.02 70.3667 413.105 70.1501 413.094C69.0856 413.105 68.2271 412.909 67.5745 412.507C66.9219 412.104 66.2942 411.638 65.6915 411.108L65.3501 411.416L75.3703 422.511L75.7117 422.203C75.3505 421.62 74.9783 420.933 74.5952 420.143C74.212 419.353 74.1166 418.561 74.309 417.767C74.3949 417.359 74.724 416.866 75.2963 416.287C75.8686 415.708 76.4847 415.121 77.1447 414.525L84.7235 407.68C85.429 407.043 86.2939 406.262 87.318 405.337C88.365 404.391 89.4232 403.436 90.4929 402.47C91.5626 401.503 92.5919 400.584 93.5808 399.712C94.5697 398.839 95.3487 398.146 95.9176 397.632C96.3698 398.133 96.7501 398.554 97.0584 398.895C97.3873 399.26 97.6853 399.59 97.9525 399.885C98.2403 400.204 98.5223 400.528 98.7987 400.857C99.0751 401.186 99.4085 401.566 99.7991 401.999C100.557 402.884 101.114 403.672 101.47 404.364C101.826 405.055 101.992 405.845 101.968 406.734C101.973 407.06 101.924 407.497 101.82 408.046C101.716 408.594 101.589 409.174 101.438 409.785C101.288 410.396 101.104 411.027 100.886 411.678C100.668 412.329 100.437 412.931 100.192 413.483L100.571 413.698Z"/>
<path d="M116.386 457.599L116.668 457.236C116.096 456.674 115.619 456.088 115.238 455.48C114.856 454.872 114.697 454.204 114.759 453.475C114.783 453.144 115.008 452.668 115.434 452.047C115.859 451.426 116.345 450.765 116.892 450.063C117.57 449.192 118.186 448.389 118.739 447.654C119.292 446.919 119.833 446.212 120.36 445.535C120.907 444.833 121.454 444.132 122 443.43C122.565 442.704 123.197 441.894 123.894 440.999L128.728 434.793C129.01 434.43 129.303 434.055 129.604 433.668C129.906 433.281 130.214 432.91 130.531 432.553C130.847 432.197 131.147 431.887 131.431 431.622C131.715 431.357 131.971 431.178 132.2 431.084C132.843 430.808 133.542 430.759 134.296 430.938C135.05 431.118 135.746 431.397 136.383 431.777L136.666 431.414L125.743 422.906L125.46 423.268C125.998 423.726 126.484 424.25 126.917 424.841C127.351 425.432 127.532 426.223 127.458 427.216C127.407 427.681 127.206 428.176 126.856 428.7C126.506 429.224 126.164 429.726 125.83 430.204C125.233 431.021 124.689 431.744 124.199 432.373C123.709 433.002 123.228 433.619 122.757 434.224C122.286 434.829 121.796 435.458 121.287 436.111C120.797 436.74 120.251 437.442 119.648 438.216L105.313 427.05C105.502 426.808 105.85 426.361 106.359 425.708C106.887 425.03 107.49 424.256 108.168 423.385C108.866 422.49 109.602 421.557 110.377 420.587C111.153 419.616 111.882 418.717 112.566 417.889C113.024 417.352 113.503 416.986 114.003 416.793C114.503 416.6 114.991 416.523 115.466 416.562C115.94 416.601 116.409 416.723 116.871 416.928C117.334 417.133 117.753 417.343 118.13 417.558L118.412 417.196L107.598 408.772L107.315 409.135C107.888 409.697 108.351 410.262 108.706 410.83C109.061 411.398 109.247 412.019 109.265 412.694C109.279 412.977 109.204 413.298 109.041 413.657C108.878 414.015 108.668 414.397 108.413 414.8C108.157 415.203 107.859 415.622 107.52 416.058C107.181 416.493 106.842 416.929 106.502 417.364L100.99 424.441C100.481 425.094 99.9349 425.796 99.3507 426.546C98.7854 427.271 98.2281 427.974 97.6789 428.654C97.1297 429.334 96.623 429.96 96.1586 430.531C95.6942 431.103 95.3301 431.558 95.0663 431.896C94.7647 432.283 94.437 432.679 94.083 433.084C93.729 433.488 93.3925 433.858 93.0736 434.192C92.7546 434.527 92.4565 434.81 92.1793 435.041C91.9021 435.272 91.668 435.41 91.477 435.456C90.9229 435.569 90.2781 435.523 89.5426 435.319C88.8071 435.116 88.0993 434.827 87.4191 434.453L87.1364 434.815L97.8418 443.154L98.1245 442.792C97.6541 442.347 97.2376 441.809 96.875 441.177C96.5124 440.544 96.3461 439.91 96.3761 439.272C96.3899 438.855 96.6391 438.311 97.1237 437.639C97.6083 436.967 98.1239 436.28 98.6704 435.578L104.748 427.776L119.082 438.942C118.894 439.184 118.564 439.607 118.093 440.212C117.641 440.793 117.113 441.47 116.51 442.244C115.926 442.994 115.294 443.805 114.616 444.676C113.956 445.522 113.304 446.335 112.658 447.115C112.431 447.405 112.19 447.703 111.933 448.008C111.676 448.313 111.422 448.601 111.172 448.873C110.921 449.144 110.693 449.375 110.487 449.564C110.281 449.754 110.126 449.866 110.021 449.901C109.582 450.065 108.962 450.038 108.159 449.821C107.356 449.604 106.479 449.183 105.528 448.558L105.245 448.921L116.386 457.599Z"/>
<path d="M165.669 447.609L165.911 447.165L156.5 442.036L156.28 442.44C156.615 442.658 156.979 442.935 157.372 443.271C157.765 443.608 158.116 443.974 158.425 444.369C158.733 444.764 158.949 445.169 159.071 445.585C159.194 446.001 159.145 446.411 158.925 446.815C158.763 447.112 158.393 447.599 157.813 448.279C157.233 448.958 156.271 449.892 154.925 451.079C153.141 452.622 151.429 454.098 149.787 455.509C148.145 456.919 146.667 458.174 145.352 459.273C144.037 460.373 142.941 461.295 142.063 462.039C141.186 462.783 140.6 463.267 140.304 463.49C140.448 462.521 140.609 461.264 140.787 459.719C140.965 458.175 141.164 456.511 141.385 454.728C141.606 452.945 141.835 451.131 142.071 449.287C142.308 447.443 142.539 445.753 142.765 444.217C142.991 442.681 143.201 441.381 143.397 440.318C143.592 439.254 143.756 438.601 143.888 438.359C144.108 437.955 144.433 437.696 144.862 437.58C145.292 437.465 145.729 437.433 146.173 437.483C146.617 437.533 147.029 437.626 147.408 437.763C147.788 437.9 148.052 437.992 148.202 438.038L148.422 437.634L136.345 431.053L136.102 431.497C136.707 431.861 137.164 432.241 137.472 432.636C137.781 433.031 138.01 433.427 138.161 433.824C138.312 434.22 138.402 434.583 138.431 434.914C138.461 435.244 138.472 435.512 138.465 435.718C138.45 436.129 138.436 436.523 138.423 436.9C138.41 437.277 138.389 437.667 138.361 438.071C138.333 438.475 138.297 438.909 138.253 439.374C138.209 439.84 138.142 440.379 138.052 440.994C137.786 443.084 137.524 445.167 137.265 447.244C137.006 449.321 136.742 451.473 136.471 453.7C136.2 455.927 135.909 458.24 135.598 460.637C135.287 463.035 134.981 465.566 134.681 468.231L135.166 468.496L139.346 465.535C140.775 464.323 142.285 463.042 143.877 461.691C145.468 460.341 147.063 459.001 148.661 457.671C150.258 456.342 151.817 455.052 153.336 453.802C154.856 452.552 156.237 451.427 157.48 450.428C158.228 449.824 158.87 449.335 159.405 448.963C159.939 448.591 160.393 448.288 160.765 448.054C161.137 447.82 161.444 447.656 161.688 447.561C161.931 447.467 162.115 447.402 162.24 447.365C162.38 447.301 162.8 447.251 163.501 447.214C164.202 447.177 164.925 447.309 165.669 447.609Z"/>
<path d="M167.895 483.052L168.065 482.625C167.49 482.329 166.883 481.906 166.244 481.354C165.606 480.802 165.212 480.216 165.063 479.596C164.961 479.192 165.048 478.599 165.326 477.819C165.604 477.038 165.908 476.235 166.237 475.409L170.087 465.752C170.439 464.869 170.763 464.057 171.058 463.316C171.364 462.547 171.66 461.806 171.944 461.094C172.227 460.382 172.516 459.68 172.808 458.988C173.101 458.295 173.389 457.593 173.673 456.881C173.962 456.237 174.262 455.548 174.571 454.813C174.881 454.078 175.26 453.519 175.71 453.137C176.353 452.601 177.061 452.355 177.836 452.4C178.61 452.445 179.314 452.544 179.946 452.697L180.116 452.269L167.34 447.176L167.17 447.604C167.876 447.984 168.479 448.398 168.978 448.844C169.477 449.291 169.829 449.836 170.035 450.479C170.126 450.746 170.144 451.075 170.087 451.465C170.031 451.855 169.936 452.28 169.802 452.738C169.669 453.197 169.5 453.683 169.296 454.195C169.092 454.708 168.887 455.221 168.683 455.734L165.361 464.066C165.055 464.835 164.725 465.661 164.373 466.544C164.033 467.399 163.693 468.229 163.355 469.036C163.018 469.842 162.705 470.584 162.418 471.262C162.132 471.94 161.909 472.478 161.75 472.877C161.568 473.333 161.376 473.793 161.175 474.257C160.973 474.722 160.766 475.159 160.553 475.569C160.34 475.98 160.135 476.327 159.939 476.612C159.743 476.897 159.54 477.097 159.329 477.211C158.709 477.525 158.041 477.688 157.326 477.7C156.612 477.712 155.876 477.633 155.118 477.463L154.948 477.891L167.895 483.052Z"/>
<path d="M197.153 482.611C197.762 480.521 197.719 478.616 197.023 476.895C196.327 475.175 195.085 473.655 193.298 472.335C192.798 471.966 192.317 471.618 191.853 471.291C191.39 470.964 190.931 470.646 190.478 470.339C190.025 470.031 189.566 469.713 189.102 469.386C188.639 469.059 188.147 468.692 187.627 468.285C186.288 467.288 185.285 466.181 184.618 464.964C183.951 463.747 183.845 462.359 184.3 460.798C184.592 459.797 185.021 458.956 185.587 458.275C186.153 457.593 186.815 457.076 187.573 456.722C188.331 456.368 189.154 456.176 190.04 456.148C190.927 456.119 191.827 456.237 192.74 456.504C193.888 456.838 194.864 457.379 195.669 458.124C196.474 458.87 197.135 459.726 197.652 460.691C198.169 461.657 198.567 462.699 198.848 463.819C199.128 464.939 199.303 466.036 199.373 467.111L199.859 467.253L202.242 459.083L201.756 458.941C201.417 459.226 201.057 459.504 200.674 459.776C200.291 460.047 200.056 460.17 199.967 460.145C199.938 460.136 199.801 459.976 199.556 459.665C199.311 459.354 198.926 458.978 198.4 458.538C197.873 458.097 197.171 457.628 196.294 457.133C195.416 456.637 194.315 456.196 192.99 455.81C191.577 455.398 190.176 455.189 188.788 455.183C187.4 455.178 186.109 455.416 184.914 455.898C183.719 456.38 182.668 457.112 181.759 458.093C180.85 459.073 180.163 460.359 179.7 461.948C179.425 462.89 179.327 463.828 179.406 464.762C179.485 465.695 179.689 466.585 180.017 467.432C180.345 468.278 180.788 469.062 181.344 469.783C181.9 470.504 182.518 471.124 183.198 471.641C183.798 472.104 184.317 472.487 184.755 472.79C185.194 473.094 185.618 473.393 186.027 473.688C186.436 473.983 186.88 474.296 187.358 474.628C187.837 474.959 188.39 475.36 189.02 475.831C189.649 476.302 190.226 476.79 190.749 477.294C191.273 477.798 191.697 478.345 192.02 478.934C192.343 479.523 192.547 480.166 192.632 480.861C192.716 481.557 192.639 482.317 192.398 483.141C191.806 485.173 190.658 486.587 188.956 487.384C187.255 488.182 185.314 488.263 183.136 487.627C182.37 487.404 181.614 487.04 180.867 486.534C180.12 486.029 179.535 485.571 179.112 485.16C178.688 484.749 178.277 484.214 177.879 483.555C177.48 482.895 177.134 482.164 176.842 481.36C176.549 480.555 176.306 479.718 176.113 478.847C175.92 477.976 175.807 477.105 175.774 476.232L175.332 476.104L172.902 484.93L173.299 485.046C173.629 484.791 173.993 484.53 174.39 484.262C174.787 483.995 175.03 483.874 175.119 483.9C175.207 483.925 175.39 484.091 175.669 484.396C175.947 484.7 176.389 485.077 176.993 485.524C177.597 485.972 178.388 486.435 179.367 486.912C180.346 487.389 181.557 487.838 183 488.258C184.678 488.748 186.279 489.007 187.804 489.037C189.329 489.066 190.715 488.831 191.962 488.333C193.21 487.834 194.284 487.109 195.184 486.158C196.084 485.207 196.741 484.024 197.153 482.611Z"/>
<path d="M212.533 494.696L212.619 494.244C211.998 494.063 211.321 493.763 210.589 493.343C209.858 492.923 209.36 492.423 209.095 491.842C208.917 491.465 208.89 490.867 209.015 490.047C209.139 489.228 209.284 488.382 209.45 487.508L211.39 477.295C211.568 476.361 211.731 475.502 211.879 474.719C212.034 473.905 212.183 473.122 212.326 472.369C212.469 471.615 212.618 470.871 212.773 470.136C212.929 469.401 213.078 468.656 213.221 467.903C213.383 467.216 213.545 466.482 213.709 465.702C213.873 464.921 214.139 464.301 214.508 463.84C215.037 463.191 215.686 462.815 216.454 462.711C217.223 462.608 217.933 462.571 218.582 462.601L218.668 462.149L205.156 459.582L205.07 460.034C205.836 460.273 206.507 460.564 207.081 460.908C207.656 461.251 208.106 461.719 208.43 462.311C208.571 462.556 208.651 462.876 208.67 463.27C208.688 463.663 208.676 464.098 208.633 464.574C208.589 465.049 208.516 465.558 208.413 466.1C208.31 466.643 208.207 467.185 208.104 467.727L206.43 476.54C206.275 477.353 206.109 478.227 205.932 479.161C205.76 480.065 205.586 480.945 205.407 481.8C205.229 482.656 205.064 483.444 204.912 484.164C204.759 484.885 204.643 485.456 204.563 485.877C204.471 486.359 204.371 486.848 204.261 487.342C204.152 487.836 204.031 488.305 203.9 488.748C203.769 489.191 203.635 489.572 203.496 489.889C203.358 490.206 203.197 490.441 203.012 490.593C202.462 491.019 201.838 491.306 201.139 491.454C200.44 491.603 199.702 491.665 198.926 491.643L198.84 492.095L212.533 494.696Z"/>
<path d="M251.7 481.495C251.859 479.293 251.629 477.155 251.009 475.081C250.39 473.007 249.417 471.146 248.091 469.498C246.764 467.85 245.102 466.493 243.103 465.426C241.104 464.36 238.805 463.734 236.205 463.546C233.819 463.375 231.52 463.601 229.308 464.226C227.095 464.851 225.134 465.832 223.423 467.169C221.713 468.506 220.308 470.188 219.209 472.215C218.11 474.242 217.466 476.571 217.276 479.202C217.098 481.679 217.386 483.983 218.139 486.112C218.893 488.242 219.996 490.105 221.45 491.7C222.903 493.296 224.64 494.574 226.662 495.535C228.683 496.495 230.856 497.059 233.181 497.226C235.536 497.396 237.791 497.143 239.946 496.468C242.101 495.793 244.021 494.747 245.706 493.331C247.391 491.915 248.768 490.201 249.835 488.187C250.903 486.173 251.524 483.942 251.7 481.495ZM246.008 481.132C245.869 483.059 245.493 484.969 244.881 486.861C244.268 488.754 243.432 490.439 242.372 491.915C241.313 493.392 240.037 494.568 238.544 495.445C237.051 496.321 235.341 496.69 233.414 496.551C231.487 496.412 229.829 495.847 228.44 494.856C227.051 493.864 225.928 492.599 225.07 491.062C224.212 489.524 223.608 487.774 223.257 485.812C222.906 483.85 222.806 481.829 222.956 479.749C223.099 477.761 223.462 475.811 224.045 473.901C224.629 471.991 225.442 470.304 226.485 468.842C227.528 467.38 228.811 466.219 230.333 465.36C231.855 464.501 233.61 464.144 235.599 464.287C237.556 464.428 239.219 465.032 240.587 466.099C241.956 467.166 243.066 468.506 243.918 470.12C244.77 471.734 245.365 473.506 245.703 475.437C246.041 477.368 246.142 479.266 246.008 481.132Z"/>
<path d="M292.071 461.653L292.021 461.196L280.681 462.442L280.731 462.899C282.218 462.952 283.379 463.202 284.215 463.65C285.051 464.098 285.668 464.732 286.067 465.552C286.381 466.166 286.615 467.027 286.768 468.136C286.921 469.246 287.064 470.41 287.198 471.629L288.907 487.175L264.449 464.227L255.167 465.247L255.217 465.704C255.711 465.712 256.233 465.755 256.781 465.833C257.33 465.912 257.85 466.086 258.343 466.356C258.835 466.626 259.28 467.024 259.678 467.551C260.075 468.078 260.368 468.779 260.556 469.653C260.684 470.533 260.781 471.278 260.848 471.888C260.912 472.467 260.974 473.031 261.034 473.58C261.095 474.129 261.157 474.692 261.22 475.272C261.284 475.851 261.365 476.582 261.462 477.466C261.686 479.509 261.881 481.423 262.047 483.21C262.212 484.996 262.337 486.549 262.42 487.866C262.55 489.61 262.623 491.114 262.638 492.377C262.654 493.64 262.483 494.616 262.127 495.303C261.774 496.02 261.247 496.564 260.548 496.934C259.848 497.304 259.137 497.575 258.416 497.747L258.466 498.204L269.714 496.967L269.664 496.51C268.397 496.495 267.387 496.352 266.632 496.08C265.877 495.808 265.293 495.34 264.881 494.676C264.509 494.1 264.216 493.191 264.003 491.95C263.789 490.708 263.597 489.31 263.426 487.755L261.305 468.46C263.632 470.548 265.845 472.573 267.942 474.533C270.039 476.493 272.181 478.502 274.366 480.56C276.551 482.618 278.848 484.78 281.257 487.045C283.666 489.31 286.33 491.793 289.249 494.496C289.587 494.767 289.878 494.89 290.122 494.863C290.275 494.846 290.385 494.795 290.453 494.711C290.521 494.626 290.548 494.523 290.534 494.401C290.437 493.517 290.328 492.526 290.208 491.429C290.087 490.331 289.958 489.227 289.82 488.116C289.683 487.005 289.555 485.916 289.438 484.85C289.317 483.752 289.21 482.777 289.116 481.923C288.892 479.881 288.704 477.965 288.554 476.177C288.404 474.389 288.287 472.836 288.204 471.519C288.111 470.11 288.027 468.785 287.952 467.543C287.877 466.302 287.921 465.441 288.085 464.96C288.353 464.036 288.807 463.323 289.446 462.821C290.085 462.319 290.96 461.929 292.071 461.653Z"/>
<path d="M348.407 478.051L348.26 477.615C347.553 477.822 346.906 477.918 346.319 477.906C345.733 477.894 345.223 477.823 344.791 477.694C344.359 477.564 344.012 477.423 343.75 477.268C343.487 477.114 343.332 477.013 343.283 476.965C343.001 476.704 342.728 476.302 342.464 475.76C342.2 475.218 341.975 474.671 341.789 474.119C341.181 472.414 340.617 470.792 340.098 469.252C339.568 467.683 339.039 466.114 338.509 464.545C338.058 463.208 337.612 461.886 337.171 460.579C336.729 459.271 336.288 457.915 335.846 456.511C335.532 455.484 335.228 454.438 334.933 453.372C334.638 452.306 334.494 451.497 334.502 450.944C334.519 450.227 334.761 449.53 335.229 448.854C335.697 448.178 336.521 447.625 337.703 447.194L337.556 446.758L328.272 449.891C328.263 450.153 328.194 451.123 328.065 452.801C327.935 454.479 327.756 456.587 327.528 459.123C327.3 461.66 327.037 464.5 326.738 467.643C326.439 470.787 326.116 473.954 325.769 477.146L307.351 456.951L298.068 460.084L298.215 460.52C298.583 460.46 299.036 460.412 299.574 460.376C300.112 460.34 300.648 460.394 301.182 460.538C301.716 460.681 302.229 460.953 302.72 461.354C303.211 461.755 303.609 462.357 303.912 463.161C304.226 463.993 304.48 464.7 304.677 465.281C304.873 465.863 305.064 466.429 305.25 466.981C305.427 467.504 305.613 468.056 305.809 468.638C306.005 469.219 306.245 469.931 306.53 470.773C307.187 472.72 307.788 474.548 308.332 476.258C308.877 477.967 309.331 479.457 309.694 480.726C310.165 482.218 310.488 483.509 310.661 484.599C310.835 485.689 310.851 486.647 310.708 487.472C310.566 488.297 310.241 489.013 309.735 489.621C309.228 490.229 308.5 490.806 307.552 491.353L307.699 491.789L319.075 487.95L318.927 487.514C317.619 487.761 316.543 487.809 315.699 487.657C314.854 487.505 314.143 487.146 313.564 486.581C312.984 486.016 312.482 485.247 312.057 484.274C311.631 483.301 311.188 482.131 310.727 480.766C310.011 478.645 309.384 476.785 308.845 475.187C308.305 473.589 307.8 472.068 307.329 470.625C306.858 469.182 306.383 467.724 305.902 466.252C305.421 464.779 304.858 463.084 304.21 461.167C304.463 461.437 304.938 461.957 305.634 462.725C306.331 463.493 307.209 464.443 308.271 465.574C309.332 466.704 310.53 467.999 311.864 469.459C313.198 470.918 314.631 472.481 316.165 474.149C317.698 475.816 319.281 477.556 320.912 479.368C322.543 481.18 324.186 483.004 325.842 484.841L326.103 484.753C326.102 484.559 326.128 484.154 326.179 483.538C326.23 482.922 326.276 482.243 326.317 481.501C326.357 480.759 326.403 480.031 326.454 479.318C326.505 478.605 326.554 478.079 326.601 477.739C326.834 475.265 327.049 473 327.245 470.944C327.441 468.887 327.642 466.869 327.848 464.89C328.054 462.911 328.252 460.886 328.443 458.815C328.635 456.743 328.847 454.471 329.08 451.997L333.243 464.332C333.87 466.191 334.478 467.993 335.066 469.736C335.655 471.48 336.243 473.32 336.832 475.257C336.999 475.848 337.135 476.442 337.239 477.038C337.343 477.634 337.372 478.15 337.325 478.587C337.24 479.295 336.855 480.024 336.169 480.773C335.483 481.522 334.526 482.137 333.296 482.617L333.458 483.096L348.407 478.051Z"/>
<path d="M365.917 468.532L365.709 468.121C365.107 468.357 364.388 468.532 363.552 468.646C362.715 468.759 362.016 468.667 361.452 468.368C361.081 468.177 360.695 467.72 360.293 466.995C359.892 466.27 359.491 465.51 359.09 464.717L354.397 455.44C353.968 454.592 353.573 453.812 353.213 453.1C352.84 452.362 352.48 451.65 352.134 450.966C351.788 450.282 351.452 449.601 351.126 448.924C350.801 448.246 350.465 447.566 350.119 446.882C349.828 446.238 349.509 445.558 349.163 444.839C348.817 444.121 348.649 443.467 348.66 442.877C348.684 442.04 348.968 441.346 349.515 440.795C350.061 440.244 350.6 439.782 351.133 439.409L350.926 438.999L338.653 445.207L338.86 445.618C339.613 445.34 340.322 445.162 340.987 445.083C341.652 445.005 342.293 445.101 342.912 445.372C343.173 445.481 343.431 445.685 343.686 445.986C343.941 446.286 344.197 446.638 344.452 447.042C344.708 447.445 344.96 447.893 345.209 448.386C345.458 448.878 345.708 449.371 345.957 449.863L350.006 457.868C350.38 458.606 350.781 459.4 351.21 460.248C351.625 461.069 352.023 461.873 352.404 462.66C352.785 463.447 353.135 464.172 353.453 464.836C353.772 465.499 354.028 466.023 354.222 466.406C354.443 466.844 354.661 467.292 354.876 467.75C355.091 468.209 355.282 468.654 355.448 469.085C355.615 469.516 355.74 469.899 355.824 470.235C355.908 470.571 355.923 470.855 355.869 471.089C355.694 471.761 355.374 472.37 354.911 472.914C354.447 473.458 353.901 473.957 353.272 474.413L353.48 474.823L365.917 468.532Z"/>
<path d="M381.706 459.168L381.468 458.775C380.885 459.056 380.182 459.286 379.357 459.463C378.532 459.64 377.827 459.601 377.242 459.346C376.857 459.185 376.437 458.758 375.982 458.066C375.526 457.373 375.068 456.647 374.607 455.886L369.219 446.996C368.727 446.183 368.274 445.435 367.86 444.753C367.431 444.045 367.018 443.363 366.621 442.708C366.223 442.052 365.836 441.399 365.46 440.749C365.084 440.098 364.697 439.445 364.3 438.789C363.96 438.17 363.59 437.516 363.19 436.826C362.79 436.136 362.573 435.497 362.539 434.908C362.498 434.072 362.729 433.358 363.232 432.767C363.734 432.176 364.236 431.674 364.74 431.261L364.501 430.868L352.739 437.996L352.977 438.39C353.707 438.055 354.4 437.823 355.057 437.694C355.714 437.565 356.361 437.612 356.998 437.836C357.267 437.924 357.54 438.108 357.817 438.388C358.094 438.668 358.376 439 358.662 439.382C358.947 439.765 359.233 440.192 359.519 440.664C359.805 441.136 360.091 441.609 360.378 442.081L365.027 449.752C365.456 450.46 365.917 451.22 366.409 452.033C366.886 452.82 367.345 453.591 367.784 454.347C368.224 455.102 368.628 455.799 368.997 456.436C369.365 457.073 369.661 457.576 369.883 457.943C370.137 458.362 370.389 458.793 370.638 459.233C370.887 459.674 371.112 460.103 371.311 460.52C371.51 460.937 371.664 461.31 371.773 461.638C371.882 461.966 371.919 462.249 371.883 462.486C371.76 463.17 371.488 463.801 371.067 464.379C370.647 464.957 370.14 465.497 369.548 465.999L369.786 466.392L381.706 459.168Z"/>
<path d="M394.478 408.772L394.193 408.41L385.226 415.463L385.511 415.824C386.801 415.083 387.919 414.681 388.865 414.62C389.811 414.558 390.671 414.77 391.443 415.255C392.034 415.61 392.687 416.218 393.403 417.078C394.119 417.939 394.856 418.852 395.615 419.816L405.284 432.109L372.391 425.558L365.051 431.331L365.336 431.693C365.759 431.438 366.225 431.198 366.732 430.975C367.239 430.752 367.773 430.624 368.333 430.593C368.894 430.562 369.482 430.665 370.098 430.902C370.714 431.14 371.333 431.579 371.955 432.222C372.529 432.902 373.006 433.483 373.385 433.965C373.745 434.423 374.096 434.869 374.437 435.303C374.778 435.736 375.129 436.182 375.489 436.64C375.849 437.098 376.304 437.677 376.854 438.376C378.125 439.991 379.302 441.513 380.387 442.942C381.472 444.371 382.398 445.623 383.165 446.697C384.198 448.109 385.054 449.347 385.735 450.411C386.416 451.475 386.787 452.393 386.847 453.165C386.927 453.96 386.768 454.7 386.369 455.384C385.971 456.068 385.511 456.674 384.989 457.201L385.274 457.563L394.168 450.567L393.884 450.205C392.801 450.862 391.867 451.275 391.082 451.443C390.298 451.611 389.555 451.523 388.854 451.177C388.234 450.884 387.505 450.268 386.667 449.327C385.83 448.386 384.927 447.301 383.961 446.071L371.96 430.813C375.04 431.356 377.988 431.905 380.804 432.46C383.621 433.015 386.5 433.588 389.443 434.18C392.386 434.772 395.479 435.393 398.721 436.042C401.963 436.691 405.537 437.391 409.444 438.142C409.875 438.194 410.186 438.144 410.379 437.992C410.5 437.897 410.566 437.796 410.579 437.688C410.592 437.581 410.561 437.479 410.485 437.382C409.935 436.683 409.319 435.9 408.636 435.032C407.954 434.164 407.26 433.295 406.556 432.425C405.852 431.555 405.169 430.698 404.505 429.854C403.822 428.986 403.216 428.215 402.685 427.54C401.415 425.925 400.243 424.398 399.17 422.96C398.097 421.521 397.177 420.265 396.41 419.19C395.586 418.044 394.815 416.963 394.095 415.949C393.375 414.935 392.958 414.181 392.842 413.686C392.582 412.76 392.59 411.915 392.867 411.151C393.144 410.387 393.681 409.593 394.478 408.772Z"/>
<path d="M426.635 421.726L426.309 421.402C425.811 421.815 425.183 422.206 424.425 422.576C423.666 422.946 422.973 423.077 422.344 422.97C421.931 422.906 421.421 422.592 420.813 422.03C420.205 421.467 419.586 420.872 418.956 420.244L411.591 412.906C410.918 412.235 410.299 411.618 409.734 411.056C409.148 410.471 408.583 409.908 408.04 409.367C407.497 408.826 406.964 408.285 406.443 407.744C405.921 407.203 405.389 406.661 404.846 406.12C404.368 405.601 403.852 405.054 403.298 404.48C402.744 403.907 402.38 403.338 402.205 402.775C401.965 401.973 402.018 401.225 402.364 400.53C402.71 399.836 403.077 399.228 403.467 398.707L403.141 398.382L393.433 408.125L393.759 408.45C394.387 407.95 395.004 407.558 395.611 407.275C396.217 406.992 396.857 406.883 397.529 406.947C397.811 406.968 398.12 407.081 398.457 407.287C398.793 407.492 399.146 407.746 399.515 408.049C399.884 408.352 400.264 408.698 400.655 409.088C401.046 409.477 401.438 409.867 401.829 410.257L408.183 416.588C408.769 417.172 409.399 417.8 410.073 418.471C410.724 419.12 411.354 419.759 411.963 420.387C412.571 421.015 413.13 421.594 413.641 422.124C414.152 422.654 414.559 423.071 414.863 423.374C415.211 423.72 415.558 424.078 415.906 424.446C416.253 424.814 416.574 425.176 416.867 425.533C417.161 425.891 417.4 426.216 417.585 426.508C417.77 426.8 417.873 427.066 417.895 427.304C417.94 427.998 417.827 428.676 417.557 429.338C417.287 430 416.925 430.645 416.471 431.275L416.797 431.6L426.635 421.726Z"/>
<path d="M437.76 394.661C436.079 393.276 434.311 392.565 432.456 392.526C430.6 392.488 428.714 393.03 426.796 394.152C426.26 394.465 425.75 394.77 425.267 395.067C424.784 395.365 424.312 395.661 423.85 395.956C423.388 396.251 422.916 396.547 422.433 396.845C421.949 397.142 421.418 397.449 420.839 397.767C419.395 398.603 417.982 399.089 416.6 399.222C415.219 399.356 413.901 398.906 412.647 397.872C411.842 397.209 411.238 396.483 410.835 395.695C410.432 394.906 410.217 394.093 410.191 393.257C410.164 392.421 410.313 391.589 410.636 390.763C410.959 389.937 411.423 389.156 412.027 388.423C412.788 387.5 413.669 386.815 414.672 386.37C415.675 385.924 416.721 385.654 417.812 385.56C418.904 385.465 420.019 385.51 421.159 385.694C422.298 385.878 423.376 386.149 424.391 386.509L424.713 386.118L418.144 380.708L417.822 381.098C417.95 381.521 418.064 381.963 418.163 382.421C418.262 382.88 418.282 383.145 418.223 383.216C418.204 383.24 418.003 383.303 417.621 383.405C417.238 383.507 416.741 383.713 416.128 384.023C415.515 384.333 414.808 384.793 414.007 385.405C413.205 386.016 412.366 386.854 411.489 387.919C410.553 389.055 409.809 390.26 409.256 391.534C408.704 392.807 408.414 394.088 408.386 395.376C408.358 396.664 408.615 397.919 409.158 399.141C409.701 400.363 410.612 401.5 411.89 402.553C412.647 403.177 413.471 403.637 414.36 403.932C415.249 404.227 416.147 404.391 417.054 404.423C417.961 404.455 418.856 404.358 419.738 404.131C420.62 403.904 421.433 403.58 422.177 403.16C422.838 402.791 423.395 402.465 423.847 402.182C424.299 401.898 424.741 401.627 425.174 401.367C425.606 401.107 426.069 400.823 426.562 400.514C427.055 400.205 427.642 399.854 428.323 399.461C429.004 399.069 429.679 398.731 430.349 398.449C431.019 398.166 431.688 397.992 432.357 397.928C433.026 397.863 433.697 397.929 434.37 398.125C435.042 398.322 435.71 398.693 436.373 399.239C438.006 400.584 438.853 402.196 438.915 404.075C438.977 405.953 438.286 407.768 436.844 409.52C436.337 410.135 435.704 410.687 434.945 411.174C434.186 411.661 433.534 412.018 432.989 412.245C432.445 412.472 431.791 412.639 431.028 412.745C430.265 412.852 429.456 412.881 428.602 412.833C427.748 412.785 426.882 412.678 426.006 412.512C425.129 412.346 424.284 412.106 423.469 411.793L423.177 412.148L430.33 417.862L430.593 417.542C430.489 417.138 430.392 416.701 430.303 416.23C430.214 415.76 430.199 415.489 430.257 415.418C430.316 415.347 430.54 415.243 430.93 415.108C431.32 414.972 431.839 414.715 432.489 414.336C433.139 413.957 433.876 413.412 434.7 412.701C435.525 411.989 436.414 411.054 437.37 409.894C438.481 408.545 439.351 407.175 439.979 405.785C440.607 404.396 440.938 403.029 440.972 401.686C441.005 400.343 440.762 399.071 440.243 397.868C439.724 396.666 438.896 395.596 437.76 394.661Z"/>
<path d="M445.666 353.12L437.235 349.721C437.053 350.435 436.849 351.11 436.625 351.745C436.4 352.38 436.039 353.138 435.539 354.019C434.934 355.015 434.4 355.91 433.935 356.704C433.471 357.499 433.022 358.267 432.589 359.008C432.156 359.75 431.701 360.514 431.224 361.301C430.762 362.061 430.236 362.926 429.647 363.895C429.058 364.865 428.525 365.743 428.047 366.529C427.586 367.29 427.132 368.036 426.686 368.77C426.24 369.504 425.772 370.26 425.281 371.039C424.79 371.817 424.229 372.696 423.598 373.676C422.983 374.63 422.481 375.339 422.091 375.802C421.702 376.265 421.259 376.759 420.762 377.282L427.515 382.999L427.848 382.717C427.472 382.273 427.118 381.762 426.787 381.184C426.457 380.607 426.167 380.036 425.917 379.472C425.668 378.907 425.443 378.376 425.244 377.878C425.044 377.38 424.916 376.971 424.86 376.649C424.67 375.781 424.665 374.961 424.846 374.192C425.026 373.422 425.406 372.532 425.985 371.52C426.287 371.022 426.547 370.579 426.765 370.191C426.983 369.803 427.195 369.438 427.402 369.098C427.625 368.731 427.856 368.351 428.095 367.958C428.349 367.538 428.644 367.053 428.978 366.503L441.991 374.408C442.699 374.838 443.446 375.292 444.232 375.769C445.019 376.247 445.775 376.715 446.501 377.174C447.226 377.633 447.887 378.052 448.482 378.432C449.077 378.811 449.557 379.112 449.924 379.335C450.344 379.59 450.772 379.859 451.21 380.143C451.647 380.427 452.044 380.704 452.4 380.974C452.757 381.244 453.065 381.503 453.327 381.752C453.589 382.001 453.745 382.23 453.797 382.441C454.112 383.458 454.17 384.336 453.972 385.077C453.773 385.817 453.506 386.552 453.171 387.281L453.564 387.52L461.326 374.743L460.932 374.504C460.477 375.017 459.926 375.57 459.278 376.164C458.631 376.757 457.899 377.075 457.084 377.118C456.668 377.153 456.101 376.978 455.383 376.596C454.664 376.213 453.925 375.791 453.165 375.329L444.437 370.027C443.625 369.534 442.629 368.929 441.449 368.212C440.244 367.48 439.025 366.74 437.793 365.991C436.561 365.243 435.386 364.52 434.267 363.822C433.148 363.124 432.261 362.576 431.605 362.178C431.956 361.602 432.25 361.117 432.489 360.724C432.744 360.304 432.975 359.924 433.182 359.584C433.405 359.217 433.634 358.854 433.87 358.495C434.106 358.136 434.375 357.707 434.678 357.209C435.309 356.229 435.905 355.47 436.465 354.931C437.026 354.393 437.735 354.007 438.594 353.775C438.905 353.677 439.338 353.599 439.893 353.542C440.448 353.485 441.04 353.44 441.669 353.41C442.297 353.379 442.955 353.375 443.641 353.397C444.327 353.419 444.97 353.469 445.569 353.545L445.666 353.12Z"/>
<path d="M482.287 328.513L481.861 328.339C481.118 329.592 480.203 330.577 479.116 331.292C478.029 332.008 476.532 332.59 474.627 333.038C473.384 333.325 471.961 333.647 470.358 334.003C468.755 334.359 467.264 334.686 465.883 334.984C465.113 335.166 464.394 335.386 463.726 335.643C463.058 335.9 462.498 336.218 462.045 336.597L461.917 336.544C461.987 335.48 461.969 334.429 461.863 333.392C461.756 332.355 461.514 331.386 461.136 330.487C460.758 329.587 460.228 328.775 459.547 328.05C458.866 327.324 458 326.747 456.949 326.319C455.246 325.623 453.677 325.43 452.242 325.739C450.808 326.048 449.509 326.693 448.346 327.676C447.195 328.63 446.261 329.823 445.545 331.253C444.829 332.683 444.082 334.349 443.306 336.251C442.993 337.018 442.587 338.012 442.089 339.232C441.591 340.453 441.1 341.677 440.615 342.904C440.131 344.13 439.692 345.226 439.298 346.192C438.916 347.129 438.678 347.711 438.585 347.938L439.011 348.112C439.438 347.392 439.836 346.801 440.207 346.339C440.577 345.878 441.077 345.527 441.705 345.286C441.945 345.185 442.277 345.163 442.7 345.221C443.124 345.278 443.579 345.38 444.065 345.529C444.551 345.678 445.059 345.852 445.59 346.052C446.121 346.253 446.643 346.457 447.154 346.666L455.458 350.055C456.225 350.368 457.048 350.704 457.929 351.064C458.78 351.411 459.608 351.758 460.411 352.102C461.215 352.447 461.954 352.765 462.63 353.057C463.305 353.35 463.842 353.577 464.239 353.739C464.694 353.925 465.156 354.13 465.627 354.355C466.099 354.581 466.538 354.802 466.947 355.018C467.355 355.235 467.713 355.455 468.019 355.679C468.324 355.903 468.534 356.121 468.646 356.333C468.95 356.887 469.082 357.537 469.042 358.283C469.003 359.029 468.895 359.78 468.719 360.536L469.145 360.71L474.708 347.082L474.282 346.908C473.75 348.049 473.159 348.867 472.509 349.364C471.859 349.861 471.303 350.147 470.842 350.224C470.3 350.334 469.697 350.27 469.032 350.031C468.367 349.793 467.575 349.503 466.655 349.16C465.706 348.806 464.551 348.351 463.188 347.795C461.825 347.239 460.221 346.584 458.375 345.831C458.566 345.445 458.713 345.124 458.818 344.868C458.934 344.584 459.158 344.196 459.492 343.703C459.936 343.023 460.577 342.465 461.417 342.029C462.258 341.594 463.12 341.226 464.005 340.924C465.078 340.567 466.036 340.271 466.877 340.035C467.719 339.799 468.539 339.595 469.337 339.424C470.136 339.253 470.939 339.092 471.745 338.941C472.552 338.79 473.463 338.607 474.478 338.393C475.317 338.205 475.943 338.071 476.356 337.991C476.77 337.912 477.091 337.836 477.319 337.763C477.547 337.691 477.748 337.624 477.923 337.563C478.097 337.501 478.364 337.395 478.723 337.244L482.287 328.513ZM454.695 331.112C455.461 331.425 456.159 331.826 456.788 332.314C457.416 332.803 457.952 333.377 458.394 334.038C458.837 334.699 459.166 335.454 459.382 336.305C459.598 337.155 459.663 338.092 459.576 339.116C459.506 340.181 459.315 341.237 459.003 342.286C458.69 343.334 458.297 344.44 457.822 345.605C457.595 345.512 457.055 345.292 456.203 344.944C455.323 344.585 454.301 344.167 453.137 343.692C451.973 343.217 450.769 342.717 449.526 342.193C448.282 341.669 447.169 341.19 446.187 340.756C445.546 340.461 445.05 340.234 444.701 340.075C444.352 339.916 444.081 339.789 443.888 339.694C443.695 339.598 443.541 339.51 443.425 339.43C443.308 339.349 443.171 339.26 443.012 339.162C443.065 338.952 443.152 338.656 443.275 338.276C443.397 337.895 443.58 337.406 443.823 336.81C444.159 335.987 444.552 335.228 445.001 334.533C445.45 333.839 445.97 333.215 446.56 332.661C447.77 331.564 449.073 330.887 450.47 330.63C451.867 330.372 453.275 330.533 454.695 331.112Z"/>
<path d="M458.882 284.912L458.434 284.809L456.07 295.169L456.519 295.272C456.674 294.867 456.84 294.448 457.017 294.017C457.194 293.586 457.4 293.2 457.635 292.86C457.87 292.521 458.149 292.262 458.473 292.084C458.796 291.907 459.197 291.872 459.676 291.981C459.975 292.05 460.29 292.184 460.621 292.386C460.953 292.587 461.272 292.809 461.578 293.052C461.884 293.295 462.174 293.542 462.447 293.793C462.72 294.044 462.959 294.272 463.164 294.476C463.581 294.854 464.149 295.4 464.866 296.114C465.584 296.829 466.333 297.581 467.111 298.372C467.89 299.164 468.656 299.944 469.408 300.713C470.161 301.482 470.777 302.126 471.256 302.644C470.34 302.939 469.37 303.26 468.347 303.608C467.324 303.957 466.325 304.303 465.35 304.647C464.375 304.99 463.455 305.3 462.59 305.574C461.725 305.849 460.986 306.089 460.373 306.295C459.457 306.589 458.553 306.863 457.662 307.116C456.771 307.368 456.131 307.45 455.742 307.362C455.353 307.273 455.074 307.083 454.904 306.793C454.735 306.503 454.627 306.148 454.581 305.729C454.535 305.309 454.534 304.868 454.576 304.406C454.619 303.944 454.676 303.485 454.749 303.03L454.3 302.928L451.2 316.517L451.648 316.619C451.815 316.028 452.1 315.535 452.505 315.139C452.91 314.744 453.421 314.365 454.038 314.003C454.655 313.641 455.376 313.31 456.199 313.01C457.022 312.71 457.932 312.375 458.929 312.005C459.446 311.808 460.114 311.568 460.934 311.283C461.754 310.998 462.633 310.695 463.571 310.375C464.509 310.054 465.471 309.731 466.458 309.405C467.444 309.08 468.338 308.781 469.14 308.508C469.941 308.234 470.615 308.003 471.162 307.813C471.709 307.623 472.034 307.509 472.137 307.469C473.781 307.844 475.177 308.171 476.325 308.448C477.473 308.726 478.462 308.975 479.292 309.196C479.77 309.305 480.262 309.425 480.767 309.556C481.272 309.687 481.743 309.826 482.181 309.973C482.62 310.12 483.01 310.272 483.351 310.429C483.693 310.585 483.922 310.756 484.037 310.939C484.635 311.767 484.964 312.495 485.025 313.123C485.087 313.75 485.073 314.463 484.986 315.26L485.434 315.363L488.586 301.55L488.137 301.447C487.868 302.078 487.546 302.728 487.173 303.398C486.8 304.068 486.234 304.552 485.474 304.85C485.09 305.014 484.482 305.025 483.65 304.882C482.817 304.74 481.968 304.569 481.1 304.371L472.086 302.315C471.63 301.833 470.995 301.169 470.181 300.323C469.368 299.477 468.515 298.598 467.622 297.687C466.729 296.775 465.87 295.887 465.045 295.023C464.22 294.158 463.564 293.482 463.078 292.993C462.363 292.264 461.73 291.593 461.178 290.979C460.626 290.366 460.169 289.751 459.807 289.133C459.444 288.516 459.182 287.874 459.019 287.208C458.857 286.542 458.811 285.776 458.882 284.912Z"/>
</g>
<g fill="#000000" opacity="1" stroke="none" class="logotext">
<path d="M36.8069 120.993L32.0461 129.353L58.6607 144.51C61.3719 146.054 62.032 147.627 61.0027 149.434C59.8961 151.377 57.6455 151.651 53.4771 150.355L51.8763 158.419C59.1281 159.976 62.725 158.494 66.0961 152.574C70.2135 145.345 68.7986 139.213 62.4725 135.61L36.8069 120.993Z"/>
<path d="M76.308 122.879L68.2483 116.726L76.4524 105.98L71.0793 101.878L62.8751 112.624L55.2288 106.786L64.348 94.8414L58.7682 90.5816L43.9692 109.966L76.208 134.579L91.291 114.822L85.7112 110.562L76.308 122.879Z"/>
<path d="M84.3338 104.127C91.0077 109.465 97.896 108.813 104.778 102.166C111.361 95.8075 111.928 88.5359 106.69 83.1126C102.066 78.325 97.2082 78.5349 89.0848 82.5494C83.5952 85.249 81.1998 85.5384 79.2851 83.556C77.5511 81.7607 77.4423 79.5523 79.3498 77.7099C81.8184 75.3256 84.9725 75.8217 88.6301 79.0846L93.9511 71.2704C87.7455 66.4922 81.19 67.0403 75.2056 72.8204C69.296 78.5283 68.5852 85.5767 73.8957 91.0749C78.1946 95.5258 83.4177 95.4694 90.5351 92.2097C96.689 89.3745 98.7555 88.9691 100.778 91.0636C102.585 92.9338 102.143 95.0958 100.385 96.7937C97.2804 99.7921 94.0503 99.4418 90.385 96.6201L84.3338 104.127Z"/>
<path d="M115.232 41.8317L129.53 63.0477C132.959 68.1361 132.055 71.8183 128.777 74.0269C125.5 76.2355 121.748 75.6917 118.318 70.6034L104.021 49.3873L96.0432 54.7635L110.573 76.3245C116.414 84.992 124.65 85.0229 132.584 79.6759C140.562 74.2997 143.581 66.684 137.74 58.0165L123.21 36.4555L115.232 41.8317Z"/>
<path d="M145.15 56.6783C149.603 63.9723 156.301 65.708 165.038 61.8066C173.394 58.0747 176.408 51.4326 173.333 44.5479C170.619 38.4704 165.981 37.0109 156.975 38.0142C150.894 38.6798 148.544 38.1348 147.42 35.6184C146.402 33.3393 147.053 31.2262 149.475 30.1448C152.608 28.7454 155.404 30.2874 157.73 34.6022L165.397 29.0711C161.193 22.463 154.843 20.7425 147.246 24.1351C139.744 27.4853 136.672 33.8688 139.789 40.8484C142.313 46.4986 147.242 48.2269 155.044 47.59C161.796 47.0236 163.877 47.3472 165.064 50.0061C166.124 52.3802 164.971 54.2618 162.74 55.2584C158.799 57.0183 155.882 55.5874 153.399 51.6848L145.15 56.6783Z"/>
<path d="M213.414 5.2831L212.433 21.7642C212.198 25.8695 212.379 31.7498 212.852 35.6789L212.34 35.7681C211.405 31.9194 209.552 26.4361 207.814 22.5164L201.222 7.40773L187.186 9.85373L194.149 49.8116L202.601 48.3386L199.878 32.7141C198.905 27.1302 197.866 21.7691 196.51 16.4104L197.022 16.3211L210.388 46.9817L217.918 45.6694L219.972 12.3218L220.484 12.2325C220.978 17.7943 221.822 23.2423 222.777 28.7237L225.5 44.3482L233.953 42.8753L226.99 2.91744L213.414 5.2831Z"/>
<path d="M274.747 3.22092L264.87 2.9608L258.685 16.5827C257.969 18.1244 257.361 19.4608 256.8 21.0066C256.268 19.4841 255.736 17.9615 255.099 16.4882L249.068 2.54461L238.671 2.2708L251.153 30.013L250.807 43.1645L260.475 43.4191L260.822 30.2677L274.747 3.22092Z"/>
<path d="M289.681 34.0237C288.653 42.5076 292.832 48.0222 302.105 50.3777C310.975 52.6307 317.458 49.2878 319.314 41.9798C320.953 35.5287 318.219 31.5078 310.531 26.7115C305.347 23.4634 303.84 21.5785 304.519 18.9073C305.133 16.4882 306.954 15.2338 309.525 15.8867C312.851 16.7316 314.089 19.6748 313.238 24.502L322.683 24.9159C323.481 17.1247 319.566 11.8382 311.502 9.78996C303.539 7.76731 297.171 10.8711 295.289 18.2798C293.766 24.2774 296.562 28.6895 303.079 33.0273C308.727 36.7691 310.159 38.3131 309.442 41.1355C308.802 43.6555 306.731 44.417 304.362 43.8153C300.179 42.7528 298.778 39.8216 299.249 35.22L289.681 34.0237Z"/>
<path d="M357.046 26.5893L343.466 20.6544L317.741 53.6762L325.889 57.2371L331.797 49.4337L343.184 54.4106L341.518 64.0673L350.333 67.9198L357.046 26.5893ZM344.48 47.0318L336.332 43.4709L344.382 32.9721C345.54 31.4918 346.671 29.943 347.706 28.3526L347.944 28.4568C347.433 30.2762 347.064 32.1581 346.764 34.0133L344.48 47.0318Z"/>
<path d="M394.757 48.511L377.543 64.5778C374.519 67.3817 372.786 69.1673 370.152 72.2281L369.718 71.9426C371.337 68.153 372.244 65.8249 373.617 61.936L381.545 39.8308L373.288 34.4056L359.274 73.729L372.051 82.1237L402.579 53.6506L394.757 48.511Z"/>
<path d="M416.995 66.2696L409.69 60.0092L383.295 90.8052L390.599 97.0657L416.995 66.2696Z"/>
<path d="M437.496 86.0896C430.745 78.5238 421.346 77.3629 410.482 87.0569C399.619 96.7509 399.706 106.221 406.457 113.787C413.208 121.353 422.607 122.513 433.471 112.819C444.335 103.125 444.247 93.6554 437.496 86.0896ZM411.501 109.286C408.454 105.872 409.551 101.478 417.233 94.6227C424.916 87.7677 429.406 87.1761 432.452 90.5904C435.499 94.0047 434.402 98.3986 426.72 105.254C419.038 112.109 414.548 112.7 411.501 109.286Z"/>
<path d="M437.265 156.479L447.746 139.664C451.319 142.156 455.507 142.489 460.407 139.438C467.294 135.151 467.383 128.113 462.959 121.005L455.731 109.395L421.298 130.831L426.245 138.777L438.826 130.944L440.887 134.255L431.521 147.253L437.265 156.479ZM454.939 120.914L456.698 123.739C458.649 126.873 458.153 129.816 454.622 132.014C450.958 134.295 448.408 133.249 446.456 130.115L444.698 127.289L454.939 120.914Z"/>
</g>
<path d="M47.9319 253.594C47.9319 141.937 138.446 51.4215 250.101 51.4215C361.755 51.4215 452.269 141.937 452.269 253.594C452.269 365.251 361.755 455.767 250.101 455.767C138.446 455.767 47.9319 365.251 47.9319 253.594Z" fill="#ee4d4a" fill-rule="nonzero" opacity="1" stroke="none"/>
<path d="M223.166 295.638L223.166 227.947C223.166 226.54 224.306 225.4 225.713 225.4L280.871 225.4C282.521 225.4 283.858 226.737 283.858 228.387L283.858 295.638L351.689 295.638C353.094 295.638 354.233 296.777 354.233 298.182L354.233 352.791C354.233 354.31 353.001 355.542 351.482 355.542L283.858 355.542L283.858 424.916C283.858 426.339 282.704 427.493 281.281 427.493L226.562 427.493C224.686 427.493 223.166 425.973 223.166 424.097L223.166 355.542L155.851 355.542C154.439 355.542 153.294 354.397 153.294 352.985L153.294 298.697C153.294 297.007 154.664 295.638 156.353 295.638L223.166 295.638Z" fill="url(#RadialGradient)" fill-rule="nonzero" opacity="1" stroke="#000000" stroke-linecap="butt" stroke-linejoin="round" stroke-opacity="0.4" stroke-width="1"/>
<path class="fire f1" d="M255.269 119.932C255.269 119.932 259.07 145.184 209.468 210.092C164.138 269.409 159.578 313.922 153.294 355.542C179.373 283.001 195.362 260.62 223.166 242.015C315.809 180.021 255.269 119.932 255.269 119.932Z" fill="url(#LinearGradient)" fill-rule="nonzero" filter="url(#Filter)" opacity="1" stroke="none"/>
<path class="fire f2" d="M267.909 112.632C267.909 112.632 300.853 143.601 238.722 204.437C127.321 313.516 153.294 317.42 153.294 355.542C169.96 295.258 209.36 239.186 239.455 224.575C348.981 171.397 267.909 112.632 267.909 112.632Z" fill="url(#LinearGradient_2)" fill-rule="nonzero" filter="url(#Filter_2)" opacity="1" stroke="none"/>
<path class="fire" d="M247.478 65.3558C247.478 65.3558 264.14 123.423 214.537 188.33C169.207 247.648 159.578 313.922 153.294 355.542C179.373 283.001 199.905 236.313 223.166 212.269C308.191 124.379 247.478 65.3558 247.478 65.3558Z" fill="url(#LinearGradient_3)" fill-rule="nonzero" filter="url(#Filter_3)" opacity="1" stroke="none"/>
<path class="fire f1" d="M295.196 157.518C279.983 182.362 273.819 192.515 223.166 234.824C153.294 293.184 153.294 317.42 153.294 355.542C169.96 295.258 202.456 303.486 237.478 268.253C292.852 212.544 292.739 188.22 295.196 157.518Z" fill="url(#LinearGradient_4)" fill-rule="nonzero" filter="url(#Filter_4)" opacity="1" stroke="none"/>
<path class="fire" d="M238.69 103.703C240.799 131.756 225.165 175.151 182.377 225.4C145.183 269.078 153.294 317.42 153.294 355.542C169.96 295.258 162.208 284.532 197.645 249.715C250.105 198.174 257.624 130.383 238.69 103.703Z" fill="url(#LinearGradient_5)" fill-rule="nonzero" filter="url(#Filter_5)" opacity="1" stroke="none"/>
<path class="fire f3" d="M222.924 132.711C217.527 162.003 221.88 168.221 179.092 218.47C141.898 262.149 146.684 313.057 153.294 355.542C156.559 313.772 172.715 296.518 181.879 278.723C213.609 217.109 241.858 159.39 222.924 132.711Z" fill="url(#LinearGradient_6)" fill-rule="nonzero" filter="url(#Filter_6)" opacity="1" stroke="none"/>
<path d="M141.79 330.835C148.833 342.596 141.142 355.542 155.807 366.509C146.148 364.862 141.572 364.445 139.39 359.369C137.207 354.294 142.892 348.581 141.79 330.835Z" fill="url(#LinearGradient_7)" fill-rule="nonzero" filter="url(#Filter_7)" opacity="1" stroke="#000000" stroke-linecap="butt" stroke-linejoin="round" stroke-width="1"/>
</g>
</svg>
