<svg height="100%" stroke-miterlimit="10" style="fill-rule:nonzero;clip-rule:evenodd;stroke-linecap:round;stroke-linejoin:round;" version="1.1" viewBox="0 0 1920 1080" width="100%" xml:space="preserve" xmlns="http://www.w3.org/2000/svg" xmlns:vectornator="http://vectornator.io" xmlns:xlink="http://www.w3.org/1999/xlink"> <defs/> <g id="레이어-1" vectornator:layerName="레이어 1"> <g opacity="1"> <path d="M862.883 640.791C853.291 602.25 841.943 563.333 841.25 523.622C841.053 512.322 841.054 500.216 845.995 490.051C852.022 477.65 862.119 467.246 872.857 458.597C885.153 448.693 899.663 441.718 914.056 435.23C923.306 431.06 933.173 426.595 943.316 426.837C958.223 427.192 972.87 431.882 986.888 436.964C996.684 440.516 1005.97 445.873 1014.03 452.474C1027.53 463.528 1041.68 474.767 1051.05 489.49C1059.37 502.572 1062.22 518.529 1065.66 533.648C1071.65 559.952 1069.84 592.435 1062.35 617.781C1057.4 634.517 1050.78 651.182 1040.82 665.51C1033.7 675.737 1024.5 687.08 1012.32 689.694C1000.79 692.168 989.172 684.171 978.648 678.852C967.872 673.405 956.816 667.137 949.184 657.781C941.749 648.665 944.81 632.038 935.077 625.434C925.901 619.208 912.831 624.402 901.811 625.638C890.863 626.865 880.256 630.221 869.541 632.781C849.588 637.547 817.434 646.315 796.607 650.944C786.621 653.163 776.187 660.215 766.505 656.913C752.849 652.257 740.379 641.805 733.163 629.311C723.573 612.706 722.161 592.511 718.444 573.699C716.231 562.502 715.885 550.996 715.434 539.592C714.881 525.632 713.093 511.452 715.434 497.679C717.143 487.622 722.842 478.642 727.347 469.49C732.889 458.232 738.267 446.759 745.536 436.531C752.58 426.617 760.521 417.083 770 409.464C777.893 403.121 786.751 395.825 796.862 395.281C806.645 394.754 816.531 400.221 824.005 406.556C831.735 413.108 835.731 423.165 840.383 432.168C845.005 441.116 848.889 450.51 851.709 460.179C854.479 469.673 855.281 479.634 857.066 489.362" fill="#958195" fill-rule="nonzero" stroke="none"/> <path d="M795.594 395.344C787.39 396.227 780.317 401.285 774 406.219C773.062 406.952 772.208 407.784 771.281 408.531C772.547 407.511 773.806 406.492 775.094 405.5C781.106 400.869 787.847 396.277 795.594 395.438C799.575 395.006 803.536 395.576 807.312 396.812C803.526 395.571 799.582 394.914 795.594 395.344ZM807.312 396.812C809.201 397.431 811.063 398.202 812.844 399.094C811.06 398.2 809.207 397.434 807.312 396.812ZM812.844 399.094C814.612 399.979 816.312 400.97 817.938 402.031C817.598 401.812 817.279 401.557 816.938 401.344C815.631 400.53 814.241 399.794 812.844 399.094ZM771.281 408.531C769.668 409.831 768.114 411.19 766.562 412.562C768.115 411.194 769.669 409.83 771.281 408.531ZM766.562 412.562C765.437 413.555 764.205 414.423 763.125 415.469C758.367 420.075 754.068 425.132 750.031 430.375C747.206 434.044 744.475 437.803 742 441.719C736.167 450.948 731.611 460.856 726.719 470.594C723.081 477.835 718.822 484.903 716.5 492.719C714.856 498.252 714.387 504.067 714.219 509.812C713.962 518.588 714.747 527.337 715.188 536.094C715.629 544.872 715.739 553.689 716.656 562.438C717.222 567.834 718.257 573.104 719.219 578.438C719.792 581.619 720.309 584.812 720.844 588C723.849 605.905 727.259 624.095 739.406 638.344C742.626 642.12 746.258 645.521 750.25 648.469C754.211 651.393 758.517 653.883 763.062 655.781C765.349 656.736 767.674 657.601 770.156 657.844C777.533 658.564 784.809 654.821 791.625 652.531C796.446 650.912 801.489 649.961 806.438 648.812C817.663 646.206 828.837 643.269 840 640.406C846.997 638.612 853.992 636.87 861 635.125C861.489 637.048 861.954 638.983 862.438 640.906C862.499 641.15 862.756 641.28 863 641.219C863.244 641.157 863.374 640.931 863.312 640.688C862.828 638.765 862.365 636.829 861.875 634.906C865.336 634.045 868.788 633.173 872.25 632.312C878.051 630.87 883.822 629.275 889.656 627.969C892.783 627.269 895.92 626.638 899.094 626.188C901.896 625.79 904.713 625.475 907.5 624.969C914.435 623.708 921.777 621.654 928.844 623.094C930.357 623.402 931.839 623.897 933.219 624.594C937.99 627.002 940.176 631.292 941.625 636.25C943.55 642.835 944.018 650.146 947.719 656.094C948.646 657.584 949.813 658.932 951 660.219C952.713 662.075 954.56 663.789 956.5 665.406C962.772 670.634 969.944 674.669 977.188 678.375C979.43 679.522 981.655 680.684 983.875 681.875C992.976 686.759 1003.27 692.505 1013.91 689.562C1016.42 688.867 1018.79 687.793 1021.03 686.469C1024.26 684.562 1027.16 682.168 1029.81 679.531C1033.66 675.704 1036.99 671.36 1040.12 666.938C1046.79 657.533 1052.03 647.272 1056.25 636.562C1059.48 628.368 1062.29 619.927 1064.41 611.375C1069.25 591.764 1070.75 570.851 1068.75 550.75C1068.04 543.661 1066.7 536.728 1065.16 529.781C1062.2 516.504 1059.39 502.814 1052.38 490.969C1045.69 479.685 1035.99 470.442 1026.09 462C1018.22 455.281 1010.32 448.418 1001.31 443.25C995.086 439.679 988.483 437.073 981.719 434.719C977.57 433.275 973.386 431.911 969.156 430.719C962.534 428.853 955.796 427.388 948.938 426.75C945.805 426.458 942.641 426.297 939.5 426.562C932.621 427.144 926.048 429.553 919.75 432.25C914.75 434.391 909.789 436.67 904.875 439C896.506 442.968 888.267 447.247 880.562 452.406C872.525 457.788 865.03 464.202 858.5 471.344C857.233 472.729 856.121 474.229 854.938 475.688C854.37 472.092 853.777 468.514 852.969 464.969C851.393 458.053 848.948 451.298 846.219 444.75C848.94 451.296 851.356 458.05 852.938 464.969C853.747 468.512 854.337 472.094 854.906 475.688C852.063 479.192 849.408 482.832 847.219 486.781C845.966 489.042 844.838 491.376 843.969 493.812C841.873 499.684 841.096 505.925 840.844 512.125C840.688 515.953 840.742 519.796 840.812 523.625C841.012 534.39 841.97 545.123 843.469 555.781C847.228 582.511 854.257 608.649 860.906 634.781C853.907 636.53 846.895 638.265 839.906 640.062C828.748 642.933 817.597 645.886 806.375 648.5C801.418 649.655 796.361 650.624 791.531 652.25C784.768 654.528 777.509 658.24 770.188 657.531C767.735 657.294 765.447 656.442 763.188 655.5C758.662 653.614 754.382 651.127 750.438 648.219C746.46 645.286 742.802 641.914 739.594 638.156C727.195 623.635 723.94 605.015 720.875 586.781C719.511 578.667 717.739 570.594 716.875 562.406C715.952 553.662 715.822 544.868 715.375 536.094C714.929 527.342 714.155 518.583 714.406 509.812C714.57 504.082 715.052 498.27 716.688 492.75C719.001 484.942 723.215 477.891 726.844 470.656C731.727 460.919 736.269 451.011 742.094 441.781C744.564 437.867 747.305 434.105 750.125 430.438C754.155 425.196 758.468 420.168 763.219 415.562C764.295 414.519 765.44 413.555 766.562 412.562ZM846.219 444.75C846.057 444.361 845.946 443.95 845.781 443.562C843.47 438.118 840.746 432.892 838.125 427.594C835.112 421.503 832.092 415.258 827.594 410.094C824.887 406.986 821.581 404.411 818.125 402.156C821.559 404.415 824.854 407.02 827.562 410.125C832.061 415.283 835.048 421.54 838.062 427.625C840.874 433.3 843.785 438.897 846.219 444.75ZM945.125 427.281C946.987 427.367 948.846 427.541 950.688 427.75C956.867 428.45 962.986 429.789 968.969 431.469C973.184 432.652 977.333 434.034 981.469 435.469C988.191 437.8 994.718 440.365 1000.91 443.906C1007.06 447.424 1012.57 451.737 1018.03 456.219C1020.87 458.545 1023.68 460.904 1026.47 463.281C1036.02 471.421 1045.3 480.44 1051.75 491.312C1059.07 503.647 1061.8 518.001 1064.91 531.812C1065.93 536.362 1066.84 540.94 1067.47 545.562C1068.92 556.263 1069.22 567.098 1068.66 577.875C1068.13 587.966 1066.8 598.043 1064.59 607.906C1062.43 617.589 1059.34 627.111 1055.72 636.344C1051.33 647.521 1045.82 658.19 1038.78 667.938C1035.94 671.88 1032.89 675.689 1029.44 679.125C1026.82 681.733 1023.97 684.144 1020.78 686.031C1018.58 687.334 1016.22 688.378 1013.75 689.062C1003.26 691.974 993.103 686.278 984.125 681.469C981.902 680.278 979.653 679.085 977.406 677.938C969.747 674.027 962.165 669.772 955.656 664.094C952.897 661.687 950.044 659.004 948.094 655.875C944.414 649.97 943.98 642.664 942.062 636.125C940.574 631.05 938.291 626.68 933.406 624.219C931.992 623.506 930.488 623.002 928.938 622.688C921.812 621.242 914.428 623.287 907.438 624.562C904.656 625.07 901.859 625.382 899.062 625.781C895.879 626.236 892.699 626.858 889.562 627.562C883.726 628.874 877.99 630.49 872.188 631.938C868.718 632.803 865.25 633.696 861.781 634.562C855.133 608.463 848.105 582.353 844.344 555.656C842.78 544.559 841.829 533.395 841.656 522.188C841.605 518.848 841.584 515.526 841.719 512.188C841.965 506.075 842.718 499.883 844.781 494.094C846.016 490.629 847.753 487.37 849.688 484.25C851.323 481.611 853.155 479.082 855.094 476.656C856.756 474.577 858.485 472.557 860.312 470.625C866.525 464.06 873.524 458.156 881.031 453.125C889.248 447.618 898.087 443.098 907.031 438.906C911.349 436.883 915.711 434.88 920.094 433C926.309 430.334 932.772 427.954 939.562 427.375C941.414 427.217 943.263 427.195 945.125 427.281Z" fill="#958195" stroke="none"/> </g> </g> </svg>
